{"glyphs":{"0":{"ha":1019,"x_min":108,"x_max":911,"o":"m 514 -14 q 292 48 383 -14 q 155 222 201 110 q 108 486 108 335 q 155 750 108 638 q 292 924 201 863 q 514 986 383 986 q 731 924 642 986 q 865 750 819 863 q 911 486 911 638 q 865 222 911 335 q 731 48 819 110 q 514 -14 642 -14 m 514 88 q 726 192 651 88 q 801 486 801 296 q 726 781 801 676 q 514 885 651 885 q 294 781 372 885 q 217 486 217 676 q 294 192 217 296 q 514 88 372 88 z "},"1":{"ha":763,"x_min":157,"x_max":624,"o":"m 357 47 l 357 892 l 403 874 l 194 750 l 157 844 l 400 986 l 467 986 l 467 47 l 357 47 m 186 0 l 186 106 l 624 106 l 624 0 l 186 0 z "},"2":{"ha":938,"x_min":117,"x_max":832,"o":"m 175 0 l 142 83 l 485 424 q 551 491 515 454 q 618 568 586 528 q 669 647 650 608 q 688 722 688 686 q 665 810 688 775 q 597 865 643 846 q 488 883 551 883 q 381 863 433 883 q 281 800 328 843 q 197 683 233 757 l 117 738 q 209 872 153 817 q 339 957 265 928 q 499 986 413 986 q 658 954 589 986 q 764 865 726 922 q 801 731 801 807 q 787 647 801 688 q 747 568 772 607 q 690 493 722 529 q 625 422 658 457 q 558 354 592 388 l 267 61 l 254 104 l 832 104 l 832 0 l 175 0 z "},"3":{"ha":918,"x_min":82,"x_max":817,"o":"m 449 -14 q 238 40 326 -14 q 82 192 149 93 l 169 257 q 247 169 204 207 q 340 108 289 131 q 453 86 392 86 q 580 111 521 86 q 674 184 639 136 q 710 300 710 232 q 679 409 710 364 q 597 478 649 454 q 482 503 544 503 q 427 499 453 503 q 377 483 401 494 q 324 454 353 472 l 288 529 l 667 911 l 676 871 l 150 871 l 150 972 l 758 972 l 783 900 l 419 540 l 390 582 q 440 599 411 593 q 500 606 468 606 q 626 583 568 606 q 726 519 683 560 q 792 425 768 479 q 817 308 817 371 q 769 141 817 214 q 638 27 721 68 q 449 -14 554 -14 z "},"4":{"ha":983,"x_min":83,"x_max":911,"o":"m 606 0 l 606 890 l 656 883 l 168 319 l 158 367 l 911 367 l 911 264 l 135 264 l 83 367 l 614 972 l 711 972 l 711 0 l 606 0 z "},"5":{"ha":938,"x_min":110,"x_max":824,"o":"m 443 -10 q 253 34 339 -10 q 110 150 167 78 l 172 229 q 302 126 232 160 q 444 93 372 93 q 584 124 522 93 q 681 208 646 154 q 717 332 717 263 q 683 443 717 393 q 591 522 649 493 q 461 551 533 551 q 360 540 408 551 q 275 513 313 529 q 211 482 238 497 l 150 560 l 207 972 l 763 972 l 763 871 l 264 871 l 294 896 l 244 558 l 217 581 q 282 613 240 597 q 376 640 324 629 q 476 650 428 650 q 651 610 574 650 q 776 499 729 569 q 824 332 824 428 q 774 158 824 235 q 638 35 724 81 q 443 -10 551 -10 z "},"6":{"ha":981,"x_min":124,"x_max":856,"o":"m 492 -7 q 347 17 414 -7 q 230 88 279 42 q 152 198 181 135 q 124 338 124 261 q 138 436 125 386 q 176 539 151 486 q 235 644 201 592 q 310 750 269 697 l 482 981 l 600 981 l 606 967 l 399 703 q 326 601 361 656 q 262 487 290 546 q 213 367 233 428 l 172 451 q 230 530 196 493 q 308 595 264 567 q 406 640 353 624 q 518 656 458 656 q 688 613 613 656 q 810 499 764 571 q 856 335 856 426 q 808 164 856 242 q 678 40 761 86 q 492 -7 596 -7 m 488 94 q 617 124 558 94 q 712 206 676 154 q 747 325 747 257 q 714 437 747 385 q 622 521 681 489 q 489 553 564 553 q 355 522 413 553 q 265 438 297 490 q 232 326 232 386 q 264 213 232 265 q 353 127 296 160 q 488 94 411 94 z "},"7":{"ha":838,"x_min":78,"x_max":738,"o":"m 226 0 l 635 908 l 653 871 l 78 871 l 78 972 l 719 972 l 738 889 l 344 0 l 226 0 z "},"8":{"ha":988,"x_min":126,"x_max":861,"o":"m 494 -4 q 306 35 389 -4 q 175 140 224 74 q 126 286 126 206 q 143 372 126 333 q 190 442 160 411 q 260 496 219 472 q 346 538 300 519 l 338 499 q 270 528 301 507 q 216 576 239 549 q 181 640 193 604 q 168 715 168 675 q 210 844 168 786 q 327 937 253 901 q 494 972 401 972 q 659 938 586 972 q 774 845 732 903 q 817 714 817 788 q 803 638 817 674 q 767 574 790 601 q 714 527 744 546 q 651 499 683 508 l 646 532 q 733 491 694 517 q 801 433 772 465 q 845 364 829 401 q 861 286 861 326 q 813 139 861 206 q 682 34 764 72 q 494 -4 600 -4 m 494 99 q 625 123 567 99 q 718 190 683 147 q 753 286 753 233 q 718 378 753 339 q 624 442 683 418 q 494 465 565 465 q 363 442 421 465 q 269 378 304 418 q 233 286 233 339 q 267 191 233 233 q 360 124 301 149 q 494 99 419 99 m 494 554 q 604 575 556 554 q 681 632 653 596 q 708 715 708 668 q 681 795 708 761 q 604 849 653 829 q 494 869 556 869 q 382 849 431 869 q 305 795 333 829 q 276 715 276 761 q 306 631 276 668 q 384 574 335 594 q 494 554 433 554 z "},"9":{"ha":939,"x_min":111,"x_max":833,"o":"m 438 0 l 432 14 l 756 603 l 763 549 q 701 464 736 503 q 626 397 667 425 q 538 353 586 368 q 436 338 490 338 q 272 381 346 338 q 154 494 197 424 q 111 651 111 565 q 160 824 111 747 q 292 944 208 900 q 478 988 375 988 q 616 963 551 988 q 728 893 681 938 q 805 790 776 849 q 833 661 833 731 q 818 567 833 618 q 779 460 803 515 q 727 348 756 404 q 668 239 699 292 l 543 0 l 438 0 m 469 442 q 602 472 544 442 q 691 552 660 503 q 722 660 722 601 q 691 772 722 721 q 603 854 660 824 q 471 885 546 885 q 345 856 403 885 q 253 778 288 828 q 219 663 219 728 q 251 553 219 603 q 339 472 282 503 q 469 442 396 442 z "},"A":{"ha":1163,"x_min":89,"x_max":1074,"o":"m 89 0 l 517 972 l 647 972 l 1074 0 l 954 0 l 657 678 q 630 741 642 711 q 607 798 618 771 q 585 853 596 825 q 564 914 575 882 l 594 914 q 569 847 581 876 q 547 791 558 818 q 524 735 536 764 q 497 671 513 707 l 201 0 l 89 0 m 268 260 l 310 365 l 846 365 l 876 260 l 268 260 z "},"Á":{"ha":1163,"x_min":89,"x_max":1074,"o":"m 89 0 l 517 972 l 647 972 l 1074 0 l 954 0 l 657 678 q 630 741 642 711 q 607 798 618 771 q 585 853 596 825 q 564 914 575 882 l 594 914 q 569 847 581 876 q 547 791 558 818 q 524 735 536 764 q 497 671 513 707 l 201 0 l 89 0 m 268 260 l 310 365 l 846 365 l 876 260 l 268 260 m 485 1051 l 453 1110 l 685 1256 l 742 1158 l 485 1051 z "},"Ă":{"ha":1163,"x_min":89,"x_max":1074,"o":"m 89 0 l 517 972 l 647 972 l 1074 0 l 954 0 l 657 678 q 630 741 642 711 q 607 798 618 771 q 585 853 596 825 q 564 914 575 882 l 594 914 q 569 847 581 876 q 547 791 558 818 q 524 735 536 764 q 497 671 513 707 l 201 0 l 89 0 m 268 260 l 310 365 l 846 365 l 876 260 l 268 260 m 582 1050 q 485 1074 529 1050 q 413 1137 442 1097 q 371 1228 383 1176 l 451 1239 q 501 1160 467 1188 q 582 1133 536 1133 q 663 1160 628 1133 q 713 1239 697 1188 l 793 1228 q 752 1137 782 1176 q 679 1074 722 1097 q 582 1050 636 1050 z "},"Ắ":{"ha":1163,"x_min":89,"x_max":1074,"o":"m 89 0 l 517 972 l 647 972 l 1074 0 l 954 0 l 657 678 q 630 741 642 711 q 607 798 618 771 q 585 853 596 825 q 564 914 575 882 l 594 914 q 569 847 581 876 q 547 791 558 818 q 524 735 536 764 q 497 671 513 707 l 201 0 l 89 0 m 268 260 l 310 365 l 846 365 l 876 260 l 268 260 m 582 1050 q 445 1096 501 1050 q 371 1221 389 1142 l 449 1232 q 502 1155 468 1178 q 582 1132 536 1132 q 662 1155 628 1132 q 715 1232 696 1178 l 793 1221 q 719 1096 775 1142 q 582 1050 663 1050 m 589 1233 l 535 1274 l 646 1463 l 743 1393 l 589 1233 z "},"Ặ":{"ha":1163,"x_min":89,"x_max":1074,"o":"m 89 0 l 517 972 l 647 972 l 1074 0 l 954 0 l 657 678 q 630 741 642 711 q 607 798 618 771 q 585 853 596 825 q 564 914 575 882 l 594 914 q 569 847 581 876 q 547 791 558 818 q 524 735 536 764 q 497 671 513 707 l 201 0 l 89 0 m 268 260 l 310 365 l 846 365 l 876 260 l 268 260 m 582 -257 q 523 -236 543 -257 q 503 -182 503 -215 q 522 -128 503 -150 q 582 -106 542 -106 q 641 -126 621 -106 q 661 -182 661 -147 q 642 -235 661 -212 q 582 -257 622 -257 m 582 1050 q 485 1074 529 1050 q 413 1137 442 1097 q 371 1228 383 1176 l 451 1239 q 501 1160 467 1188 q 582 1133 536 1133 q 663 1160 628 1133 q 713 1239 697 1188 l 793 1228 q 752 1137 782 1176 q 679 1074 722 1097 q 582 1050 636 1050 z "},"Ằ":{"ha":1163,"x_min":89,"x_max":1074,"o":"m 89 0 l 517 972 l 647 972 l 1074 0 l 954 0 l 657 678 q 630 741 642 711 q 607 798 618 771 q 585 853 596 825 q 564 914 575 882 l 594 914 q 569 847 581 876 q 547 791 558 818 q 524 735 536 764 q 497 671 513 707 l 201 0 l 89 0 m 268 260 l 310 365 l 846 365 l 876 260 l 268 260 m 582 1050 q 445 1096 501 1050 q 371 1221 389 1142 l 449 1232 q 502 1155 468 1178 q 582 1132 536 1132 q 662 1155 628 1132 q 715 1232 696 1178 l 793 1221 q 719 1096 775 1142 q 582 1050 663 1050 m 579 1233 l 426 1393 l 524 1463 l 635 1274 l 579 1233 z "},"Ẳ":{"ha":1163,"x_min":89,"x_max":1074,"o":"m 89 0 l 517 972 l 647 972 l 1074 0 l 954 0 l 657 678 q 630 741 642 711 q 607 798 618 771 q 585 853 596 825 q 564 914 575 882 l 594 914 q 569 847 581 876 q 547 791 558 818 q 524 735 536 764 q 497 671 513 707 l 201 0 l 89 0 m 268 260 l 310 365 l 846 365 l 876 260 l 268 260 m 582 1050 q 445 1096 501 1050 q 371 1221 389 1142 l 449 1232 q 502 1155 468 1178 q 582 1132 536 1132 q 662 1155 628 1132 q 715 1232 696 1178 l 793 1221 q 719 1096 775 1142 q 582 1050 663 1050 m 556 1233 q 545 1251 550 1242 q 540 1271 540 1261 q 549 1294 540 1283 q 582 1322 557 1306 q 613 1345 603 1336 q 622 1363 622 1354 q 607 1383 622 1376 q 571 1389 592 1389 q 523 1383 547 1389 q 475 1365 499 1376 l 454 1435 q 515 1457 483 1449 q 576 1465 547 1465 q 676 1438 643 1465 q 708 1372 708 1410 q 693 1328 708 1346 q 657 1297 678 1311 q 626 1276 638 1285 q 614 1258 614 1267 q 615 1253 614 1256 q 617 1249 615 1251 l 556 1233 z "},"Ẵ":{"ha":1163,"x_min":89,"x_max":1074,"o":"m 89 0 l 517 972 l 647 972 l 1074 0 l 954 0 l 657 678 q 630 741 642 711 q 607 798 618 771 q 585 853 596 825 q 564 914 575 882 l 594 914 q 569 847 581 876 q 547 791 558 818 q 524 735 536 764 q 497 671 513 707 l 201 0 l 89 0 m 268 260 l 310 365 l 846 365 l 876 260 l 268 260 m 582 1050 q 445 1094 501 1050 q 371 1214 389 1138 l 449 1225 q 502 1153 468 1175 q 582 1132 536 1132 q 662 1153 628 1132 q 715 1225 696 1175 l 793 1214 q 719 1094 775 1138 q 582 1050 663 1050 m 685 1311 q 626 1322 653 1311 q 575 1342 599 1332 q 533 1360 553 1353 q 496 1368 513 1368 q 465 1356 479 1368 q 449 1317 451 1343 l 369 1324 q 406 1413 371 1376 q 490 1450 442 1450 q 542 1440 519 1450 q 590 1419 565 1431 q 631 1402 610 1411 q 671 1393 653 1393 q 702 1406 690 1393 q 717 1446 714 1419 l 796 1439 q 781 1372 794 1400 q 742 1327 767 1343 q 685 1311 718 1311 z "},"Ǎ":{"ha":1163,"x_min":89,"x_max":1074,"o":"m 89 0 l 517 972 l 647 972 l 1074 0 l 954 0 l 657 678 q 630 741 642 711 q 607 798 618 771 q 585 853 596 825 q 564 914 575 882 l 594 914 q 569 847 581 876 q 547 791 558 818 q 524 735 536 764 q 497 671 513 707 l 201 0 l 89 0 m 268 260 l 310 365 l 846 365 l 876 260 l 268 260 m 531 1058 l 372 1192 l 418 1232 l 603 1128 l 561 1128 l 746 1232 l 792 1192 l 633 1058 l 531 1058 z "},"Â":{"ha":1163,"x_min":89,"x_max":1074,"o":"m 89 0 l 517 972 l 647 972 l 1074 0 l 954 0 l 657 678 q 630 741 642 711 q 607 798 618 771 q 585 853 596 825 q 564 914 575 882 l 594 914 q 569 847 581 876 q 547 791 558 818 q 524 735 536 764 q 497 671 513 707 l 201 0 l 89 0 m 268 260 l 310 365 l 846 365 l 876 260 l 268 260 m 411 1056 l 365 1097 l 535 1231 l 628 1231 l 796 1097 l 751 1056 l 560 1161 l 601 1161 l 411 1056 z "},"Ấ":{"ha":1163,"x_min":89,"x_max":1074,"o":"m 89 0 l 517 972 l 647 972 l 1074 0 l 954 0 l 657 678 q 630 741 642 711 q 607 798 618 771 q 585 853 596 825 q 564 914 575 882 l 594 914 q 569 847 581 876 q 547 791 558 818 q 524 735 536 764 q 497 671 513 707 l 201 0 l 89 0 m 268 260 l 310 365 l 846 365 l 876 260 l 268 260 m 410 1056 l 368 1097 l 533 1229 l 628 1229 l 793 1097 l 751 1056 l 560 1160 l 601 1160 l 410 1056 m 789 1206 l 732 1243 l 842 1433 l 940 1365 l 789 1206 z "},"Ậ":{"ha":1163,"x_min":89,"x_max":1074,"o":"m 89 0 l 517 972 l 647 972 l 1074 0 l 954 0 l 657 678 q 630 741 642 711 q 607 798 618 771 q 585 853 596 825 q 564 914 575 882 l 594 914 q 569 847 581 876 q 547 791 558 818 q 524 735 536 764 q 497 671 513 707 l 201 0 l 89 0 m 268 260 l 310 365 l 846 365 l 876 260 l 268 260 m 582 -257 q 523 -236 543 -257 q 503 -182 503 -215 q 522 -128 503 -150 q 582 -106 542 -106 q 641 -126 621 -106 q 661 -182 661 -147 q 642 -235 661 -212 q 582 -257 622 -257 m 411 1056 l 365 1097 l 535 1231 l 628 1231 l 796 1097 l 751 1056 l 560 1161 l 601 1161 l 411 1056 z "},"Ầ":{"ha":1163,"x_min":89,"x_max":1074,"o":"m 89 0 l 517 972 l 647 972 l 1074 0 l 954 0 l 657 678 q 630 741 642 711 q 607 798 618 771 q 585 853 596 825 q 564 914 575 882 l 594 914 q 569 847 581 876 q 547 791 558 818 q 524 735 536 764 q 497 671 513 707 l 201 0 l 89 0 m 268 260 l 310 365 l 846 365 l 876 260 l 268 260 m 410 1056 l 368 1097 l 533 1236 l 628 1236 l 793 1097 l 751 1056 l 560 1167 l 601 1167 l 410 1056 m 806 1206 l 651 1367 l 749 1435 l 860 1246 l 806 1206 z "},"Ẩ":{"ha":1163,"x_min":89,"x_max":1074,"o":"m 89 0 l 517 972 l 647 972 l 1074 0 l 954 0 l 657 678 q 630 741 642 711 q 607 798 618 771 q 585 853 596 825 q 564 914 575 882 l 594 914 q 569 847 581 876 q 547 791 558 818 q 524 735 536 764 q 497 671 513 707 l 201 0 l 89 0 m 268 260 l 310 365 l 846 365 l 876 260 l 268 260 m 411 1056 l 368 1097 l 535 1229 l 628 1229 l 793 1097 l 751 1056 l 561 1160 l 601 1160 l 411 1056 m 771 1214 q 760 1233 765 1222 q 756 1253 756 1243 q 764 1275 756 1264 q 797 1303 772 1286 q 828 1325 818 1315 q 838 1342 838 1335 q 822 1363 838 1356 q 786 1369 807 1369 q 739 1363 764 1369 q 690 1346 714 1357 l 669 1415 q 731 1438 699 1431 q 792 1446 763 1446 q 891 1418 858 1446 q 924 1353 924 1390 q 908 1309 924 1326 q 872 1279 893 1292 q 841 1257 853 1267 q 829 1240 829 1247 q 830 1235 829 1238 q 832 1229 831 1232 l 771 1214 z "},"Ẫ":{"ha":1163,"x_min":89,"x_max":1074,"o":"m 89 0 l 517 972 l 647 972 l 1074 0 l 954 0 l 657 678 q 630 741 642 711 q 607 798 618 771 q 585 853 596 825 q 564 914 575 882 l 594 914 q 569 847 581 876 q 547 791 558 818 q 524 735 536 764 q 497 671 513 707 l 201 0 l 89 0 m 268 260 l 310 365 l 846 365 l 876 260 l 268 260 m 411 1056 l 368 1097 l 535 1229 l 628 1229 l 793 1097 l 751 1056 l 560 1160 l 601 1160 l 411 1056 m 683 1311 q 624 1322 651 1311 q 574 1342 597 1332 q 531 1360 551 1353 q 494 1368 511 1368 q 464 1356 478 1368 q 447 1317 450 1343 l 368 1324 q 405 1413 369 1376 q 489 1450 440 1450 q 541 1440 518 1450 q 589 1419 564 1431 q 630 1402 608 1411 q 669 1393 651 1393 q 701 1406 689 1393 q 715 1446 713 1419 l 794 1439 q 779 1372 793 1400 q 741 1327 765 1343 q 683 1311 717 1311 z "},"Ȁ":{"ha":1163,"x_min":89,"x_max":1074,"o":"m 89 0 l 517 972 l 647 972 l 1074 0 l 954 0 l 657 678 q 630 741 642 711 q 607 798 618 771 q 585 853 596 825 q 564 914 575 882 l 594 914 q 569 847 581 876 q 547 791 558 818 q 524 735 536 764 q 497 671 513 707 l 201 0 l 89 0 m 268 260 l 310 365 l 846 365 l 876 260 l 268 260 m 711 1040 l 490 1186 l 565 1272 l 754 1097 l 711 1040 m 467 1040 l 246 1186 l 322 1272 l 510 1097 l 467 1040 z "},"Ä":{"ha":1163,"x_min":89,"x_max":1074,"o":"m 89 0 l 517 972 l 647 972 l 1074 0 l 954 0 l 657 678 q 630 741 642 711 q 607 798 618 771 q 585 853 596 825 q 564 914 575 882 l 594 914 q 569 847 581 876 q 547 791 558 818 q 524 735 536 764 q 497 671 513 707 l 201 0 l 89 0 m 268 260 l 310 365 l 846 365 l 876 260 l 268 260 m 722 1068 q 663 1089 683 1068 q 643 1144 643 1110 q 663 1198 643 1175 q 722 1221 683 1221 q 783 1200 763 1221 q 803 1144 803 1179 q 783 1091 803 1114 q 722 1068 763 1068 m 442 1068 q 381 1089 401 1068 q 361 1144 361 1110 q 381 1198 361 1175 q 442 1221 401 1221 q 501 1200 481 1221 q 521 1144 521 1179 q 501 1091 521 1114 q 442 1068 481 1068 z "},"Ạ":{"ha":1163,"x_min":89,"x_max":1074,"o":"m 89 0 l 517 972 l 647 972 l 1074 0 l 954 0 l 657 678 q 630 741 642 711 q 607 798 618 771 q 585 853 596 825 q 564 914 575 882 l 594 914 q 569 847 581 876 q 547 791 558 818 q 524 735 536 764 q 497 671 513 707 l 201 0 l 89 0 m 268 260 l 310 365 l 846 365 l 876 260 l 268 260 m 582 -257 q 523 -236 543 -257 q 503 -182 503 -215 q 522 -128 503 -150 q 582 -106 542 -106 q 641 -126 621 -106 q 661 -182 661 -147 q 642 -235 661 -212 q 582 -257 622 -257 z "},"À":{"ha":1163,"x_min":89,"x_max":1074,"o":"m 89 0 l 517 972 l 647 972 l 1074 0 l 954 0 l 657 678 q 630 741 642 711 q 607 798 618 771 q 585 853 596 825 q 564 914 575 882 l 594 914 q 569 847 581 876 q 547 791 558 818 q 524 735 536 764 q 497 671 513 707 l 201 0 l 89 0 m 268 260 l 310 365 l 846 365 l 876 260 l 268 260 m 682 1051 l 426 1158 l 483 1256 l 715 1110 l 682 1051 z "},"Ả":{"ha":1163,"x_min":89,"x_max":1074,"o":"m 89 0 l 517 972 l 647 972 l 1074 0 l 954 0 l 657 678 q 630 741 642 711 q 607 798 618 771 q 585 853 596 825 q 564 914 575 882 l 594 914 q 569 847 581 876 q 547 791 558 818 q 524 735 536 764 q 497 671 513 707 l 201 0 l 89 0 m 268 260 l 310 365 l 846 365 l 876 260 l 268 260 m 558 1060 q 547 1083 551 1071 q 543 1104 543 1094 q 550 1129 543 1115 q 579 1158 557 1143 q 613 1183 601 1174 q 625 1204 625 1193 q 609 1226 625 1219 q 569 1233 593 1233 q 522 1227 549 1233 q 471 1210 496 1221 l 450 1279 q 515 1302 481 1294 q 576 1310 549 1310 q 678 1281 644 1310 q 711 1213 711 1251 q 694 1163 711 1181 q 658 1133 678 1144 q 628 1114 639 1122 q 617 1090 617 1106 q 617 1084 617 1088 q 619 1075 618 1081 l 558 1060 z "},"Ȃ":{"ha":1163,"x_min":89,"x_max":1074,"o":"m 89 0 l 517 972 l 647 972 l 1074 0 l 954 0 l 657 678 q 630 741 642 711 q 607 798 618 771 q 585 853 596 825 q 564 914 575 882 l 594 914 q 569 847 581 876 q 547 791 558 818 q 524 735 536 764 q 497 671 513 707 l 201 0 l 89 0 m 268 260 l 310 365 l 846 365 l 876 260 l 268 260 m 451 1050 l 371 1063 q 413 1153 383 1114 q 485 1216 442 1193 q 582 1239 529 1239 q 679 1216 636 1239 q 752 1153 722 1193 q 793 1063 782 1114 l 713 1050 q 663 1128 697 1101 q 582 1156 628 1156 q 501 1128 536 1156 q 451 1050 467 1101 z "},"Ā":{"ha":1163,"x_min":89,"x_max":1074,"o":"m 89 0 l 517 972 l 647 972 l 1074 0 l 954 0 l 657 678 q 630 741 642 711 q 607 798 618 771 q 585 853 596 825 q 564 914 575 882 l 594 914 q 569 847 581 876 q 547 791 558 818 q 524 735 536 764 q 497 671 513 707 l 201 0 l 89 0 m 268 260 l 310 365 l 846 365 l 876 260 l 268 260 m 368 1103 l 368 1186 l 794 1186 l 794 1103 l 368 1103 z "},"Ą":{"ha":1163,"x_min":89,"x_max":1122,"o":"m 89 0 l 517 972 l 647 972 l 1074 0 l 954 0 l 657 678 q 630 741 642 711 q 607 798 618 771 q 585 853 596 825 q 564 914 575 882 l 594 914 q 569 847 581 876 q 547 791 558 818 q 524 735 536 764 q 497 671 513 707 l 201 0 l 89 0 m 268 260 l 310 365 l 846 365 l 876 260 l 268 260 m 975 -293 q 897 -274 932 -293 q 840 -224 861 -256 q 819 -153 819 -192 q 838 -83 819 -114 q 887 -26 856 -51 q 955 17 918 -1 q 1029 50 992 36 l 1074 0 q 993 -38 1029 -15 q 936 -87 957 -61 q 915 -144 915 -112 q 935 -191 915 -172 q 988 -210 956 -210 q 1031 -198 1013 -210 q 1061 -171 1049 -186 l 1124 -215 q 1066 -269 1104 -246 q 975 -293 1028 -293 z "},"Å":{"ha":1163,"x_min":89,"x_max":1074,"o":"m 89 0 l 517 972 l 647 972 l 1074 0 l 954 0 l 657 678 q 630 741 642 711 q 607 798 618 771 q 585 853 596 825 q 564 914 575 882 l 594 914 q 569 847 581 876 q 547 791 558 818 q 524 735 536 764 q 497 671 513 707 l 201 0 l 89 0 m 268 260 l 310 365 l 846 365 l 876 260 l 268 260 m 581 1011 q 506 1031 540 1011 q 450 1085 471 1051 q 429 1157 429 1118 q 450 1232 429 1199 q 506 1285 471 1265 q 581 1304 540 1304 q 656 1285 621 1304 q 712 1232 690 1265 q 733 1157 733 1199 q 712 1085 733 1118 q 656 1031 690 1051 q 581 1011 621 1011 m 581 1079 q 640 1102 615 1079 q 664 1157 664 1125 q 640 1215 664 1194 q 581 1236 615 1236 q 522 1214 546 1236 q 499 1157 499 1192 q 523 1102 499 1125 q 581 1079 547 1079 z "},"Ǻ":{"ha":1163,"x_min":89,"x_max":1074,"o":"m 89 0 l 517 972 l 647 972 l 1074 0 l 954 0 l 657 678 q 630 741 642 711 q 607 798 618 771 q 585 853 596 825 q 564 914 575 882 l 594 914 q 569 847 581 876 q 547 791 558 818 q 524 735 536 764 q 497 671 513 707 l 201 0 l 89 0 m 268 260 l 310 365 l 846 365 l 876 260 l 268 260 m 581 1011 q 506 1031 540 1011 q 450 1085 471 1051 q 429 1157 429 1118 q 450 1232 429 1199 q 506 1285 471 1265 q 581 1304 540 1304 q 656 1285 621 1304 q 712 1232 690 1265 q 733 1157 733 1199 q 712 1085 733 1118 q 656 1031 690 1051 q 581 1011 621 1011 m 581 1079 q 640 1102 615 1079 q 664 1157 664 1125 q 640 1215 664 1194 q 581 1236 615 1236 q 522 1214 546 1236 q 499 1157 499 1192 q 523 1102 499 1125 q 581 1079 547 1079 m 483 1344 l 451 1403 l 683 1549 l 740 1451 l 483 1344 z "},"Ã":{"ha":1163,"x_min":89,"x_max":1074,"o":"m 89 0 l 517 972 l 647 972 l 1074 0 l 954 0 l 657 678 q 630 741 642 711 q 607 798 618 771 q 585 853 596 825 q 564 914 575 882 l 594 914 q 569 847 581 876 q 547 791 558 818 q 524 735 536 764 q 497 671 513 707 l 201 0 l 89 0 m 268 260 l 310 365 l 846 365 l 876 260 l 268 260 m 681 1075 q 619 1086 650 1075 q 557 1110 589 1097 q 521 1125 538 1118 q 489 1132 504 1132 q 456 1117 469 1132 q 442 1075 442 1103 l 357 1075 q 397 1178 357 1140 q 490 1215 438 1215 q 549 1205 521 1215 q 607 1181 576 1194 q 642 1167 624 1174 q 675 1160 661 1160 q 708 1174 694 1160 q 721 1214 722 1188 l 806 1214 q 790 1144 806 1175 q 746 1094 774 1113 q 681 1075 718 1075 z "},"Æ":{"ha":1676,"x_min":72,"x_max":1511,"o":"m 72 0 l 858 972 l 1511 972 l 1511 868 l 931 868 l 931 542 l 1440 542 l 1440 439 l 931 439 l 931 104 l 1508 104 l 1508 0 l 824 0 l 824 240 l 371 240 l 454 343 l 824 343 l 824 832 l 861 818 l 199 0 l 72 0 z "},"Ǽ":{"ha":1676,"x_min":72,"x_max":1511,"o":"m 72 0 l 858 972 l 1511 972 l 1511 868 l 931 868 l 931 542 l 1440 542 l 1440 439 l 931 439 l 931 104 l 1508 104 l 1508 0 l 824 0 l 824 240 l 371 240 l 454 343 l 824 343 l 824 832 l 861 818 l 199 0 l 72 0 m 1024 1051 l 992 1110 l 1224 1256 l 1281 1158 l 1024 1051 z "},"B":{"ha":1176,"x_min":208,"x_max":1046,"o":"m 208 0 l 208 972 l 676 972 q 848 943 776 972 q 957 860 919 914 q 994 728 994 806 q 946 591 994 647 q 806 510 897 535 l 810 536 q 929 491 876 524 q 1014 406 982 458 q 1046 286 1046 354 q 1018 159 1046 213 q 943 70 990 106 q 835 17 896 35 q 704 0 774 0 l 208 0 m 318 106 l 699 106 q 818 126 765 106 q 901 186 871 146 q 932 282 932 226 q 899 376 932 339 q 810 433 865 414 q 692 453 756 453 l 318 453 l 318 106 m 318 558 l 688 558 q 789 578 744 558 q 858 632 833 597 q 882 714 882 667 q 826 827 882 788 q 675 867 769 867 l 318 867 l 318 558 z "},"C":{"ha":1174,"x_min":131,"x_max":1060,"o":"m 665 -14 q 452 22 550 -14 q 282 126 354 58 q 170 285 210 193 q 131 488 131 378 q 171 683 131 593 q 283 840 211 774 q 451 943 356 907 q 660 979 547 979 q 815 958 738 979 q 956 899 892 936 q 1060 815 1019 861 l 990 726 q 897 803 950 771 q 782 854 843 836 q 654 872 721 872 q 494 844 569 872 q 363 765 419 817 q 275 643 307 714 q 243 488 243 572 q 276 326 243 399 q 367 201 308 253 q 503 122 426 150 q 671 93 581 93 q 801 111 742 93 q 910 160 861 129 q 994 225 958 190 l 1047 133 q 950 63 1011 96 q 816 8 889 29 q 665 -14 743 -14 z "},"Ć":{"ha":1174,"x_min":131,"x_max":1060,"o":"m 665 -14 q 452 22 550 -14 q 282 126 354 58 q 170 285 210 193 q 131 488 131 378 q 171 683 131 593 q 283 840 211 774 q 451 943 356 907 q 660 979 547 979 q 815 958 738 979 q 956 899 892 936 q 1060 815 1019 861 l 990 726 q 897 803 950 771 q 782 854 843 836 q 654 872 721 872 q 494 844 569 872 q 363 765 419 817 q 275 643 307 714 q 243 488 243 572 q 276 326 243 399 q 367 201 308 253 q 503 122 426 150 q 671 93 581 93 q 801 111 742 93 q 910 160 861 129 q 994 225 958 190 l 1047 133 q 950 63 1011 96 q 816 8 889 29 q 665 -14 743 -14 m 563 1051 l 531 1110 l 763 1256 l 819 1158 l 563 1051 z "},"Č":{"ha":1174,"x_min":131,"x_max":1060,"o":"m 665 -14 q 452 22 550 -14 q 282 126 354 58 q 170 285 210 193 q 131 488 131 378 q 171 683 131 593 q 283 840 211 774 q 451 943 356 907 q 660 979 547 979 q 815 958 738 979 q 956 899 892 936 q 1060 815 1019 861 l 990 726 q 897 803 950 771 q 782 854 843 836 q 654 872 721 872 q 494 844 569 872 q 363 765 419 817 q 275 643 307 714 q 243 488 243 572 q 276 326 243 399 q 367 201 308 253 q 503 122 426 150 q 671 93 581 93 q 801 111 742 93 q 910 160 861 129 q 994 225 958 190 l 1047 133 q 950 63 1011 96 q 816 8 889 29 q 665 -14 743 -14 m 608 1058 l 450 1192 l 496 1232 l 681 1128 l 639 1128 l 824 1232 l 869 1192 l 711 1058 l 608 1058 z "},"Ç":{"ha":1174,"x_min":131,"x_max":1060,"o":"m 665 -14 q 452 22 550 -14 q 282 126 354 58 q 170 285 210 193 q 131 488 131 378 q 171 683 131 593 q 283 840 211 774 q 451 943 356 907 q 660 979 547 979 q 815 958 738 979 q 956 899 892 936 q 1060 815 1019 861 l 990 726 q 897 803 950 771 q 782 854 843 836 q 654 872 721 872 q 494 844 569 872 q 363 765 419 817 q 275 643 307 714 q 243 488 243 572 q 276 326 243 399 q 367 201 308 253 q 503 122 426 150 q 671 93 581 93 q 801 111 742 93 q 910 160 861 129 q 994 225 958 190 l 1047 133 q 950 63 1011 96 q 816 8 889 29 q 665 -14 743 -14 m 526 -329 l 515 -271 q 596 -261 558 -269 q 657 -236 633 -253 q 681 -197 681 -219 q 660 -162 681 -176 q 608 -142 639 -149 q 549 -136 576 -136 l 533 -114 l 624 21 l 694 21 l 633 -74 q 730 -112 692 -85 q 768 -190 768 -140 q 746 -255 768 -228 q 687 -299 724 -282 q 608 -323 650 -315 q 526 -329 565 -331 z "},"Ḉ":{"ha":1174,"x_min":131,"x_max":1060,"o":"m 665 -14 q 452 22 550 -14 q 282 126 354 58 q 170 285 210 193 q 131 488 131 378 q 171 683 131 593 q 283 840 211 774 q 451 943 356 907 q 660 979 547 979 q 815 958 738 979 q 956 899 892 936 q 1060 815 1019 861 l 990 726 q 897 803 950 771 q 782 854 843 836 q 654 872 721 872 q 494 844 569 872 q 363 765 419 817 q 275 643 307 714 q 243 488 243 572 q 276 326 243 399 q 367 201 308 253 q 503 122 426 150 q 671 93 581 93 q 801 111 742 93 q 910 160 861 129 q 994 225 958 190 l 1047 133 q 950 63 1011 96 q 816 8 889 29 q 665 -14 743 -14 m 526 -329 l 515 -271 q 596 -261 558 -269 q 657 -236 633 -253 q 681 -197 681 -219 q 660 -162 681 -176 q 608 -142 639 -149 q 549 -136 576 -136 l 533 -114 l 624 21 l 694 21 l 633 -74 q 730 -112 692 -85 q 768 -190 768 -140 q 746 -255 768 -228 q 687 -299 724 -282 q 608 -323 650 -315 q 526 -329 565 -331 m 563 1051 l 531 1110 l 763 1256 l 819 1158 l 563 1051 z "},"Ĉ":{"ha":1174,"x_min":131,"x_max":1060,"o":"m 665 -14 q 452 22 550 -14 q 282 126 354 58 q 170 285 210 193 q 131 488 131 378 q 171 683 131 593 q 283 840 211 774 q 451 943 356 907 q 660 979 547 979 q 815 958 738 979 q 956 899 892 936 q 1060 815 1019 861 l 990 726 q 897 803 950 771 q 782 854 843 836 q 654 872 721 872 q 494 844 569 872 q 363 765 419 817 q 275 643 307 714 q 243 488 243 572 q 276 326 243 399 q 367 201 308 253 q 503 122 426 150 q 671 93 581 93 q 801 111 742 93 q 910 160 861 129 q 994 225 958 190 l 1047 133 q 950 63 1011 96 q 816 8 889 29 q 665 -14 743 -14 m 489 1056 l 443 1097 l 613 1231 l 706 1231 l 874 1097 l 829 1056 l 638 1161 l 679 1161 l 489 1056 z "},"Ċ":{"ha":1174,"x_min":131,"x_max":1060,"o":"m 665 -14 q 452 22 550 -14 q 282 126 354 58 q 170 285 210 193 q 131 488 131 378 q 171 683 131 593 q 283 840 211 774 q 451 943 356 907 q 660 979 547 979 q 815 958 738 979 q 956 899 892 936 q 1060 815 1019 861 l 990 726 q 897 803 950 771 q 782 854 843 836 q 654 872 721 872 q 494 844 569 872 q 363 765 419 817 q 275 643 307 714 q 243 488 243 572 q 276 326 243 399 q 367 201 308 253 q 503 122 426 150 q 671 93 581 93 q 801 111 742 93 q 910 160 861 129 q 994 225 958 190 l 1047 133 q 950 63 1011 96 q 816 8 889 29 q 665 -14 743 -14 m 660 1068 q 601 1089 621 1068 q 581 1144 581 1110 q 601 1198 581 1175 q 660 1221 621 1221 q 719 1200 699 1221 q 739 1144 739 1179 q 719 1091 739 1114 q 660 1068 699 1068 z "},"D":{"ha":1272,"x_min":208,"x_max":1142,"o":"m 208 0 l 208 972 l 638 972 q 847 935 754 972 q 1005 833 939 899 q 1106 679 1071 768 q 1142 486 1142 590 q 1106 292 1142 382 q 1006 138 1071 203 q 847 37 940 74 q 638 0 754 0 l 208 0 m 317 86 l 304 106 l 631 106 q 798 133 724 106 q 923 213 872 161 q 1001 333 974 264 q 1028 486 1028 403 q 1001 637 1028 568 q 922 758 974 706 q 797 838 871 810 q 631 867 724 867 l 300 867 l 317 883 l 317 86 z "},"Ǳ":{"ha":2285,"x_min":208,"x_max":2175,"o":"m 208 0 l 208 972 l 638 972 q 847 935 754 972 q 1005 833 939 899 q 1106 679 1071 768 q 1142 486 1142 590 q 1106 292 1142 382 q 1006 138 1071 203 q 847 37 940 74 q 638 0 754 0 l 208 0 m 317 86 l 304 106 l 631 106 q 798 133 724 106 q 923 213 872 161 q 1001 333 974 264 q 1028 486 1028 403 q 1001 637 1028 568 q 922 758 974 706 q 797 838 871 810 q 631 867 724 867 l 300 867 l 317 883 l 317 86 m 1324 0 l 1324 83 l 2022 896 l 2051 865 l 1360 865 l 1360 972 l 2160 972 l 2160 890 l 1463 76 l 1432 107 l 2175 107 l 2175 0 l 1324 0 z "},"Ǆ":{"ha":2285,"x_min":208,"x_max":2175,"o":"m 208 0 l 208 972 l 638 972 q 847 935 754 972 q 1005 833 939 899 q 1106 679 1071 768 q 1142 486 1142 590 q 1106 292 1142 382 q 1006 138 1071 203 q 847 37 940 74 q 638 0 754 0 l 208 0 m 317 86 l 304 106 l 631 106 q 798 133 724 106 q 923 213 872 161 q 1001 333 974 264 q 1028 486 1028 403 q 1001 637 1028 568 q 922 758 974 706 q 797 838 871 810 q 631 867 724 867 l 300 867 l 317 883 l 317 86 m 1324 0 l 1324 83 l 2022 896 l 2051 865 l 1360 865 l 1360 972 l 2160 972 l 2160 890 l 1463 76 l 1432 107 l 2175 107 l 2175 0 l 1324 0 m 1696 1058 l 1538 1192 l 1583 1232 l 1768 1128 l 1726 1128 l 1911 1232 l 1957 1192 l 1799 1058 l 1696 1058 z "},"Ð":{"ha":1272,"x_min":108,"x_max":1142,"o":"m 108 440 l 108 531 l 589 531 l 589 440 l 108 440 m 208 0 l 208 972 l 638 972 q 847 935 754 972 q 1005 833 939 899 q 1106 679 1071 768 q 1142 486 1142 590 q 1106 292 1142 382 q 1006 138 1071 203 q 847 37 940 74 q 638 0 754 0 l 208 0 m 317 86 l 304 106 l 631 106 q 798 133 724 106 q 923 213 872 161 q 1001 333 974 264 q 1028 486 1028 403 q 1001 637 1028 568 q 922 758 974 706 q 797 838 871 810 q 631 867 724 867 l 300 867 l 317 883 l 317 86 z "},"Ď":{"ha":1272,"x_min":208,"x_max":1142,"o":"m 208 0 l 208 972 l 638 972 q 847 935 754 972 q 1005 833 939 899 q 1106 679 1071 768 q 1142 486 1142 590 q 1106 292 1142 382 q 1006 138 1071 203 q 847 37 940 74 q 638 0 754 0 l 208 0 m 317 86 l 304 106 l 631 106 q 798 133 724 106 q 923 213 872 161 q 1001 333 974 264 q 1028 486 1028 403 q 1001 637 1028 568 q 922 758 974 706 q 797 838 871 810 q 631 867 724 867 l 300 867 l 317 883 l 317 86 m 588 1058 l 429 1192 l 475 1232 l 660 1128 l 618 1128 l 803 1232 l 849 1192 l 690 1058 l 588 1058 z "},"Đ":{"ha":1272,"x_min":108,"x_max":1142,"o":"m 108 440 l 108 531 l 589 531 l 589 440 l 108 440 m 208 0 l 208 972 l 638 972 q 847 935 754 972 q 1005 833 939 899 q 1106 679 1071 768 q 1142 486 1142 590 q 1106 292 1142 382 q 1006 138 1071 203 q 847 37 940 74 q 638 0 754 0 l 208 0 m 317 86 l 304 106 l 631 106 q 798 133 724 106 q 923 213 872 161 q 1001 333 974 264 q 1028 486 1028 403 q 1001 637 1028 568 q 922 758 974 706 q 797 838 871 810 q 631 867 724 867 l 300 867 l 317 883 l 317 86 z "},"Ḍ":{"ha":1272,"x_min":208,"x_max":1142,"o":"m 208 0 l 208 972 l 638 972 q 847 935 754 972 q 1005 833 939 899 q 1106 679 1071 768 q 1142 486 1142 590 q 1106 292 1142 382 q 1006 138 1071 203 q 847 37 940 74 q 638 0 754 0 l 208 0 m 317 86 l 304 106 l 631 106 q 798 133 724 106 q 923 213 872 161 q 1001 333 974 264 q 1028 486 1028 403 q 1001 637 1028 568 q 922 758 974 706 q 797 838 871 810 q 631 867 724 867 l 300 867 l 317 883 l 317 86 m 639 -257 q 580 -236 600 -257 q 560 -182 560 -215 q 579 -128 560 -150 q 639 -106 599 -106 q 698 -126 678 -106 q 718 -182 718 -147 q 699 -235 718 -212 q 639 -257 679 -257 z "},"Ḏ":{"ha":1272,"x_min":208,"x_max":1142,"o":"m 208 0 l 208 972 l 638 972 q 847 935 754 972 q 1005 833 939 899 q 1106 679 1071 768 q 1142 486 1142 590 q 1106 292 1142 382 q 1006 138 1071 203 q 847 37 940 74 q 638 0 754 0 l 208 0 m 317 86 l 304 106 l 631 106 q 798 133 724 106 q 923 213 872 161 q 1001 333 974 264 q 1028 486 1028 403 q 1001 637 1028 568 q 922 758 974 706 q 797 838 871 810 q 631 867 724 867 l 300 867 l 317 883 l 317 86 m 446 -224 l 446 -139 l 831 -139 l 831 -224 l 446 -224 z "},"ǲ":{"ha":2106,"x_min":208,"x_max":2006,"o":"m 208 0 l 208 972 l 638 972 q 847 935 754 972 q 1005 833 939 899 q 1106 679 1071 768 q 1142 486 1142 590 q 1106 292 1142 382 q 1006 138 1071 203 q 847 37 940 74 q 638 0 754 0 l 208 0 m 317 86 l 304 106 l 631 106 q 798 133 724 106 q 923 213 872 161 q 1001 333 974 264 q 1028 486 1028 403 q 1001 637 1028 568 q 922 758 974 706 q 797 838 871 810 q 631 867 724 867 l 300 867 l 317 883 l 317 86 m 1371 0 l 1371 90 l 1875 651 l 1897 633 l 1371 633 l 1371 725 l 1989 725 l 1989 636 l 1485 75 l 1464 92 l 2004 92 l 2004 0 l 1371 0 z "},"ǅ":{"ha":2106,"x_min":208,"x_max":2006,"o":"m 208 0 l 208 972 l 638 972 q 847 935 754 972 q 1005 833 939 899 q 1106 679 1071 768 q 1142 486 1142 590 q 1106 292 1142 382 q 1006 138 1071 203 q 847 37 940 74 q 638 0 754 0 l 208 0 m 317 86 l 304 106 l 631 106 q 798 133 724 106 q 923 213 872 161 q 1001 333 974 264 q 1028 486 1028 403 q 1001 637 1028 568 q 922 758 974 706 q 797 838 871 810 q 631 867 724 867 l 300 867 l 317 883 l 317 86 m 1371 0 l 1371 90 l 1875 651 l 1897 633 l 1371 633 l 1371 725 l 1989 725 l 1989 636 l 1485 75 l 1464 92 l 2004 92 l 2004 0 l 1371 0 m 1636 838 l 1488 986 l 1533 1026 l 1708 908 l 1667 908 l 1842 1026 l 1888 986 l 1739 838 l 1636 838 z "},"E":{"ha":1072,"x_min":208,"x_max":906,"o":"m 208 0 l 208 972 l 906 972 l 906 867 l 317 867 l 317 106 l 903 106 l 903 0 l 208 0 m 264 447 l 264 553 l 828 553 l 828 447 l 264 447 z "},"É":{"ha":1072,"x_min":208,"x_max":906,"o":"m 208 0 l 208 972 l 906 972 l 906 867 l 317 867 l 317 106 l 903 106 l 903 0 l 208 0 m 264 447 l 264 553 l 828 553 l 828 447 l 264 447 m 475 1051 l 443 1110 l 675 1256 l 732 1158 l 475 1051 z "},"Ĕ":{"ha":1072,"x_min":208,"x_max":906,"o":"m 208 0 l 208 972 l 906 972 l 906 867 l 317 867 l 317 106 l 903 106 l 903 0 l 208 0 m 264 447 l 264 553 l 828 553 l 828 447 l 264 447 m 571 1050 q 474 1074 518 1050 q 401 1137 431 1097 q 360 1228 372 1176 l 440 1239 q 490 1160 456 1188 q 571 1133 525 1133 q 651 1160 617 1133 q 701 1239 686 1188 l 782 1228 q 741 1137 771 1176 q 668 1074 711 1097 q 571 1050 625 1050 z "},"Ě":{"ha":1072,"x_min":208,"x_max":906,"o":"m 208 0 l 208 972 l 906 972 l 906 867 l 317 867 l 317 106 l 903 106 l 903 0 l 208 0 m 264 447 l 264 553 l 828 553 l 828 447 l 264 447 m 519 1058 l 361 1192 l 407 1232 l 592 1128 l 550 1128 l 735 1232 l 781 1192 l 622 1058 l 519 1058 z "},"Ḝ":{"ha":1072,"x_min":208,"x_max":906,"o":"m 208 0 l 208 972 l 906 972 l 906 867 l 317 867 l 317 106 l 903 106 l 903 0 l 208 0 m 264 447 l 264 553 l 828 553 l 828 447 l 264 447 m 415 -329 l 404 -271 q 485 -261 447 -269 q 546 -236 522 -253 q 569 -197 569 -219 q 549 -162 569 -176 q 497 -142 528 -149 q 438 -136 465 -136 l 422 -114 l 513 21 l 583 21 l 522 -74 q 619 -112 581 -85 q 657 -190 657 -140 q 635 -255 657 -228 q 576 -299 613 -282 q 497 -323 539 -315 q 415 -329 454 -331 m 571 1050 q 474 1074 518 1050 q 401 1137 431 1097 q 360 1228 372 1176 l 440 1239 q 490 1160 456 1188 q 571 1133 525 1133 q 651 1160 617 1133 q 701 1239 686 1188 l 782 1228 q 741 1137 771 1176 q 668 1074 711 1097 q 571 1050 625 1050 z "},"Ê":{"ha":1072,"x_min":208,"x_max":906,"o":"m 208 0 l 208 972 l 906 972 l 906 867 l 317 867 l 317 106 l 903 106 l 903 0 l 208 0 m 264 447 l 264 553 l 828 553 l 828 447 l 264 447 m 400 1056 l 354 1097 l 524 1231 l 617 1231 l 785 1097 l 740 1056 l 549 1161 l 590 1161 l 400 1056 z "},"Ế":{"ha":1072,"x_min":208,"x_max":931,"o":"m 208 0 l 208 972 l 906 972 l 906 867 l 317 867 l 317 106 l 903 106 l 903 0 l 208 0 m 264 447 l 264 553 l 828 553 l 828 447 l 264 447 m 400 1056 l 358 1097 l 524 1229 l 618 1229 l 783 1097 l 742 1056 l 550 1160 l 592 1160 l 400 1056 m 779 1206 l 722 1243 l 832 1433 l 931 1365 l 779 1206 z "},"Ệ":{"ha":1072,"x_min":208,"x_max":906,"o":"m 208 0 l 208 972 l 906 972 l 906 867 l 317 867 l 317 106 l 903 106 l 903 0 l 208 0 m 264 447 l 264 553 l 828 553 l 828 447 l 264 447 m 536 -257 q 477 -236 497 -257 q 457 -182 457 -215 q 476 -128 457 -150 q 536 -106 496 -106 q 595 -126 575 -106 q 615 -182 615 -147 q 596 -235 615 -212 q 536 -257 576 -257 m 400 1056 l 354 1097 l 524 1231 l 617 1231 l 785 1097 l 740 1056 l 549 1161 l 590 1161 l 400 1056 z "},"Ề":{"ha":1072,"x_min":208,"x_max":906,"o":"m 208 0 l 208 972 l 906 972 l 906 867 l 317 867 l 317 106 l 903 106 l 903 0 l 208 0 m 264 447 l 264 553 l 828 553 l 828 447 l 264 447 m 400 1056 l 358 1097 l 524 1236 l 618 1236 l 783 1097 l 742 1056 l 550 1167 l 592 1167 l 400 1056 m 796 1206 l 642 1367 l 739 1435 l 850 1246 l 796 1206 z "},"Ể":{"ha":1072,"x_min":208,"x_max":914,"o":"m 208 0 l 208 972 l 906 972 l 906 867 l 317 867 l 317 106 l 903 106 l 903 0 l 208 0 m 264 447 l 264 553 l 828 553 l 828 447 l 264 447 m 400 1056 l 357 1097 l 524 1229 l 617 1229 l 782 1097 l 740 1056 l 550 1160 l 590 1160 l 400 1056 m 760 1214 q 749 1233 754 1222 q 744 1253 744 1243 q 753 1275 744 1264 q 786 1303 761 1286 q 817 1325 807 1315 q 826 1342 826 1335 q 811 1363 826 1356 q 775 1369 796 1369 q 728 1363 753 1369 q 679 1346 703 1357 l 658 1415 q 719 1438 688 1431 q 781 1446 751 1446 q 880 1418 847 1446 q 913 1353 913 1390 q 897 1309 913 1326 q 861 1279 882 1292 q 830 1257 842 1267 q 818 1240 818 1247 q 819 1235 818 1238 q 821 1229 819 1232 l 760 1214 z "},"Ễ":{"ha":1072,"x_min":208,"x_max":906,"o":"m 208 0 l 208 972 l 906 972 l 906 867 l 317 867 l 317 106 l 903 106 l 903 0 l 208 0 m 264 447 l 264 553 l 828 553 l 828 447 l 264 447 m 400 1056 l 357 1097 l 524 1229 l 617 1229 l 782 1097 l 740 1056 l 549 1160 l 590 1160 l 400 1056 m 672 1311 q 613 1322 640 1311 q 563 1342 586 1332 q 520 1360 540 1353 q 483 1368 500 1368 q 453 1356 467 1368 q 436 1317 439 1343 l 357 1324 q 394 1413 358 1376 q 478 1450 429 1450 q 530 1440 507 1450 q 578 1419 553 1431 q 619 1402 597 1411 q 658 1393 640 1393 q 690 1406 678 1393 q 704 1446 701 1419 l 783 1439 q 768 1372 782 1400 q 730 1327 754 1343 q 672 1311 706 1311 z "},"Ȅ":{"ha":1072,"x_min":208,"x_max":906,"o":"m 208 0 l 208 972 l 906 972 l 906 867 l 317 867 l 317 106 l 903 106 l 903 0 l 208 0 m 264 447 l 264 553 l 828 553 l 828 447 l 264 447 m 701 1040 l 481 1186 l 556 1272 l 744 1097 l 701 1040 m 457 1040 l 236 1186 l 313 1272 l 500 1097 l 457 1040 z "},"Ë":{"ha":1072,"x_min":208,"x_max":906,"o":"m 208 0 l 208 972 l 906 972 l 906 867 l 317 867 l 317 106 l 903 106 l 903 0 l 208 0 m 264 447 l 264 553 l 828 553 l 828 447 l 264 447 m 711 1068 q 652 1089 672 1068 q 632 1144 632 1110 q 652 1198 632 1175 q 711 1221 672 1221 q 772 1200 751 1221 q 792 1144 792 1179 q 772 1091 792 1114 q 711 1068 751 1068 m 431 1068 q 370 1089 390 1068 q 350 1144 350 1110 q 370 1198 350 1175 q 431 1221 390 1221 q 490 1200 469 1221 q 510 1144 510 1179 q 490 1091 510 1114 q 431 1068 469 1068 z "},"Ė":{"ha":1072,"x_min":208,"x_max":906,"o":"m 208 0 l 208 972 l 906 972 l 906 867 l 317 867 l 317 106 l 903 106 l 903 0 l 208 0 m 264 447 l 264 553 l 828 553 l 828 447 l 264 447 m 571 1068 q 512 1089 532 1068 q 492 1144 492 1110 q 512 1198 492 1175 q 571 1221 532 1221 q 630 1200 610 1221 q 650 1144 650 1179 q 630 1091 650 1114 q 571 1068 610 1068 z "},"Ẹ":{"ha":1072,"x_min":208,"x_max":906,"o":"m 208 0 l 208 972 l 906 972 l 906 867 l 317 867 l 317 106 l 903 106 l 903 0 l 208 0 m 264 447 l 264 553 l 828 553 l 828 447 l 264 447 m 536 -257 q 477 -236 497 -257 q 457 -182 457 -215 q 476 -128 457 -150 q 536 -106 496 -106 q 595 -126 575 -106 q 615 -182 615 -147 q 596 -235 615 -212 q 536 -257 576 -257 z "},"È":{"ha":1072,"x_min":208,"x_max":906,"o":"m 208 0 l 208 972 l 906 972 l 906 867 l 317 867 l 317 106 l 903 106 l 903 0 l 208 0 m 264 447 l 264 553 l 828 553 l 828 447 l 264 447 m 672 1051 l 417 1158 l 474 1256 l 706 1110 l 672 1051 z "},"Ẻ":{"ha":1072,"x_min":208,"x_max":906,"o":"m 208 0 l 208 972 l 906 972 l 906 867 l 317 867 l 317 106 l 903 106 l 903 0 l 208 0 m 264 447 l 264 553 l 828 553 l 828 447 l 264 447 m 547 1060 q 536 1083 540 1071 q 532 1104 532 1094 q 539 1129 532 1115 q 568 1158 546 1143 q 602 1183 590 1174 q 614 1204 614 1193 q 598 1226 614 1219 q 558 1233 582 1233 q 511 1227 538 1233 q 460 1210 485 1221 l 439 1279 q 503 1302 469 1294 q 565 1310 538 1310 q 667 1281 633 1310 q 700 1213 700 1251 q 683 1163 700 1181 q 647 1133 667 1144 q 617 1114 628 1122 q 606 1090 606 1106 q 606 1084 606 1088 q 608 1075 607 1081 l 547 1060 z "},"Ȇ":{"ha":1072,"x_min":208,"x_max":906,"o":"m 208 0 l 208 972 l 906 972 l 906 867 l 317 867 l 317 106 l 903 106 l 903 0 l 208 0 m 264 447 l 264 553 l 828 553 l 828 447 l 264 447 m 440 1050 l 360 1063 q 401 1153 372 1114 q 474 1216 431 1193 q 571 1239 518 1239 q 668 1216 625 1239 q 741 1153 711 1193 q 782 1063 771 1114 l 701 1050 q 651 1128 686 1101 q 571 1156 617 1156 q 490 1128 525 1156 q 440 1050 456 1101 z "},"Ē":{"ha":1072,"x_min":208,"x_max":906,"o":"m 208 0 l 208 972 l 906 972 l 906 867 l 317 867 l 317 106 l 903 106 l 903 0 l 208 0 m 264 447 l 264 553 l 828 553 l 828 447 l 264 447 m 357 1103 l 357 1186 l 783 1186 l 783 1103 l 357 1103 z "},"Ḗ":{"ha":1072,"x_min":208,"x_max":906,"o":"m 208 0 l 208 972 l 906 972 l 906 867 l 317 867 l 317 106 l 903 106 l 903 0 l 208 0 m 264 447 l 264 553 l 828 553 l 828 447 l 264 447 m 357 1103 l 357 1186 l 783 1186 l 783 1103 l 357 1103 m 475 1249 l 443 1307 l 675 1453 l 732 1356 l 475 1249 z "},"Ḕ":{"ha":1072,"x_min":208,"x_max":906,"o":"m 208 0 l 208 972 l 906 972 l 906 867 l 317 867 l 317 106 l 903 106 l 903 0 l 208 0 m 264 447 l 264 553 l 828 553 l 828 447 l 264 447 m 357 1103 l 357 1186 l 783 1186 l 783 1103 l 357 1103 m 672 1249 l 417 1356 l 474 1453 l 706 1307 l 672 1249 z "},"Ę":{"ha":1072,"x_min":208,"x_max":906,"o":"m 208 0 l 208 972 l 906 972 l 906 867 l 317 867 l 317 106 l 903 106 l 903 0 l 208 0 m 264 447 l 264 553 l 828 553 l 828 447 l 264 447 m 750 -293 q 672 -274 707 -293 q 615 -224 636 -256 q 594 -153 594 -192 q 613 -83 594 -114 q 662 -26 631 -51 q 730 17 693 -1 q 804 50 767 36 l 849 0 q 768 -38 804 -15 q 711 -87 732 -61 q 690 -144 690 -112 q 710 -191 690 -172 q 763 -210 731 -210 q 806 -198 788 -210 q 836 -171 824 -186 l 899 -215 q 841 -269 879 -246 q 750 -293 803 -293 z "},"Ẽ":{"ha":1072,"x_min":208,"x_max":906,"o":"m 208 0 l 208 972 l 906 972 l 906 867 l 317 867 l 317 106 l 903 106 l 903 0 l 208 0 m 264 447 l 264 553 l 828 553 l 828 447 l 264 447 m 669 1075 q 608 1086 639 1075 q 546 1110 578 1097 q 510 1125 526 1118 q 478 1132 493 1132 q 444 1117 458 1132 q 431 1075 431 1103 l 346 1075 q 386 1178 346 1140 q 479 1215 426 1215 q 538 1205 510 1215 q 596 1181 565 1194 q 631 1167 613 1174 q 664 1160 650 1160 q 697 1174 683 1160 q 710 1214 711 1188 l 794 1214 q 778 1144 794 1175 q 735 1094 763 1113 q 669 1075 707 1075 z "},"F":{"ha":1053,"x_min":208,"x_max":913,"o":"m 208 0 l 208 972 l 317 972 l 317 0 l 208 0 m 256 425 l 256 532 l 847 532 l 847 425 l 256 425 m 264 867 l 264 972 l 913 972 l 913 867 l 264 867 z "},"G":{"ha":1307,"x_min":131,"x_max":1192,"o":"m 683 -14 q 468 22 569 -14 q 292 122 367 57 q 174 280 217 188 q 131 485 131 372 q 173 681 131 590 q 290 838 215 771 q 467 942 365 906 q 686 979 568 979 q 853 958 772 979 q 997 901 933 936 q 1099 819 1061 865 l 1031 742 q 932 810 988 781 q 813 856 876 839 q 688 874 750 874 q 513 844 593 874 q 372 763 432 815 q 278 640 311 711 q 246 485 246 569 q 280 322 246 394 q 376 199 314 250 q 518 120 438 147 q 690 93 599 93 q 841 113 771 93 q 964 171 911 133 q 1047 256 1017 208 q 1076 357 1076 303 l 1075 399 l 1100 365 l 689 365 l 689 471 l 1185 471 q 1188 446 1188 460 q 1190 419 1189 432 q 1192 399 1192 407 q 1153 232 1192 308 q 1046 101 1115 156 q 885 17 976 47 q 683 -14 793 -14 z "},"Ğ":{"ha":1307,"x_min":131,"x_max":1192,"o":"m 683 -14 q 468 22 569 -14 q 292 122 367 57 q 174 280 217 188 q 131 485 131 372 q 173 681 131 590 q 290 838 215 771 q 467 942 365 906 q 686 979 568 979 q 853 958 772 979 q 997 901 933 936 q 1099 819 1061 865 l 1031 742 q 932 810 988 781 q 813 856 876 839 q 688 874 750 874 q 513 844 593 874 q 372 763 432 815 q 278 640 311 711 q 246 485 246 569 q 280 322 246 394 q 376 199 314 250 q 518 120 438 147 q 690 93 599 93 q 841 113 771 93 q 964 171 911 133 q 1047 256 1017 208 q 1076 357 1076 303 l 1075 399 l 1100 365 l 689 365 l 689 471 l 1185 471 q 1188 446 1188 460 q 1190 419 1189 432 q 1192 399 1192 407 q 1153 232 1192 308 q 1046 101 1115 156 q 885 17 976 47 q 683 -14 793 -14 m 682 1050 q 585 1074 629 1050 q 513 1137 542 1097 q 471 1228 483 1176 l 551 1239 q 601 1160 567 1188 q 682 1133 636 1133 q 763 1160 728 1133 q 813 1239 797 1188 l 893 1228 q 852 1137 882 1176 q 779 1074 822 1097 q 682 1050 736 1050 z "},"Ǧ":{"ha":1307,"x_min":131,"x_max":1192,"o":"m 683 -14 q 468 22 569 -14 q 292 122 367 57 q 174 280 217 188 q 131 485 131 372 q 173 681 131 590 q 290 838 215 771 q 467 942 365 906 q 686 979 568 979 q 853 958 772 979 q 997 901 933 936 q 1099 819 1061 865 l 1031 742 q 932 810 988 781 q 813 856 876 839 q 688 874 750 874 q 513 844 593 874 q 372 763 432 815 q 278 640 311 711 q 246 485 246 569 q 280 322 246 394 q 376 199 314 250 q 518 120 438 147 q 690 93 599 93 q 841 113 771 93 q 964 171 911 133 q 1047 256 1017 208 q 1076 357 1076 303 l 1075 399 l 1100 365 l 689 365 l 689 471 l 1185 471 q 1188 446 1188 460 q 1190 419 1189 432 q 1192 399 1192 407 q 1153 232 1192 308 q 1046 101 1115 156 q 885 17 976 47 q 683 -14 793 -14 m 631 1058 l 472 1192 l 518 1232 l 703 1128 l 661 1128 l 846 1232 l 892 1192 l 733 1058 l 631 1058 z "},"Ĝ":{"ha":1307,"x_min":131,"x_max":1192,"o":"m 683 -14 q 468 22 569 -14 q 292 122 367 57 q 174 280 217 188 q 131 485 131 372 q 173 681 131 590 q 290 838 215 771 q 467 942 365 906 q 686 979 568 979 q 853 958 772 979 q 997 901 933 936 q 1099 819 1061 865 l 1031 742 q 932 810 988 781 q 813 856 876 839 q 688 874 750 874 q 513 844 593 874 q 372 763 432 815 q 278 640 311 711 q 246 485 246 569 q 280 322 246 394 q 376 199 314 250 q 518 120 438 147 q 690 93 599 93 q 841 113 771 93 q 964 171 911 133 q 1047 256 1017 208 q 1076 357 1076 303 l 1075 399 l 1100 365 l 689 365 l 689 471 l 1185 471 q 1188 446 1188 460 q 1190 419 1189 432 q 1192 399 1192 407 q 1153 232 1192 308 q 1046 101 1115 156 q 885 17 976 47 q 683 -14 793 -14 m 513 1056 l 467 1097 l 636 1231 l 729 1231 l 897 1097 l 853 1056 l 661 1161 l 703 1161 l 513 1056 z "},"Ģ":{"ha":1307,"x_min":131,"x_max":1192,"o":"m 683 -14 q 468 22 569 -14 q 292 122 367 57 q 174 280 217 188 q 131 485 131 372 q 173 681 131 590 q 290 838 215 771 q 467 942 365 906 q 686 979 568 979 q 853 958 772 979 q 997 901 933 936 q 1099 819 1061 865 l 1031 742 q 932 810 988 781 q 813 856 876 839 q 688 874 750 874 q 513 844 593 874 q 372 763 432 815 q 278 640 311 711 q 246 485 246 569 q 280 322 246 394 q 376 199 314 250 q 518 120 438 147 q 690 93 599 93 q 841 113 771 93 q 964 171 911 133 q 1047 256 1017 208 q 1076 357 1076 303 l 1075 399 l 1100 365 l 689 365 l 689 471 l 1185 471 q 1188 446 1188 460 q 1190 419 1189 432 q 1192 399 1192 407 q 1153 232 1192 308 q 1046 101 1115 156 q 885 17 976 47 q 683 -14 793 -14 m 601 -328 l 571 -282 q 607 -262 592 -274 q 631 -237 622 -250 q 640 -212 640 -225 q 632 -193 640 -199 q 611 -183 624 -187 q 587 -167 597 -179 q 576 -135 576 -156 q 597 -94 576 -110 q 646 -78 617 -78 q 713 -103 685 -78 q 740 -174 740 -128 q 728 -225 740 -201 q 697 -267 717 -249 q 652 -300 676 -285 q 601 -328 628 -315 z "},"Ġ":{"ha":1307,"x_min":131,"x_max":1192,"o":"m 683 -14 q 468 22 569 -14 q 292 122 367 57 q 174 280 217 188 q 131 485 131 372 q 173 681 131 590 q 290 838 215 771 q 467 942 365 906 q 686 979 568 979 q 853 958 772 979 q 997 901 933 936 q 1099 819 1061 865 l 1031 742 q 932 810 988 781 q 813 856 876 839 q 688 874 750 874 q 513 844 593 874 q 372 763 432 815 q 278 640 311 711 q 246 485 246 569 q 280 322 246 394 q 376 199 314 250 q 518 120 438 147 q 690 93 599 93 q 841 113 771 93 q 964 171 911 133 q 1047 256 1017 208 q 1076 357 1076 303 l 1075 399 l 1100 365 l 689 365 l 689 471 l 1185 471 q 1188 446 1188 460 q 1190 419 1189 432 q 1192 399 1192 407 q 1153 232 1192 308 q 1046 101 1115 156 q 885 17 976 47 q 683 -14 793 -14 m 682 1068 q 623 1089 643 1068 q 603 1144 603 1110 q 623 1198 603 1175 q 682 1221 643 1221 q 741 1200 721 1221 q 761 1144 761 1179 q 741 1091 761 1114 q 682 1068 721 1068 z "},"Ḡ":{"ha":1307,"x_min":131,"x_max":1192,"o":"m 683 -14 q 468 22 569 -14 q 292 122 367 57 q 174 280 217 188 q 131 485 131 372 q 173 681 131 590 q 290 838 215 771 q 467 942 365 906 q 686 979 568 979 q 853 958 772 979 q 997 901 933 936 q 1099 819 1061 865 l 1031 742 q 932 810 988 781 q 813 856 876 839 q 688 874 750 874 q 513 844 593 874 q 372 763 432 815 q 278 640 311 711 q 246 485 246 569 q 280 322 246 394 q 376 199 314 250 q 518 120 438 147 q 690 93 599 93 q 841 113 771 93 q 964 171 911 133 q 1047 256 1017 208 q 1076 357 1076 303 l 1075 399 l 1100 365 l 689 365 l 689 471 l 1185 471 q 1188 446 1188 460 q 1190 419 1189 432 q 1192 399 1192 407 q 1153 232 1192 308 q 1046 101 1115 156 q 885 17 976 47 q 683 -14 793 -14 m 469 1103 l 469 1186 l 896 1186 l 896 1103 l 469 1103 z "},"H":{"ha":1283,"x_min":208,"x_max":1075,"o":"m 967 0 l 967 972 l 1075 972 l 1075 0 l 967 0 m 208 0 l 208 972 l 317 972 l 317 0 l 208 0 m 261 429 l 263 535 l 1013 535 l 1013 429 l 261 429 z "},"Ħ":{"ha":1404,"x_min":103,"x_max":1301,"o":"m 103 699 l 103 801 l 283 801 l 335 794 l 1071 794 l 1108 801 l 1301 801 l 1301 699 l 1111 699 l 1078 706 l 331 706 l 282 699 l 103 699 m 1026 0 l 1026 972 l 1135 972 l 1135 0 l 1026 0 m 268 0 l 268 972 l 376 972 l 376 0 l 268 0 m 321 429 l 321 535 l 1072 535 l 1072 429 l 321 429 z "},"Ḫ":{"ha":1283,"x_min":208,"x_max":1075,"o":"m 967 0 l 967 972 l 1075 972 l 1075 0 l 967 0 m 208 0 l 208 972 l 317 972 l 317 0 l 208 0 m 261 429 l 263 535 l 1013 535 l 1013 429 l 261 429 m 642 -300 q 504 -247 561 -300 q 431 -103 447 -193 l 511 -90 q 561 -181 526 -144 q 642 -217 596 -217 q 722 -181 688 -217 q 772 -90 757 -144 l 853 -103 q 779 -247 836 -193 q 642 -300 722 -300 z "},"Ĥ":{"ha":1283,"x_min":208,"x_max":1075,"o":"m 967 0 l 967 972 l 1075 972 l 1075 0 l 967 0 m 208 0 l 208 972 l 317 972 l 317 0 l 208 0 m 261 429 l 263 535 l 1013 535 l 1013 429 l 261 429 m 472 1056 l 426 1097 l 596 1231 l 689 1231 l 857 1097 l 813 1056 l 621 1161 l 663 1161 l 472 1056 z "},"Ḥ":{"ha":1283,"x_min":208,"x_max":1075,"o":"m 967 0 l 967 972 l 1075 972 l 1075 0 l 967 0 m 208 0 l 208 972 l 317 972 l 317 0 l 208 0 m 261 429 l 263 535 l 1013 535 l 1013 429 l 261 429 m 642 -257 q 583 -236 603 -257 q 563 -182 563 -215 q 582 -128 563 -150 q 642 -106 601 -106 q 701 -126 681 -106 q 721 -182 721 -147 q 701 -235 721 -212 q 642 -257 682 -257 z "},"I":{"ha":910,"x_min":189,"x_max":719,"o":"m 189 0 l 189 107 l 400 107 l 400 865 l 189 865 l 189 972 l 719 972 l 719 865 l 508 865 l 508 107 l 719 107 l 719 0 l 189 0 z "},"Ĳ":{"ha":1972,"x_min":189,"x_max":1908,"o":"m 189 0 l 189 107 l 400 107 l 400 865 l 189 865 l 189 972 l 719 972 l 719 865 l 508 865 l 508 107 l 719 107 l 719 0 l 189 0 m 1388 -14 q 1269 4 1322 -14 q 1174 51 1217 22 q 1101 117 1132 81 q 1053 186 1071 153 l 1128 264 q 1180 192 1153 224 q 1240 137 1207 160 q 1309 102 1272 114 q 1388 90 1346 90 q 1518 125 1463 90 q 1604 219 1574 160 q 1635 351 1635 279 l 1635 865 l 1424 865 l 1424 972 l 1908 972 l 1908 865 l 1746 865 l 1746 343 q 1722 206 1746 269 q 1651 92 1697 142 q 1538 14 1604 42 q 1388 -14 1472 -14 z "},"Í":{"ha":910,"x_min":189,"x_max":719,"o":"m 189 0 l 189 107 l 400 107 l 400 865 l 189 865 l 189 972 l 719 972 l 719 865 l 508 865 l 508 107 l 719 107 l 719 0 l 189 0 m 358 1051 l 326 1110 l 558 1256 l 615 1158 l 358 1051 z "},"Ĭ":{"ha":910,"x_min":189,"x_max":719,"o":"m 189 0 l 189 107 l 400 107 l 400 865 l 189 865 l 189 972 l 719 972 l 719 865 l 508 865 l 508 107 l 719 107 l 719 0 l 189 0 m 454 1050 q 358 1074 401 1050 q 285 1137 314 1097 q 243 1228 256 1176 l 324 1239 q 374 1160 339 1188 q 454 1133 408 1133 q 535 1160 500 1133 q 585 1239 569 1188 l 665 1228 q 624 1137 654 1176 q 551 1074 594 1097 q 454 1050 508 1050 z "},"Ǐ":{"ha":910,"x_min":189,"x_max":719,"o":"m 189 0 l 189 107 l 400 107 l 400 865 l 189 865 l 189 972 l 719 972 l 719 865 l 508 865 l 508 107 l 719 107 l 719 0 l 189 0 m 403 1058 l 244 1192 l 290 1232 l 475 1128 l 433 1128 l 618 1232 l 664 1192 l 506 1058 l 403 1058 z "},"Î":{"ha":910,"x_min":189,"x_max":719,"o":"m 189 0 l 189 107 l 400 107 l 400 865 l 189 865 l 189 972 l 719 972 l 719 865 l 508 865 l 508 107 l 719 107 l 719 0 l 189 0 m 283 1056 l 238 1097 l 407 1231 l 500 1231 l 668 1097 l 624 1056 l 432 1161 l 474 1161 l 283 1056 z "},"Ȉ":{"ha":910,"x_min":119,"x_max":719,"o":"m 189 0 l 189 107 l 400 107 l 400 865 l 189 865 l 189 972 l 719 972 l 719 865 l 508 865 l 508 107 l 719 107 l 719 0 l 189 0 m 585 1040 l 364 1186 l 439 1272 l 628 1097 l 585 1040 m 340 1040 l 119 1186 l 196 1272 l 383 1097 l 340 1040 z "},"Ï":{"ha":910,"x_min":189,"x_max":719,"o":"m 189 0 l 189 107 l 400 107 l 400 865 l 189 865 l 189 972 l 719 972 l 719 865 l 508 865 l 508 107 l 719 107 l 719 0 l 189 0 m 594 1068 q 535 1089 556 1068 q 515 1144 515 1110 q 535 1198 515 1175 q 594 1221 556 1221 q 655 1200 635 1221 q 675 1144 675 1179 q 655 1091 675 1114 q 594 1068 635 1068 m 314 1068 q 253 1089 274 1068 q 233 1144 233 1110 q 253 1198 233 1175 q 314 1221 274 1221 q 373 1200 353 1221 q 393 1144 393 1179 q 373 1091 393 1114 q 314 1068 353 1068 z "},"Ḯ":{"ha":910,"x_min":189,"x_max":719,"o":"m 189 0 l 189 107 l 400 107 l 400 865 l 189 865 l 189 972 l 719 972 l 719 865 l 508 865 l 508 107 l 719 107 l 719 0 l 189 0 m 369 1256 l 338 1314 l 569 1461 l 625 1363 l 369 1256 m 314 1068 q 253 1089 274 1068 q 233 1144 233 1110 q 253 1198 233 1175 q 314 1221 274 1221 q 373 1200 353 1221 q 393 1144 393 1179 q 373 1091 393 1114 q 314 1068 353 1068 m 594 1068 q 535 1089 556 1068 q 515 1144 515 1110 q 535 1198 515 1175 q 594 1221 556 1221 q 655 1200 635 1221 q 675 1144 675 1179 q 655 1091 675 1114 q 594 1068 635 1068 z "},"İ":{"ha":910,"x_min":189,"x_max":719,"o":"m 189 0 l 189 107 l 400 107 l 400 865 l 189 865 l 189 972 l 719 972 l 719 865 l 508 865 l 508 107 l 719 107 l 719 0 l 189 0 m 454 1068 q 395 1089 415 1068 q 375 1144 375 1110 q 395 1198 375 1175 q 454 1221 415 1221 q 513 1200 493 1221 q 533 1144 533 1179 q 513 1091 533 1114 q 454 1068 493 1068 z "},"Ị":{"ha":910,"x_min":189,"x_max":719,"o":"m 189 0 l 189 107 l 400 107 l 400 865 l 189 865 l 189 972 l 719 972 l 719 865 l 508 865 l 508 107 l 719 107 l 719 0 l 189 0 m 454 -257 q 395 -236 415 -257 q 375 -182 375 -215 q 394 -128 375 -150 q 454 -106 414 -106 q 513 -126 493 -106 q 533 -182 533 -147 q 514 -235 533 -212 q 454 -257 494 -257 z "},"Ì":{"ha":910,"x_min":189,"x_max":719,"o":"m 189 0 l 189 107 l 400 107 l 400 865 l 189 865 l 189 972 l 719 972 l 719 865 l 508 865 l 508 107 l 719 107 l 719 0 l 189 0 m 556 1051 l 300 1158 l 357 1256 l 589 1110 l 556 1051 z "},"Ỉ":{"ha":910,"x_min":189,"x_max":719,"o":"m 189 0 l 189 107 l 400 107 l 400 865 l 189 865 l 189 972 l 719 972 l 719 865 l 508 865 l 508 107 l 719 107 l 719 0 l 189 0 m 431 1060 q 419 1083 424 1071 q 415 1104 415 1094 q 422 1129 415 1115 q 451 1158 429 1143 q 485 1183 474 1174 q 497 1204 497 1193 q 481 1226 497 1219 q 442 1233 465 1233 q 394 1227 421 1233 q 343 1210 368 1221 l 322 1279 q 387 1302 353 1294 q 449 1310 421 1310 q 550 1281 517 1310 q 583 1213 583 1251 q 567 1163 583 1181 q 531 1133 550 1144 q 500 1114 511 1122 q 489 1090 489 1106 q 490 1084 489 1088 q 492 1075 490 1081 l 431 1060 z "},"Ȋ":{"ha":910,"x_min":189,"x_max":719,"o":"m 189 0 l 189 107 l 400 107 l 400 865 l 189 865 l 189 972 l 719 972 l 719 865 l 508 865 l 508 107 l 719 107 l 719 0 l 189 0 m 324 1050 l 243 1063 q 285 1153 256 1114 q 358 1216 314 1193 q 454 1239 401 1239 q 551 1216 508 1239 q 624 1153 594 1193 q 665 1063 654 1114 l 585 1050 q 535 1128 569 1101 q 454 1156 500 1156 q 374 1128 408 1156 q 324 1050 339 1101 z "},"Ī":{"ha":910,"x_min":189,"x_max":719,"o":"m 189 0 l 189 107 l 400 107 l 400 865 l 189 865 l 189 972 l 719 972 l 719 865 l 508 865 l 508 107 l 719 107 l 719 0 l 189 0 m 240 1103 l 240 1186 l 667 1186 l 667 1103 l 240 1103 z "},"Į":{"ha":910,"x_min":189,"x_max":719,"o":"m 189 0 l 189 107 l 400 107 l 400 865 l 189 865 l 189 972 l 719 972 l 719 865 l 508 865 l 508 107 l 719 107 l 719 0 l 189 0 m 469 -293 q 391 -274 426 -293 q 335 -224 356 -256 q 314 -153 314 -192 q 332 -83 314 -114 q 381 -26 350 -51 q 449 17 413 -1 q 524 50 486 36 l 568 0 q 488 -38 524 -15 q 431 -87 451 -61 q 410 -144 410 -112 q 430 -191 410 -172 q 482 -210 450 -210 q 525 -198 507 -210 q 556 -171 543 -186 l 618 -215 q 560 -269 599 -246 q 469 -293 522 -293 z "},"Ĩ":{"ha":910,"x_min":189,"x_max":719,"o":"m 189 0 l 189 107 l 400 107 l 400 865 l 189 865 l 189 972 l 719 972 l 719 865 l 508 865 l 508 107 l 719 107 l 719 0 l 189 0 m 553 1075 q 492 1086 522 1075 q 429 1110 461 1097 q 393 1125 410 1118 q 361 1132 376 1132 q 328 1117 342 1132 q 314 1075 314 1103 l 229 1075 q 269 1178 229 1140 q 363 1215 310 1215 q 421 1205 393 1215 q 479 1181 449 1194 q 515 1167 496 1174 q 547 1160 533 1160 q 581 1174 567 1160 q 593 1214 594 1188 l 678 1214 q 662 1144 678 1175 q 618 1094 646 1113 q 553 1075 590 1075 z "},"J":{"ha":1064,"x_min":143,"x_max":999,"o":"m 478 -14 q 360 4 413 -14 q 265 51 307 22 q 192 117 222 81 q 143 186 161 153 l 218 264 q 270 192 243 224 q 330 137 297 160 q 399 102 363 114 q 478 90 436 90 q 608 125 553 90 q 694 219 664 160 q 725 351 725 279 l 725 865 l 514 865 l 514 972 l 999 972 l 999 865 l 836 865 l 836 343 q 812 206 836 269 q 741 92 788 142 q 628 14 694 42 q 478 -14 563 -14 z "},"Ĵ":{"ha":1064,"x_min":143,"x_max":999,"o":"m 478 -14 q 360 4 413 -14 q 265 51 307 22 q 192 117 222 81 q 143 186 161 153 l 218 264 q 270 192 243 224 q 330 137 297 160 q 399 102 363 114 q 478 90 436 90 q 608 125 553 90 q 694 219 664 160 q 725 351 725 279 l 725 865 l 514 865 l 514 972 l 999 972 l 999 865 l 836 865 l 836 343 q 812 206 836 269 q 741 92 788 142 q 628 14 694 42 q 478 -14 563 -14 m 594 1056 l 549 1097 l 718 1231 l 811 1231 l 979 1097 l 935 1056 l 743 1161 l 785 1161 l 594 1056 z "},"K":{"ha":1235,"x_min":208,"x_max":1104,"o":"m 283 272 l 282 401 l 947 972 l 1103 972 l 283 272 m 208 0 l 208 972 l 317 972 l 317 0 l 208 0 m 963 0 l 543 535 l 615 613 l 1104 0 l 963 0 z "},"Ķ":{"ha":1235,"x_min":208,"x_max":1104,"o":"m 283 272 l 282 401 l 947 972 l 1103 972 l 283 272 m 208 0 l 208 972 l 317 972 l 317 0 l 208 0 m 963 0 l 543 535 l 615 613 l 1104 0 l 963 0 m 556 -328 l 525 -282 q 561 -262 546 -274 q 585 -237 576 -250 q 594 -212 594 -225 q 586 -193 594 -199 q 565 -183 578 -187 q 541 -167 551 -179 q 531 -135 531 -156 q 551 -94 531 -110 q 600 -78 571 -78 q 667 -103 639 -78 q 694 -174 694 -128 q 683 -225 694 -201 q 651 -267 671 -249 q 606 -300 631 -285 q 556 -328 582 -315 z "},"L":{"ha":1008,"x_min":208,"x_max":892,"o":"m 208 0 l 208 972 l 317 972 l 317 106 l 892 106 l 892 0 l 208 0 z "},"Ǉ":{"ha":2072,"x_min":208,"x_max":2007,"o":"m 208 0 l 208 972 l 317 972 l 317 106 l 892 106 l 892 0 l 208 0 m 1486 -14 q 1368 4 1421 -14 q 1273 51 1315 22 q 1200 117 1231 81 q 1151 186 1169 153 l 1226 264 q 1278 192 1251 224 q 1338 137 1306 160 q 1408 102 1371 114 q 1486 90 1444 90 q 1617 125 1561 90 q 1703 219 1672 160 q 1733 351 1733 279 l 1733 865 l 1522 865 l 1522 972 l 2007 972 l 2007 865 l 1844 865 l 1844 343 q 1820 206 1844 269 q 1749 92 1796 142 q 1637 14 1703 42 q 1486 -14 1571 -14 z "},"Ĺ":{"ha":1008,"x_min":136,"x_max":892,"o":"m 208 0 l 208 972 l 317 972 l 317 106 l 892 106 l 892 0 l 208 0 m 168 1051 l 136 1110 l 368 1256 l 425 1158 l 168 1051 z "},"Ľ":{"ha":1008,"x_min":208,"x_max":892,"o":"m 208 0 l 208 972 l 317 972 l 317 106 l 892 106 l 892 0 l 208 0 m 575 724 l 544 769 q 581 790 565 779 q 605 815 596 801 q 614 839 614 828 q 606 859 614 854 q 585 868 597 864 q 560 884 571 874 q 550 915 550 894 q 571 958 550 943 q 622 972 592 972 q 687 948 660 972 q 714 878 714 924 q 701 828 714 851 q 669 785 689 804 q 626 751 650 765 q 575 724 601 736 z "},"Ļ":{"ha":1008,"x_min":208,"x_max":892,"o":"m 208 0 l 208 972 l 317 972 l 317 106 l 892 106 l 892 0 l 208 0 m 453 -328 l 422 -282 q 458 -262 443 -274 q 483 -237 474 -250 q 492 -212 492 -225 q 483 -193 492 -199 q 463 -183 475 -187 q 438 -167 449 -179 q 428 -135 428 -156 q 448 -94 428 -110 q 497 -78 468 -78 q 564 -103 536 -78 q 592 -174 592 -128 q 580 -225 592 -201 q 548 -267 568 -249 q 503 -300 528 -285 q 453 -328 479 -315 z "},"Ŀ":{"ha":1008,"x_min":208,"x_max":892,"o":"m 208 0 l 208 972 l 317 972 l 317 106 l 892 106 l 892 0 l 208 0 m 774 424 q 701 446 725 424 q 678 510 678 468 q 702 570 678 544 q 774 596 726 596 q 844 573 821 596 q 868 510 868 550 q 844 449 868 474 q 774 424 819 424 z "},"Ḷ":{"ha":1008,"x_min":208,"x_max":892,"o":"m 208 0 l 208 972 l 317 972 l 317 106 l 892 106 l 892 0 l 208 0 m 508 -257 q 449 -236 469 -257 q 429 -182 429 -215 q 449 -128 429 -150 q 508 -106 468 -106 q 567 -126 547 -106 q 588 -182 588 -147 q 568 -235 588 -212 q 508 -257 549 -257 z "},"ǈ":{"ha":1615,"x_min":208,"x_max":1431,"o":"m 208 0 l 208 972 l 317 972 l 317 106 l 892 106 l 892 0 l 208 0 m 1117 -272 l 1076 -182 q 1203 -149 1154 -179 q 1276 -60 1253 -118 q 1299 82 1299 -1 l 1299 725 l 1403 725 l 1403 51 q 1366 -120 1403 -49 q 1265 -231 1329 -192 q 1117 -272 1200 -271 m 1351 888 q 1293 908 1314 888 q 1272 963 1272 928 q 1294 1018 1272 997 q 1351 1039 1315 1039 q 1411 1019 1390 1039 q 1432 963 1432 999 q 1410 908 1432 929 q 1351 888 1389 888 z "},"Ḻ":{"ha":1008,"x_min":208,"x_max":892,"o":"m 208 0 l 208 972 l 317 972 l 317 106 l 892 106 l 892 0 l 208 0 m 315 -224 l 315 -139 l 700 -139 l 700 -224 l 315 -224 z "},"Ł":{"ha":1033,"x_min":35,"x_max":918,"o":"m 65 353 l 35 440 l 636 685 l 669 594 l 65 353 m 235 0 l 235 972 l 343 972 l 343 106 l 918 106 l 918 0 l 235 0 z "},"M":{"ha":1435,"x_min":208,"x_max":1226,"o":"m 208 0 l 208 972 l 315 972 l 740 376 l 694 378 l 1124 972 l 1226 972 l 1226 0 l 1118 0 l 1118 450 q 1121 672 1117 571 q 1138 874 1125 772 l 1154 833 l 751 286 l 676 286 l 281 832 l 297 874 q 314 677 310 776 q 318 450 318 578 l 317 0 l 208 0 z "},"Ṃ":{"ha":1435,"x_min":208,"x_max":1226,"o":"m 208 0 l 208 972 l 315 972 l 740 376 l 694 378 l 1124 972 l 1226 972 l 1226 0 l 1118 0 l 1118 450 q 1121 672 1117 571 q 1138 874 1125 772 l 1154 833 l 751 286 l 676 286 l 281 832 l 297 874 q 314 677 310 776 q 318 450 318 578 l 317 0 l 208 0 m 717 -257 q 658 -236 678 -257 q 638 -182 638 -215 q 657 -128 638 -150 q 717 -106 676 -106 q 776 -126 756 -106 q 796 -182 796 -147 q 776 -235 796 -212 q 717 -257 757 -257 z "},"N":{"ha":1349,"x_min":208,"x_max":1140,"o":"m 208 0 l 208 972 l 314 972 l 1063 126 l 1049 101 q 1041 179 1043 129 q 1037 290 1039 229 q 1033 413 1035 351 q 1032 528 1032 475 q 1032 615 1032 582 l 1032 972 l 1140 972 l 1140 0 l 1031 0 l 289 831 l 297 860 q 303 781 300 825 q 308 687 306 736 q 313 591 310 638 q 316 505 315 544 q 317 442 317 465 l 317 0 l 208 0 z "},"Ǌ":{"ha":2413,"x_min":208,"x_max":2347,"o":"m 208 0 l 208 972 l 314 972 l 1063 126 l 1049 101 q 1041 179 1043 129 q 1037 290 1039 229 q 1033 413 1035 351 q 1032 528 1032 475 q 1032 615 1032 582 l 1032 972 l 1140 972 l 1140 0 l 1031 0 l 289 831 l 297 860 q 303 781 300 825 q 308 687 306 736 q 313 591 310 638 q 316 505 315 544 q 317 442 317 465 l 317 0 l 208 0 m 1826 -14 q 1708 4 1761 -14 q 1613 51 1656 22 q 1540 117 1571 81 q 1492 186 1510 153 l 1567 264 q 1619 192 1592 224 q 1678 137 1646 160 q 1748 102 1711 114 q 1826 90 1785 90 q 1957 125 1901 90 q 2043 219 2013 160 q 2074 351 2074 279 l 2074 865 l 1863 865 l 1863 972 l 2347 972 l 2347 865 l 2185 865 l 2185 343 q 2160 206 2185 269 q 2090 92 2136 142 q 1977 14 2043 42 q 1826 -14 1911 -14 z "},"Ń":{"ha":1349,"x_min":208,"x_max":1140,"o":"m 208 0 l 208 972 l 314 972 l 1063 126 l 1049 101 q 1041 179 1043 129 q 1037 290 1039 229 q 1033 413 1035 351 q 1032 528 1032 475 q 1032 615 1032 582 l 1032 972 l 1140 972 l 1140 0 l 1031 0 l 289 831 l 297 860 q 303 781 300 825 q 308 687 306 736 q 313 591 310 638 q 316 505 315 544 q 317 442 317 465 l 317 0 l 208 0 m 578 1051 l 546 1110 l 778 1256 l 835 1158 l 578 1051 z "},"Ň":{"ha":1349,"x_min":208,"x_max":1140,"o":"m 208 0 l 208 972 l 314 972 l 1063 126 l 1049 101 q 1041 179 1043 129 q 1037 290 1039 229 q 1033 413 1035 351 q 1032 528 1032 475 q 1032 615 1032 582 l 1032 972 l 1140 972 l 1140 0 l 1031 0 l 289 831 l 297 860 q 303 781 300 825 q 308 687 306 736 q 313 591 310 638 q 316 505 315 544 q 317 442 317 465 l 317 0 l 208 0 m 624 1058 l 465 1192 l 511 1232 l 696 1128 l 654 1128 l 839 1232 l 885 1192 l 726 1058 l 624 1058 z "},"Ņ":{"ha":1349,"x_min":208,"x_max":1140,"o":"m 208 0 l 208 972 l 314 972 l 1063 126 l 1049 101 q 1041 179 1043 129 q 1037 290 1039 229 q 1033 413 1035 351 q 1032 528 1032 475 q 1032 615 1032 582 l 1032 972 l 1140 972 l 1140 0 l 1031 0 l 289 831 l 297 860 q 303 781 300 825 q 308 687 306 736 q 313 591 310 638 q 316 505 315 544 q 317 442 317 465 l 317 0 l 208 0 m 621 -328 l 590 -282 q 626 -262 611 -274 q 651 -237 642 -250 q 660 -212 660 -225 q 651 -193 660 -199 q 631 -183 643 -187 q 606 -167 617 -179 q 596 -135 596 -156 q 616 -94 596 -110 q 665 -78 636 -78 q 732 -103 704 -78 q 760 -174 760 -128 q 748 -225 760 -201 q 716 -267 736 -249 q 672 -300 696 -285 q 621 -328 647 -315 z "},"Ṅ":{"ha":1349,"x_min":208,"x_max":1140,"o":"m 208 0 l 208 972 l 314 972 l 1063 126 l 1049 101 q 1041 179 1043 129 q 1037 290 1039 229 q 1033 413 1035 351 q 1032 528 1032 475 q 1032 615 1032 582 l 1032 972 l 1140 972 l 1140 0 l 1031 0 l 289 831 l 297 860 q 303 781 300 825 q 308 687 306 736 q 313 591 310 638 q 316 505 315 544 q 317 442 317 465 l 317 0 l 208 0 m 675 1068 q 616 1089 636 1068 q 596 1144 596 1110 q 616 1198 596 1175 q 675 1221 636 1221 q 734 1200 714 1221 q 754 1144 754 1179 q 734 1091 754 1114 q 675 1068 714 1068 z "},"Ṇ":{"ha":1349,"x_min":208,"x_max":1140,"o":"m 208 0 l 208 972 l 314 972 l 1063 126 l 1049 101 q 1041 179 1043 129 q 1037 290 1039 229 q 1033 413 1035 351 q 1032 528 1032 475 q 1032 615 1032 582 l 1032 972 l 1140 972 l 1140 0 l 1031 0 l 289 831 l 297 860 q 303 781 300 825 q 308 687 306 736 q 313 591 310 638 q 316 505 315 544 q 317 442 317 465 l 317 0 l 208 0 m 675 -257 q 616 -236 636 -257 q 596 -182 596 -215 q 615 -128 596 -150 q 675 -106 635 -106 q 734 -126 714 -106 q 754 -182 754 -147 q 735 -235 754 -212 q 675 -257 715 -257 z "},"Ɲ":{"ha":1350,"x_min":-3,"x_max":1142,"o":"m 38 -272 l -3 -176 q 160 -107 110 -174 q 211 82 211 -40 l 211 972 l 317 972 l 1064 138 l 1039 101 q 1031 224 1035 154 q 1026 368 1028 294 q 1024 508 1025 442 q 1022 615 1022 574 l 1022 972 l 1142 972 l 1142 0 l 1033 0 l 290 821 l 310 860 q 315 783 313 825 q 320 697 318 742 q 324 606 322 651 q 328 518 326 560 q 329 442 329 476 l 329 51 q 291 -121 329 -49 q 186 -232 253 -193 q 38 -272 119 -271 z "},"ǋ":{"ha":1957,"x_min":208,"x_max":1771,"o":"m 208 0 l 208 972 l 314 972 l 1063 126 l 1049 101 q 1041 179 1043 129 q 1037 290 1039 229 q 1033 413 1035 351 q 1032 528 1032 475 q 1032 615 1032 582 l 1032 972 l 1140 972 l 1140 0 l 1031 0 l 289 831 l 297 860 q 303 781 300 825 q 308 687 306 736 q 313 591 310 638 q 316 505 315 544 q 317 442 317 465 l 317 0 l 208 0 m 1457 -272 l 1417 -182 q 1544 -149 1494 -179 q 1616 -60 1593 -118 q 1639 82 1639 -1 l 1639 725 l 1743 725 l 1743 51 q 1706 -120 1743 -49 q 1605 -231 1669 -192 q 1457 -272 1540 -271 m 1692 888 q 1633 908 1654 888 q 1613 963 1613 928 q 1634 1018 1613 997 q 1692 1039 1656 1039 q 1751 1019 1731 1039 q 1772 963 1772 999 q 1751 908 1772 929 q 1692 888 1729 888 z "},"Ṉ":{"ha":1349,"x_min":208,"x_max":1140,"o":"m 208 0 l 208 972 l 314 972 l 1063 126 l 1049 101 q 1041 179 1043 129 q 1037 290 1039 229 q 1033 413 1035 351 q 1032 528 1032 475 q 1032 615 1032 582 l 1032 972 l 1140 972 l 1140 0 l 1031 0 l 289 831 l 297 860 q 303 781 300 825 q 308 687 306 736 q 313 591 310 638 q 316 505 315 544 q 317 442 317 465 l 317 0 l 208 0 m 482 -224 l 482 -139 l 867 -139 l 867 -224 l 482 -224 z "},"Ñ":{"ha":1349,"x_min":208,"x_max":1140,"o":"m 208 0 l 208 972 l 314 972 l 1063 126 l 1049 101 q 1041 179 1043 129 q 1037 290 1039 229 q 1033 413 1035 351 q 1032 528 1032 475 q 1032 615 1032 582 l 1032 972 l 1140 972 l 1140 0 l 1031 0 l 289 831 l 297 860 q 303 781 300 825 q 308 687 306 736 q 313 591 310 638 q 316 505 315 544 q 317 442 317 465 l 317 0 l 208 0 m 774 1075 q 713 1086 743 1075 q 650 1110 682 1097 q 614 1125 631 1118 q 582 1132 597 1132 q 549 1117 563 1132 q 535 1075 535 1103 l 450 1075 q 490 1178 450 1140 q 583 1215 531 1215 q 642 1205 614 1215 q 700 1181 669 1194 q 735 1167 717 1174 q 768 1160 754 1160 q 801 1174 788 1160 q 814 1214 815 1188 l 899 1214 q 883 1144 899 1175 q 839 1094 867 1113 q 774 1075 811 1075 z "},"Ŋ":{"ha":1349,"x_min":208,"x_max":1140,"o":"m 846 -272 l 806 -178 q 901 -164 858 -178 q 972 -125 943 -150 q 1015 -63 1001 -100 q 1029 19 1029 -26 l 1029 71 l 1044 -14 l 288 833 l 299 847 q 303 776 300 817 q 308 693 307 736 q 312 609 310 650 q 315 535 314 568 q 317 483 317 503 l 317 0 l 208 0 l 208 972 l 315 972 l 1065 125 l 1047 114 q 1040 233 1042 167 q 1035 371 1038 300 q 1033 506 1033 442 q 1032 615 1032 571 l 1032 972 l 1140 972 l 1140 36 q 1102 -124 1140 -54 q 998 -233 1064 -193 q 846 -272 932 -272 z "},"O":{"ha":1339,"x_min":131,"x_max":1208,"o":"m 668 -14 q 453 24 551 -14 q 282 129 354 63 q 170 287 210 196 q 131 483 131 378 q 170 681 131 590 q 282 839 210 771 q 453 944 354 907 q 668 982 551 982 q 885 945 788 982 q 1056 840 983 908 q 1169 681 1129 772 q 1208 483 1208 590 q 1169 287 1208 378 q 1056 128 1129 196 q 885 23 983 60 q 668 -14 788 -14 m 669 93 q 841 122 763 93 q 976 205 919 151 q 1065 329 1033 258 q 1096 483 1096 400 q 1065 639 1096 567 q 976 764 1033 711 q 840 847 919 817 q 669 876 761 876 q 497 847 575 876 q 361 765 418 817 q 274 640 304 713 q 243 483 243 568 q 274 328 243 400 q 361 204 304 257 q 497 122 418 151 q 669 93 575 93 z "},"Ó":{"ha":1339,"x_min":131,"x_max":1208,"o":"m 668 -14 q 453 24 551 -14 q 282 129 354 63 q 170 287 210 196 q 131 483 131 378 q 170 681 131 590 q 282 839 210 771 q 453 944 354 907 q 668 982 551 982 q 885 945 788 982 q 1056 840 983 908 q 1169 681 1129 772 q 1208 483 1208 590 q 1169 287 1208 378 q 1056 128 1129 196 q 885 23 983 60 q 668 -14 788 -14 m 669 93 q 841 122 763 93 q 976 205 919 151 q 1065 329 1033 258 q 1096 483 1096 400 q 1065 639 1096 567 q 976 764 1033 711 q 840 847 919 817 q 669 876 761 876 q 497 847 575 876 q 361 765 418 817 q 274 640 304 713 q 243 483 243 568 q 274 328 243 400 q 361 204 304 257 q 497 122 418 151 q 669 93 575 93 m 574 1051 l 542 1110 l 774 1256 l 831 1158 l 574 1051 z "},"Ŏ":{"ha":1339,"x_min":131,"x_max":1208,"o":"m 668 -14 q 453 24 551 -14 q 282 129 354 63 q 170 287 210 196 q 131 483 131 378 q 170 681 131 590 q 282 839 210 771 q 453 944 354 907 q 668 982 551 982 q 885 945 788 982 q 1056 840 983 908 q 1169 681 1129 772 q 1208 483 1208 590 q 1169 287 1208 378 q 1056 128 1129 196 q 885 23 983 60 q 668 -14 788 -14 m 669 93 q 841 122 763 93 q 976 205 919 151 q 1065 329 1033 258 q 1096 483 1096 400 q 1065 639 1096 567 q 976 764 1033 711 q 840 847 919 817 q 669 876 761 876 q 497 847 575 876 q 361 765 418 817 q 274 640 304 713 q 243 483 243 568 q 274 328 243 400 q 361 204 304 257 q 497 122 418 151 q 669 93 575 93 m 671 1050 q 574 1074 618 1050 q 501 1137 531 1097 q 460 1228 472 1176 l 540 1239 q 590 1160 556 1188 q 671 1133 625 1133 q 751 1160 717 1133 q 801 1239 786 1188 l 882 1228 q 841 1137 871 1176 q 768 1074 811 1097 q 671 1050 725 1050 z "},"Ǒ":{"ha":1339,"x_min":131,"x_max":1208,"o":"m 668 -14 q 453 24 551 -14 q 282 129 354 63 q 170 287 210 196 q 131 483 131 378 q 170 681 131 590 q 282 839 210 771 q 453 944 354 907 q 668 982 551 982 q 885 945 788 982 q 1056 840 983 908 q 1169 681 1129 772 q 1208 483 1208 590 q 1169 287 1208 378 q 1056 128 1129 196 q 885 23 983 60 q 668 -14 788 -14 m 669 93 q 841 122 763 93 q 976 205 919 151 q 1065 329 1033 258 q 1096 483 1096 400 q 1065 639 1096 567 q 976 764 1033 711 q 840 847 919 817 q 669 876 761 876 q 497 847 575 876 q 361 765 418 817 q 274 640 304 713 q 243 483 243 568 q 274 328 243 400 q 361 204 304 257 q 497 122 418 151 q 669 93 575 93 m 619 1058 l 461 1192 l 507 1232 l 692 1128 l 650 1128 l 835 1232 l 881 1192 l 722 1058 l 619 1058 z "},"Ô":{"ha":1339,"x_min":131,"x_max":1208,"o":"m 668 -14 q 453 24 551 -14 q 282 129 354 63 q 170 287 210 196 q 131 483 131 378 q 170 681 131 590 q 282 839 210 771 q 453 944 354 907 q 668 982 551 982 q 885 945 788 982 q 1056 840 983 908 q 1169 681 1129 772 q 1208 483 1208 590 q 1169 287 1208 378 q 1056 128 1129 196 q 885 23 983 60 q 668 -14 788 -14 m 669 93 q 841 122 763 93 q 976 205 919 151 q 1065 329 1033 258 q 1096 483 1096 400 q 1065 639 1096 567 q 976 764 1033 711 q 840 847 919 817 q 669 876 761 876 q 497 847 575 876 q 361 765 418 817 q 274 640 304 713 q 243 483 243 568 q 274 328 243 400 q 361 204 304 257 q 497 122 418 151 q 669 93 575 93 m 500 1056 l 454 1097 l 624 1231 l 717 1231 l 885 1097 l 840 1056 l 649 1161 l 690 1161 l 500 1056 z "},"Ố":{"ha":1339,"x_min":131,"x_max":1208,"o":"m 668 -14 q 453 24 551 -14 q 282 129 354 63 q 170 287 210 196 q 131 483 131 378 q 170 681 131 590 q 282 839 210 771 q 453 944 354 907 q 668 982 551 982 q 885 945 788 982 q 1056 840 983 908 q 1169 681 1129 772 q 1208 483 1208 590 q 1169 287 1208 378 q 1056 128 1129 196 q 885 23 983 60 q 668 -14 788 -14 m 669 93 q 841 122 763 93 q 976 205 919 151 q 1065 329 1033 258 q 1096 483 1096 400 q 1065 639 1096 567 q 976 764 1033 711 q 840 847 919 817 q 669 876 761 876 q 497 847 575 876 q 361 765 418 817 q 274 640 304 713 q 243 483 243 568 q 274 328 243 400 q 361 204 304 257 q 497 122 418 151 q 669 93 575 93 m 499 1056 l 457 1097 l 622 1229 l 717 1229 l 882 1097 l 840 1056 l 649 1160 l 690 1160 l 499 1056 m 878 1206 l 821 1243 l 931 1433 l 1029 1365 l 878 1206 z "},"Ộ":{"ha":1339,"x_min":131,"x_max":1208,"o":"m 668 -14 q 453 24 551 -14 q 282 129 354 63 q 170 287 210 196 q 131 483 131 378 q 170 681 131 590 q 282 839 210 771 q 453 944 354 907 q 668 982 551 982 q 885 945 788 982 q 1056 840 983 908 q 1169 681 1129 772 q 1208 483 1208 590 q 1169 287 1208 378 q 1056 128 1129 196 q 885 23 983 60 q 668 -14 788 -14 m 669 93 q 841 122 763 93 q 976 205 919 151 q 1065 329 1033 258 q 1096 483 1096 400 q 1065 639 1096 567 q 976 764 1033 711 q 840 847 919 817 q 669 876 761 876 q 497 847 575 876 q 361 765 418 817 q 274 640 304 713 q 243 483 243 568 q 274 328 243 400 q 361 204 304 257 q 497 122 418 151 q 669 93 575 93 m 671 -257 q 612 -236 632 -257 q 592 -182 592 -215 q 611 -128 592 -150 q 671 -106 631 -106 q 730 -126 710 -106 q 750 -182 750 -147 q 731 -235 750 -212 q 671 -257 711 -257 m 500 1056 l 454 1097 l 624 1231 l 717 1231 l 885 1097 l 840 1056 l 649 1161 l 690 1161 l 500 1056 z "},"Ồ":{"ha":1339,"x_min":131,"x_max":1208,"o":"m 668 -14 q 453 24 551 -14 q 282 129 354 63 q 170 287 210 196 q 131 483 131 378 q 170 681 131 590 q 282 839 210 771 q 453 944 354 907 q 668 982 551 982 q 885 945 788 982 q 1056 840 983 908 q 1169 681 1129 772 q 1208 483 1208 590 q 1169 287 1208 378 q 1056 128 1129 196 q 885 23 983 60 q 668 -14 788 -14 m 669 93 q 841 122 763 93 q 976 205 919 151 q 1065 329 1033 258 q 1096 483 1096 400 q 1065 639 1096 567 q 976 764 1033 711 q 840 847 919 817 q 669 876 761 876 q 497 847 575 876 q 361 765 418 817 q 274 640 304 713 q 243 483 243 568 q 274 328 243 400 q 361 204 304 257 q 497 122 418 151 q 669 93 575 93 m 499 1056 l 457 1097 l 622 1236 l 717 1236 l 882 1097 l 840 1056 l 649 1167 l 690 1167 l 499 1056 m 894 1206 l 740 1367 l 838 1435 l 949 1246 l 894 1206 z "},"Ổ":{"ha":1339,"x_min":131,"x_max":1208,"o":"m 668 -14 q 453 24 551 -14 q 282 129 354 63 q 170 287 210 196 q 131 483 131 378 q 170 681 131 590 q 282 839 210 771 q 453 944 354 907 q 668 982 551 982 q 885 945 788 982 q 1056 840 983 908 q 1169 681 1129 772 q 1208 483 1208 590 q 1169 287 1208 378 q 1056 128 1129 196 q 885 23 983 60 q 668 -14 788 -14 m 669 93 q 841 122 763 93 q 976 205 919 151 q 1065 329 1033 258 q 1096 483 1096 400 q 1065 639 1096 567 q 976 764 1033 711 q 840 847 919 817 q 669 876 761 876 q 497 847 575 876 q 361 765 418 817 q 274 640 304 713 q 243 483 243 568 q 274 328 243 400 q 361 204 304 257 q 497 122 418 151 q 669 93 575 93 m 500 1056 l 457 1097 l 624 1229 l 717 1229 l 882 1097 l 840 1056 l 650 1160 l 690 1160 l 500 1056 m 860 1214 q 849 1233 854 1222 q 844 1253 844 1243 q 853 1275 844 1264 q 886 1303 861 1286 q 917 1325 907 1315 q 926 1342 926 1335 q 911 1363 926 1356 q 875 1369 896 1369 q 828 1363 853 1369 q 779 1346 803 1357 l 758 1415 q 819 1438 788 1431 q 881 1446 851 1446 q 980 1418 947 1446 q 1013 1353 1013 1390 q 997 1309 1013 1326 q 961 1279 982 1292 q 930 1257 942 1267 q 918 1240 918 1247 q 919 1235 918 1238 q 921 1229 919 1232 l 860 1214 z "},"Ỗ":{"ha":1339,"x_min":131,"x_max":1208,"o":"m 668 -14 q 453 24 551 -14 q 282 129 354 63 q 170 287 210 196 q 131 483 131 378 q 170 681 131 590 q 282 839 210 771 q 453 944 354 907 q 668 982 551 982 q 885 945 788 982 q 1056 840 983 908 q 1169 681 1129 772 q 1208 483 1208 590 q 1169 287 1208 378 q 1056 128 1129 196 q 885 23 983 60 q 668 -14 788 -14 m 669 93 q 841 122 763 93 q 976 205 919 151 q 1065 329 1033 258 q 1096 483 1096 400 q 1065 639 1096 567 q 976 764 1033 711 q 840 847 919 817 q 669 876 761 876 q 497 847 575 876 q 361 765 418 817 q 274 640 304 713 q 243 483 243 568 q 274 328 243 400 q 361 204 304 257 q 497 122 418 151 q 669 93 575 93 m 500 1056 l 457 1097 l 624 1229 l 717 1229 l 882 1097 l 840 1056 l 649 1160 l 690 1160 l 500 1056 m 772 1311 q 713 1322 740 1311 q 663 1342 686 1332 q 620 1360 640 1353 q 583 1368 600 1368 q 553 1356 567 1368 q 536 1317 539 1343 l 457 1324 q 494 1413 458 1376 q 578 1450 529 1450 q 630 1440 607 1450 q 678 1419 653 1431 q 719 1402 697 1411 q 758 1393 740 1393 q 790 1406 778 1393 q 804 1446 801 1419 l 883 1439 q 868 1372 882 1400 q 830 1327 854 1343 q 772 1311 806 1311 z "},"Ȍ":{"ha":1339,"x_min":131,"x_max":1208,"o":"m 668 -14 q 453 24 551 -14 q 282 129 354 63 q 170 287 210 196 q 131 483 131 378 q 170 681 131 590 q 282 839 210 771 q 453 944 354 907 q 668 982 551 982 q 885 945 788 982 q 1056 840 983 908 q 1169 681 1129 772 q 1208 483 1208 590 q 1169 287 1208 378 q 1056 128 1129 196 q 885 23 983 60 q 668 -14 788 -14 m 669 93 q 841 122 763 93 q 976 205 919 151 q 1065 329 1033 258 q 1096 483 1096 400 q 1065 639 1096 567 q 976 764 1033 711 q 840 847 919 817 q 669 876 761 876 q 497 847 575 876 q 361 765 418 817 q 274 640 304 713 q 243 483 243 568 q 274 328 243 400 q 361 204 304 257 q 497 122 418 151 q 669 93 575 93 m 800 1040 l 579 1186 l 654 1272 l 843 1097 l 800 1040 m 556 1040 l 335 1186 l 411 1272 l 599 1097 l 556 1040 z "},"Ö":{"ha":1339,"x_min":131,"x_max":1208,"o":"m 668 -14 q 453 24 551 -14 q 282 129 354 63 q 170 287 210 196 q 131 483 131 378 q 170 681 131 590 q 282 839 210 771 q 453 944 354 907 q 668 982 551 982 q 885 945 788 982 q 1056 840 983 908 q 1169 681 1129 772 q 1208 483 1208 590 q 1169 287 1208 378 q 1056 128 1129 196 q 885 23 983 60 q 668 -14 788 -14 m 669 93 q 841 122 763 93 q 976 205 919 151 q 1065 329 1033 258 q 1096 483 1096 400 q 1065 639 1096 567 q 976 764 1033 711 q 840 847 919 817 q 669 876 761 876 q 497 847 575 876 q 361 765 418 817 q 274 640 304 713 q 243 483 243 568 q 274 328 243 400 q 361 204 304 257 q 497 122 418 151 q 669 93 575 93 m 811 1068 q 752 1089 772 1068 q 732 1144 732 1110 q 752 1198 732 1175 q 811 1221 772 1221 q 872 1200 851 1221 q 892 1144 892 1179 q 872 1091 892 1114 q 811 1068 851 1068 m 531 1068 q 470 1089 490 1068 q 450 1144 450 1110 q 470 1198 450 1175 q 531 1221 490 1221 q 590 1200 569 1221 q 610 1144 610 1179 q 590 1091 610 1114 q 531 1068 569 1068 z "},"Ȫ":{"ha":1339,"x_min":131,"x_max":1208,"o":"m 668 -14 q 453 24 551 -14 q 282 129 354 63 q 170 287 210 196 q 131 483 131 378 q 170 681 131 590 q 282 839 210 771 q 453 944 354 907 q 668 982 551 982 q 885 945 788 982 q 1056 840 983 908 q 1169 681 1129 772 q 1208 483 1208 590 q 1169 287 1208 378 q 1056 128 1129 196 q 885 23 983 60 q 668 -14 788 -14 m 669 93 q 841 122 763 93 q 976 205 919 151 q 1065 329 1033 258 q 1096 483 1096 400 q 1065 639 1096 567 q 976 764 1033 711 q 840 847 919 817 q 669 876 761 876 q 497 847 575 876 q 361 765 418 817 q 274 640 304 713 q 243 483 243 568 q 274 328 243 400 q 361 204 304 257 q 497 122 418 151 q 669 93 575 93 m 811 1068 q 752 1089 772 1068 q 732 1144 732 1110 q 752 1198 732 1175 q 811 1221 772 1221 q 872 1200 851 1221 q 892 1144 892 1179 q 872 1091 892 1114 q 811 1068 851 1068 m 531 1068 q 470 1089 490 1068 q 450 1144 450 1110 q 470 1198 450 1175 q 531 1221 490 1221 q 590 1200 569 1221 q 610 1144 610 1179 q 590 1091 610 1114 q 531 1068 569 1068 m 457 1300 l 457 1383 l 883 1383 l 883 1300 l 457 1300 z "},"Ȱ":{"ha":1339,"x_min":131,"x_max":1208,"o":"m 668 -14 q 453 24 551 -14 q 282 129 354 63 q 170 287 210 196 q 131 483 131 378 q 170 681 131 590 q 282 839 210 771 q 453 944 354 907 q 668 982 551 982 q 885 945 788 982 q 1056 840 983 908 q 1169 681 1129 772 q 1208 483 1208 590 q 1169 287 1208 378 q 1056 128 1129 196 q 885 23 983 60 q 668 -14 788 -14 m 669 93 q 841 122 763 93 q 976 205 919 151 q 1065 329 1033 258 q 1096 483 1096 400 q 1065 639 1096 567 q 976 764 1033 711 q 840 847 919 817 q 669 876 761 876 q 497 847 575 876 q 361 765 418 817 q 274 640 304 713 q 243 483 243 568 q 274 328 243 400 q 361 204 304 257 q 497 122 418 151 q 669 93 575 93 m 671 1068 q 612 1089 632 1068 q 592 1144 592 1110 q 612 1198 592 1175 q 671 1221 632 1221 q 730 1200 710 1221 q 750 1144 750 1179 q 730 1091 750 1114 q 671 1068 710 1068 m 457 1300 l 457 1383 l 883 1383 l 883 1300 l 457 1300 z "},"Ọ":{"ha":1339,"x_min":131,"x_max":1208,"o":"m 668 -14 q 453 24 551 -14 q 282 129 354 63 q 170 287 210 196 q 131 483 131 378 q 170 681 131 590 q 282 839 210 771 q 453 944 354 907 q 668 982 551 982 q 885 945 788 982 q 1056 840 983 908 q 1169 681 1129 772 q 1208 483 1208 590 q 1169 287 1208 378 q 1056 128 1129 196 q 885 23 983 60 q 668 -14 788 -14 m 669 93 q 841 122 763 93 q 976 205 919 151 q 1065 329 1033 258 q 1096 483 1096 400 q 1065 639 1096 567 q 976 764 1033 711 q 840 847 919 817 q 669 876 761 876 q 497 847 575 876 q 361 765 418 817 q 274 640 304 713 q 243 483 243 568 q 274 328 243 400 q 361 204 304 257 q 497 122 418 151 q 669 93 575 93 m 671 -257 q 612 -236 632 -257 q 592 -182 592 -215 q 611 -128 592 -150 q 671 -106 631 -106 q 730 -126 710 -106 q 750 -182 750 -147 q 731 -235 750 -212 q 671 -257 711 -257 z "},"Ò":{"ha":1339,"x_min":131,"x_max":1208,"o":"m 668 -14 q 453 24 551 -14 q 282 129 354 63 q 170 287 210 196 q 131 483 131 378 q 170 681 131 590 q 282 839 210 771 q 453 944 354 907 q 668 982 551 982 q 885 945 788 982 q 1056 840 983 908 q 1169 681 1129 772 q 1208 483 1208 590 q 1169 287 1208 378 q 1056 128 1129 196 q 885 23 983 60 q 668 -14 788 -14 m 669 93 q 841 122 763 93 q 976 205 919 151 q 1065 329 1033 258 q 1096 483 1096 400 q 1065 639 1096 567 q 976 764 1033 711 q 840 847 919 817 q 669 876 761 876 q 497 847 575 876 q 361 765 418 817 q 274 640 304 713 q 243 483 243 568 q 274 328 243 400 q 361 204 304 257 q 497 122 418 151 q 669 93 575 93 m 771 1051 l 515 1158 l 572 1256 l 804 1110 l 771 1051 z "},"Ỏ":{"ha":1339,"x_min":131,"x_max":1208,"o":"m 668 -14 q 453 24 551 -14 q 282 129 354 63 q 170 287 210 196 q 131 483 131 378 q 170 681 131 590 q 282 839 210 771 q 453 944 354 907 q 668 982 551 982 q 885 945 788 982 q 1056 840 983 908 q 1169 681 1129 772 q 1208 483 1208 590 q 1169 287 1208 378 q 1056 128 1129 196 q 885 23 983 60 q 668 -14 788 -14 m 669 93 q 841 122 763 93 q 976 205 919 151 q 1065 329 1033 258 q 1096 483 1096 400 q 1065 639 1096 567 q 976 764 1033 711 q 840 847 919 817 q 669 876 761 876 q 497 847 575 876 q 361 765 418 817 q 274 640 304 713 q 243 483 243 568 q 274 328 243 400 q 361 204 304 257 q 497 122 418 151 q 669 93 575 93 m 647 1060 q 636 1083 640 1071 q 632 1104 632 1094 q 639 1129 632 1115 q 668 1158 646 1143 q 702 1183 690 1174 q 714 1204 714 1193 q 698 1226 714 1219 q 658 1233 682 1233 q 611 1227 638 1233 q 560 1210 585 1221 l 539 1279 q 603 1302 569 1294 q 665 1310 638 1310 q 767 1281 733 1310 q 800 1213 800 1251 q 783 1163 800 1181 q 747 1133 767 1144 q 717 1114 728 1122 q 706 1090 706 1106 q 706 1084 706 1088 q 708 1075 707 1081 l 647 1060 z "},"Ơ":{"ha":1339,"x_min":131,"x_max":1208,"o":"m 669 -14 q 453 24 551 -14 q 282 129 354 63 q 170 287 210 196 q 131 483 131 378 q 170 681 131 590 q 282 839 210 771 q 453 944 354 907 q 669 982 551 982 q 722 981 696 982 q 771 975 747 979 q 828 966 801 969 q 883 963 856 963 q 981 981 942 963 q 1038 1035 1019 999 q 1057 1126 1057 1071 l 1153 1126 q 1139 1035 1153 1076 q 1097 964 1125 993 q 1028 917 1069 935 q 929 896 988 899 l 932 922 q 1079 817 1018 883 q 1174 667 1140 751 q 1208 483 1208 583 q 1169 287 1208 378 q 1056 128 1129 196 q 885 24 983 61 q 669 -14 788 -14 m 669 93 q 841 122 763 93 q 976 205 919 151 q 1065 329 1033 258 q 1096 483 1096 400 q 1064 639 1096 567 q 974 764 1032 711 q 839 847 917 817 q 669 876 761 876 q 497 847 575 876 q 361 765 418 817 q 274 640 304 713 q 243 483 243 568 q 274 328 243 400 q 361 204 304 257 q 497 122 418 151 q 669 93 575 93 z "},"Ớ":{"ha":1339,"x_min":131,"x_max":1208,"o":"m 669 -14 q 453 24 551 -14 q 282 129 354 63 q 170 287 210 196 q 131 483 131 378 q 170 681 131 590 q 282 839 210 771 q 453 944 354 907 q 669 982 551 982 q 722 981 696 982 q 771 975 747 979 q 828 966 801 969 q 883 963 856 963 q 981 981 942 963 q 1038 1035 1019 999 q 1057 1126 1057 1071 l 1153 1126 q 1139 1035 1153 1076 q 1097 964 1125 993 q 1028 917 1069 935 q 929 896 988 899 l 932 922 q 1079 817 1018 883 q 1174 667 1140 751 q 1208 483 1208 583 q 1169 287 1208 378 q 1056 128 1129 196 q 885 24 983 61 q 669 -14 788 -14 m 669 93 q 841 122 763 93 q 976 205 919 151 q 1065 329 1033 258 q 1096 483 1096 400 q 1064 639 1096 567 q 974 764 1032 711 q 839 847 917 817 q 669 876 761 876 q 497 847 575 876 q 361 765 418 817 q 274 640 304 713 q 243 483 243 568 q 274 328 243 400 q 361 204 304 257 q 497 122 418 151 q 669 93 575 93 m 574 1051 l 542 1110 l 774 1256 l 831 1158 l 574 1051 z "},"Ợ":{"ha":1339,"x_min":131,"x_max":1208,"o":"m 669 -14 q 453 24 551 -14 q 282 129 354 63 q 170 287 210 196 q 131 483 131 378 q 170 681 131 590 q 282 839 210 771 q 453 944 354 907 q 669 982 551 982 q 722 981 696 982 q 771 975 747 979 q 828 966 801 969 q 883 963 856 963 q 981 981 942 963 q 1038 1035 1019 999 q 1057 1126 1057 1071 l 1153 1126 q 1139 1035 1153 1076 q 1097 964 1125 993 q 1028 917 1069 935 q 929 896 988 899 l 932 922 q 1079 817 1018 883 q 1174 667 1140 751 q 1208 483 1208 583 q 1169 287 1208 378 q 1056 128 1129 196 q 885 24 983 61 q 669 -14 788 -14 m 669 93 q 841 122 763 93 q 976 205 919 151 q 1065 329 1033 258 q 1096 483 1096 400 q 1064 639 1096 567 q 974 764 1032 711 q 839 847 917 817 q 669 876 761 876 q 497 847 575 876 q 361 765 418 817 q 274 640 304 713 q 243 483 243 568 q 274 328 243 400 q 361 204 304 257 q 497 122 418 151 q 669 93 575 93 m 671 -257 q 612 -236 632 -257 q 592 -182 592 -215 q 611 -128 592 -150 q 671 -106 631 -106 q 730 -126 710 -106 q 750 -182 750 -147 q 731 -235 750 -212 q 671 -257 711 -257 z "},"Ờ":{"ha":1339,"x_min":131,"x_max":1208,"o":"m 669 -14 q 453 24 551 -14 q 282 129 354 63 q 170 287 210 196 q 131 483 131 378 q 170 681 131 590 q 282 839 210 771 q 453 944 354 907 q 669 982 551 982 q 722 981 696 982 q 771 975 747 979 q 828 966 801 969 q 883 963 856 963 q 981 981 942 963 q 1038 1035 1019 999 q 1057 1126 1057 1071 l 1153 1126 q 1139 1035 1153 1076 q 1097 964 1125 993 q 1028 917 1069 935 q 929 896 988 899 l 932 922 q 1079 817 1018 883 q 1174 667 1140 751 q 1208 483 1208 583 q 1169 287 1208 378 q 1056 128 1129 196 q 885 24 983 61 q 669 -14 788 -14 m 669 93 q 841 122 763 93 q 976 205 919 151 q 1065 329 1033 258 q 1096 483 1096 400 q 1064 639 1096 567 q 974 764 1032 711 q 839 847 917 817 q 669 876 761 876 q 497 847 575 876 q 361 765 418 817 q 274 640 304 713 q 243 483 243 568 q 274 328 243 400 q 361 204 304 257 q 497 122 418 151 q 669 93 575 93 m 771 1051 l 515 1158 l 572 1256 l 804 1110 l 771 1051 z "},"Ở":{"ha":1339,"x_min":131,"x_max":1208,"o":"m 669 -14 q 453 24 551 -14 q 282 129 354 63 q 170 287 210 196 q 131 483 131 378 q 170 681 131 590 q 282 839 210 771 q 453 944 354 907 q 669 982 551 982 q 722 981 696 982 q 771 975 747 979 q 828 966 801 969 q 883 963 856 963 q 981 981 942 963 q 1038 1035 1019 999 q 1057 1126 1057 1071 l 1153 1126 q 1139 1035 1153 1076 q 1097 964 1125 993 q 1028 917 1069 935 q 929 896 988 899 l 932 922 q 1079 817 1018 883 q 1174 667 1140 751 q 1208 483 1208 583 q 1169 287 1208 378 q 1056 128 1129 196 q 885 24 983 61 q 669 -14 788 -14 m 669 93 q 841 122 763 93 q 976 205 919 151 q 1065 329 1033 258 q 1096 483 1096 400 q 1064 639 1096 567 q 974 764 1032 711 q 839 847 917 817 q 669 876 761 876 q 497 847 575 876 q 361 765 418 817 q 274 640 304 713 q 243 483 243 568 q 274 328 243 400 q 361 204 304 257 q 497 122 418 151 q 669 93 575 93 m 647 1060 q 636 1083 640 1071 q 632 1104 632 1094 q 639 1129 632 1115 q 668 1158 646 1143 q 702 1183 690 1174 q 714 1204 714 1193 q 698 1226 714 1219 q 658 1233 682 1233 q 611 1227 638 1233 q 560 1210 585 1221 l 539 1279 q 603 1302 569 1294 q 665 1310 638 1310 q 767 1281 733 1310 q 800 1213 800 1251 q 783 1163 800 1181 q 747 1133 767 1144 q 717 1114 728 1122 q 706 1090 706 1106 q 706 1084 706 1088 q 708 1075 707 1081 l 647 1060 z "},"Ỡ":{"ha":1339,"x_min":131,"x_max":1208,"o":"m 669 -14 q 453 24 551 -14 q 282 129 354 63 q 170 287 210 196 q 131 483 131 378 q 170 681 131 590 q 282 839 210 771 q 453 944 354 907 q 669 982 551 982 q 722 981 696 982 q 771 975 747 979 q 828 966 801 969 q 883 963 856 963 q 981 981 942 963 q 1038 1035 1019 999 q 1057 1126 1057 1071 l 1153 1126 q 1139 1035 1153 1076 q 1097 964 1125 993 q 1028 917 1069 935 q 929 896 988 899 l 932 922 q 1079 817 1018 883 q 1174 667 1140 751 q 1208 483 1208 583 q 1169 287 1208 378 q 1056 128 1129 196 q 885 24 983 61 q 669 -14 788 -14 m 669 93 q 841 122 763 93 q 976 205 919 151 q 1065 329 1033 258 q 1096 483 1096 400 q 1064 639 1096 567 q 974 764 1032 711 q 839 847 917 817 q 669 876 761 876 q 497 847 575 876 q 361 765 418 817 q 274 640 304 713 q 243 483 243 568 q 274 328 243 400 q 361 204 304 257 q 497 122 418 151 q 669 93 575 93 m 769 1075 q 708 1086 739 1075 q 646 1110 678 1097 q 610 1125 626 1118 q 578 1132 593 1132 q 544 1117 558 1132 q 531 1075 531 1103 l 446 1075 q 486 1178 446 1140 q 579 1215 526 1215 q 638 1205 610 1215 q 696 1181 665 1194 q 731 1167 713 1174 q 764 1160 750 1160 q 797 1174 783 1160 q 810 1214 811 1188 l 894 1214 q 878 1144 894 1175 q 835 1094 863 1113 q 769 1075 807 1075 z "},"Ő":{"ha":1339,"x_min":131,"x_max":1208,"o":"m 668 -14 q 453 24 551 -14 q 282 129 354 63 q 170 287 210 196 q 131 483 131 378 q 170 681 131 590 q 282 839 210 771 q 453 944 354 907 q 668 982 551 982 q 885 945 788 982 q 1056 840 983 908 q 1169 681 1129 772 q 1208 483 1208 590 q 1169 287 1208 378 q 1056 128 1129 196 q 885 23 983 60 q 668 -14 788 -14 m 669 93 q 841 122 763 93 q 976 205 919 151 q 1065 329 1033 258 q 1096 483 1096 400 q 1065 639 1096 567 q 976 764 1033 711 q 840 847 919 817 q 669 876 761 876 q 497 847 575 876 q 361 765 418 817 q 274 640 304 713 q 243 483 243 568 q 274 328 243 400 q 361 204 304 257 q 497 122 418 151 q 669 93 575 93 m 539 1047 l 501 1103 l 697 1268 l 767 1182 l 539 1047 m 781 1047 l 742 1103 l 939 1268 l 1007 1182 l 781 1047 z "},"Ȏ":{"ha":1339,"x_min":131,"x_max":1208,"o":"m 668 -14 q 453 24 551 -14 q 282 129 354 63 q 170 287 210 196 q 131 483 131 378 q 170 681 131 590 q 282 839 210 771 q 453 944 354 907 q 668 982 551 982 q 885 945 788 982 q 1056 840 983 908 q 1169 681 1129 772 q 1208 483 1208 590 q 1169 287 1208 378 q 1056 128 1129 196 q 885 23 983 60 q 668 -14 788 -14 m 669 93 q 841 122 763 93 q 976 205 919 151 q 1065 329 1033 258 q 1096 483 1096 400 q 1065 639 1096 567 q 976 764 1033 711 q 840 847 919 817 q 669 876 761 876 q 497 847 575 876 q 361 765 418 817 q 274 640 304 713 q 243 483 243 568 q 274 328 243 400 q 361 204 304 257 q 497 122 418 151 q 669 93 575 93 m 540 1050 l 460 1063 q 501 1153 472 1114 q 574 1216 531 1193 q 671 1239 618 1239 q 768 1216 725 1239 q 841 1153 811 1193 q 882 1063 871 1114 l 801 1050 q 751 1128 786 1101 q 671 1156 717 1156 q 590 1128 625 1156 q 540 1050 556 1101 z "},"Ō":{"ha":1339,"x_min":131,"x_max":1208,"o":"m 668 -14 q 453 24 551 -14 q 282 129 354 63 q 170 287 210 196 q 131 483 131 378 q 170 681 131 590 q 282 839 210 771 q 453 944 354 907 q 668 982 551 982 q 885 945 788 982 q 1056 840 983 908 q 1169 681 1129 772 q 1208 483 1208 590 q 1169 287 1208 378 q 1056 128 1129 196 q 885 23 983 60 q 668 -14 788 -14 m 669 93 q 841 122 763 93 q 976 205 919 151 q 1065 329 1033 258 q 1096 483 1096 400 q 1065 639 1096 567 q 976 764 1033 711 q 840 847 919 817 q 669 876 761 876 q 497 847 575 876 q 361 765 418 817 q 274 640 304 713 q 243 483 243 568 q 274 328 243 400 q 361 204 304 257 q 497 122 418 151 q 669 93 575 93 m 457 1103 l 457 1186 l 883 1186 l 883 1103 l 457 1103 z "},"Ṓ":{"ha":1339,"x_min":131,"x_max":1208,"o":"m 668 -14 q 453 24 551 -14 q 282 129 354 63 q 170 287 210 196 q 131 483 131 378 q 170 681 131 590 q 282 839 210 771 q 453 944 354 907 q 668 982 551 982 q 885 945 788 982 q 1056 840 983 908 q 1169 681 1129 772 q 1208 483 1208 590 q 1169 287 1208 378 q 1056 128 1129 196 q 885 23 983 60 q 668 -14 788 -14 m 669 93 q 841 122 763 93 q 976 205 919 151 q 1065 329 1033 258 q 1096 483 1096 400 q 1065 639 1096 567 q 976 764 1033 711 q 840 847 919 817 q 669 876 761 876 q 497 847 575 876 q 361 765 418 817 q 274 640 304 713 q 243 483 243 568 q 274 328 243 400 q 361 204 304 257 q 497 122 418 151 q 669 93 575 93 m 457 1103 l 457 1186 l 883 1186 l 883 1103 l 457 1103 m 574 1249 l 542 1307 l 774 1453 l 831 1356 l 574 1249 z "},"Ṑ":{"ha":1339,"x_min":131,"x_max":1208,"o":"m 668 -14 q 453 24 551 -14 q 282 129 354 63 q 170 287 210 196 q 131 483 131 378 q 170 681 131 590 q 282 839 210 771 q 453 944 354 907 q 668 982 551 982 q 885 945 788 982 q 1056 840 983 908 q 1169 681 1129 772 q 1208 483 1208 590 q 1169 287 1208 378 q 1056 128 1129 196 q 885 23 983 60 q 668 -14 788 -14 m 669 93 q 841 122 763 93 q 976 205 919 151 q 1065 329 1033 258 q 1096 483 1096 400 q 1065 639 1096 567 q 976 764 1033 711 q 840 847 919 817 q 669 876 761 876 q 497 847 575 876 q 361 765 418 817 q 274 640 304 713 q 243 483 243 568 q 274 328 243 400 q 361 204 304 257 q 497 122 418 151 q 669 93 575 93 m 457 1103 l 457 1186 l 883 1186 l 883 1103 l 457 1103 m 771 1249 l 515 1356 l 572 1453 l 804 1307 l 771 1249 z "},"Ǫ":{"ha":1339,"x_min":131,"x_max":1208,"o":"m 815 -293 q 705 -253 750 -293 q 660 -147 660 -212 q 683 -64 660 -101 q 745 6 707 -26 q 831 65 783 38 q 929 117 879 92 l 967 64 q 892 22 929 44 q 824 -24 856 0 q 774 -76 793 -49 q 756 -136 756 -104 q 776 -190 756 -171 q 828 -210 797 -210 q 871 -199 853 -210 q 903 -171 889 -187 l 964 -215 q 906 -270 944 -247 q 815 -293 867 -293 m 669 -14 q 453 24 551 -14 q 282 129 354 63 q 170 287 210 196 q 131 483 131 378 q 170 681 131 590 q 282 839 210 771 q 453 944 354 907 q 669 982 551 982 q 885 944 788 982 q 1056 840 983 907 q 1169 681 1129 772 q 1208 483 1208 590 q 1169 287 1208 378 q 1056 128 1129 196 q 885 24 983 61 q 669 -14 788 -14 m 669 93 q 841 122 763 93 q 976 205 919 151 q 1065 329 1033 258 q 1096 483 1096 400 q 1065 639 1096 567 q 976 764 1033 711 q 841 847 919 817 q 669 876 763 876 q 497 847 575 876 q 361 765 418 817 q 274 640 304 713 q 243 483 243 568 q 274 328 243 400 q 361 204 304 257 q 497 122 418 151 q 669 93 575 93 z "},"Ø":{"ha":1351,"x_min":138,"x_max":1215,"o":"m 211 -44 l 146 25 l 1136 1015 l 1206 949 l 211 -44 m 676 -14 q 459 24 557 -14 q 288 129 361 63 q 176 287 215 196 q 138 483 138 378 q 176 681 138 590 q 288 839 215 771 q 459 944 361 907 q 676 982 557 982 q 892 945 793 982 q 1063 840 990 908 q 1175 681 1135 772 q 1215 483 1215 590 q 1175 287 1215 378 q 1063 128 1135 196 q 892 23 990 60 q 676 -14 793 -14 m 675 93 q 847 122 769 93 q 983 205 925 151 q 1072 329 1040 258 q 1104 483 1104 400 q 1072 639 1104 567 q 983 764 1040 711 q 847 847 925 817 q 675 876 769 876 q 503 847 582 876 q 368 765 425 817 q 280 640 311 713 q 249 483 249 568 q 280 328 249 400 q 368 204 311 257 q 503 122 425 151 q 675 93 582 93 z "},"Ǿ":{"ha":1351,"x_min":138,"x_max":1215,"o":"m 211 -44 l 146 25 l 1136 1015 l 1206 949 l 211 -44 m 676 -14 q 459 24 557 -14 q 288 129 361 63 q 176 287 215 196 q 138 483 138 378 q 176 681 138 590 q 288 839 215 771 q 459 944 361 907 q 676 982 557 982 q 892 945 793 982 q 1063 840 990 908 q 1175 681 1135 772 q 1215 483 1215 590 q 1175 287 1215 378 q 1063 128 1135 196 q 892 23 990 60 q 676 -14 793 -14 m 675 93 q 847 122 769 93 q 983 205 925 151 q 1072 329 1040 258 q 1104 483 1104 400 q 1072 639 1104 567 q 983 764 1040 711 q 847 847 925 817 q 675 876 769 876 q 503 847 582 876 q 368 765 425 817 q 280 640 311 713 q 249 483 249 568 q 280 328 249 400 q 368 204 311 257 q 503 122 425 151 q 675 93 582 93 m 581 1051 l 549 1110 l 781 1256 l 838 1158 l 581 1051 z "},"Õ":{"ha":1339,"x_min":131,"x_max":1208,"o":"m 668 -14 q 453 24 551 -14 q 282 129 354 63 q 170 287 210 196 q 131 483 131 378 q 170 681 131 590 q 282 839 210 771 q 453 944 354 907 q 668 982 551 982 q 885 945 788 982 q 1056 840 983 908 q 1169 681 1129 772 q 1208 483 1208 590 q 1169 287 1208 378 q 1056 128 1129 196 q 885 23 983 60 q 668 -14 788 -14 m 669 93 q 841 122 763 93 q 976 205 919 151 q 1065 329 1033 258 q 1096 483 1096 400 q 1065 639 1096 567 q 976 764 1033 711 q 840 847 919 817 q 669 876 761 876 q 497 847 575 876 q 361 765 418 817 q 274 640 304 713 q 243 483 243 568 q 274 328 243 400 q 361 204 304 257 q 497 122 418 151 q 669 93 575 93 m 769 1075 q 708 1086 739 1075 q 646 1110 678 1097 q 610 1125 626 1118 q 578 1132 593 1132 q 544 1117 558 1132 q 531 1075 531 1103 l 446 1075 q 486 1178 446 1140 q 579 1215 526 1215 q 638 1205 610 1215 q 696 1181 665 1194 q 731 1167 713 1174 q 764 1160 750 1160 q 797 1174 783 1160 q 810 1214 811 1188 l 894 1214 q 878 1144 894 1175 q 835 1094 863 1113 q 769 1075 807 1075 z "},"Ṍ":{"ha":1339,"x_min":131,"x_max":1208,"o":"m 668 -14 q 453 24 551 -14 q 282 129 354 63 q 170 287 210 196 q 131 483 131 378 q 170 681 131 590 q 282 839 210 771 q 453 944 354 907 q 668 982 551 982 q 885 945 788 982 q 1056 840 983 908 q 1169 681 1129 772 q 1208 483 1208 590 q 1169 287 1208 378 q 1056 128 1129 196 q 885 23 983 60 q 668 -14 788 -14 m 669 93 q 841 122 763 93 q 976 205 919 151 q 1065 329 1033 258 q 1096 483 1096 400 q 1065 639 1096 567 q 976 764 1033 711 q 840 847 919 817 q 669 876 761 876 q 497 847 575 876 q 361 765 418 817 q 274 640 304 713 q 243 483 243 568 q 274 328 243 400 q 361 204 304 257 q 497 122 418 151 q 669 93 575 93 m 769 1075 q 708 1086 739 1075 q 646 1110 678 1097 q 610 1125 626 1118 q 578 1132 593 1132 q 544 1117 558 1132 q 531 1075 531 1103 l 446 1075 q 486 1178 446 1140 q 579 1215 526 1215 q 638 1205 610 1215 q 696 1181 665 1194 q 731 1167 713 1174 q 764 1160 750 1160 q 797 1174 783 1160 q 810 1214 811 1188 l 894 1214 q 878 1144 894 1175 q 835 1094 863 1113 q 769 1075 807 1075 m 574 1249 l 542 1307 l 774 1453 l 831 1356 l 574 1249 z "},"Ṏ":{"ha":1339,"x_min":131,"x_max":1208,"o":"m 668 -14 q 453 24 551 -14 q 282 129 354 63 q 170 287 210 196 q 131 483 131 378 q 170 681 131 590 q 282 839 210 771 q 453 944 354 907 q 668 982 551 982 q 885 945 788 982 q 1056 840 983 908 q 1169 681 1129 772 q 1208 483 1208 590 q 1169 287 1208 378 q 1056 128 1129 196 q 885 23 983 60 q 668 -14 788 -14 m 669 93 q 841 122 763 93 q 976 205 919 151 q 1065 329 1033 258 q 1096 483 1096 400 q 1065 639 1096 567 q 976 764 1033 711 q 840 847 919 817 q 669 876 761 876 q 497 847 575 876 q 361 765 418 817 q 274 640 304 713 q 243 483 243 568 q 274 328 243 400 q 361 204 304 257 q 497 122 418 151 q 669 93 575 93 m 769 1075 q 708 1086 739 1075 q 646 1110 678 1097 q 610 1125 626 1118 q 578 1132 593 1132 q 544 1117 558 1132 q 531 1075 531 1103 l 446 1075 q 486 1178 446 1140 q 579 1215 526 1215 q 638 1205 610 1215 q 696 1181 665 1194 q 731 1167 713 1174 q 764 1160 750 1160 q 797 1174 783 1160 q 810 1214 811 1188 l 894 1214 q 878 1144 894 1175 q 835 1094 863 1113 q 769 1075 807 1075 m 811 1265 q 752 1286 772 1265 q 732 1342 732 1307 q 752 1395 732 1372 q 811 1418 772 1418 q 872 1397 851 1418 q 892 1342 892 1376 q 872 1288 892 1311 q 811 1265 851 1265 m 531 1265 q 470 1286 490 1265 q 450 1342 450 1307 q 470 1395 450 1372 q 531 1418 490 1418 q 590 1397 569 1418 q 610 1342 610 1376 q 590 1288 610 1311 q 531 1265 569 1265 z "},"Ȭ":{"ha":1339,"x_min":131,"x_max":1208,"o":"m 668 -14 q 453 24 551 -14 q 282 129 354 63 q 170 287 210 196 q 131 483 131 378 q 170 681 131 590 q 282 839 210 771 q 453 944 354 907 q 668 982 551 982 q 885 945 788 982 q 1056 840 983 908 q 1169 681 1129 772 q 1208 483 1208 590 q 1169 287 1208 378 q 1056 128 1129 196 q 885 23 983 60 q 668 -14 788 -14 m 669 93 q 841 122 763 93 q 976 205 919 151 q 1065 329 1033 258 q 1096 483 1096 400 q 1065 639 1096 567 q 976 764 1033 711 q 840 847 919 817 q 669 876 761 876 q 497 847 575 876 q 361 765 418 817 q 274 640 304 713 q 243 483 243 568 q 274 328 243 400 q 361 204 304 257 q 497 122 418 151 q 669 93 575 93 m 769 1075 q 708 1086 739 1075 q 646 1110 678 1097 q 610 1125 626 1118 q 578 1132 593 1132 q 544 1117 558 1132 q 531 1075 531 1103 l 446 1075 q 486 1178 446 1140 q 579 1215 526 1215 q 638 1205 610 1215 q 696 1181 665 1194 q 731 1167 713 1174 q 764 1160 750 1160 q 797 1174 783 1160 q 810 1214 811 1188 l 894 1214 q 878 1144 894 1175 q 835 1094 863 1113 q 769 1075 807 1075 m 457 1300 l 457 1383 l 883 1383 l 883 1300 l 457 1300 z "},"Œ":{"ha":1760,"x_min":131,"x_max":1593,"o":"m 639 0 q 428 37 522 0 q 269 138 335 74 q 167 292 203 203 q 131 486 131 382 q 167 679 131 590 q 272 833 204 768 q 436 935 339 899 q 651 972 533 972 l 1593 972 l 1593 867 l 1004 867 l 1004 553 l 1515 553 l 1515 447 l 1004 447 l 1004 106 l 1590 106 l 1590 0 l 639 0 m 243 486 q 271 335 243 404 q 351 215 299 267 q 478 134 404 163 q 643 106 551 106 l 896 106 l 896 867 l 656 867 q 484 838 560 867 q 354 758 408 810 q 272 637 300 706 q 243 486 243 568 z "},"P":{"ha":1113,"x_min":208,"x_max":976,"o":"m 208 0 l 208 972 l 685 972 q 834 935 768 972 q 938 832 900 897 q 976 683 976 767 q 937 526 976 594 q 829 416 897 457 q 675 375 761 375 l 317 375 l 317 0 l 208 0 m 317 481 l 674 481 q 771 508 728 481 q 838 581 814 535 q 861 685 861 626 q 838 778 861 738 q 771 843 814 819 q 674 867 728 867 l 317 867 l 317 481 z "},"Þ":{"ha":1108,"x_min":208,"x_max":972,"o":"m 208 0 l 208 972 l 317 972 l 317 782 l 667 782 q 826 746 758 782 q 933 647 894 710 q 972 497 972 583 q 933 351 972 415 q 826 248 894 286 q 667 210 758 210 l 317 210 l 317 0 l 208 0 m 317 318 l 675 318 q 771 341 731 318 q 834 405 811 364 q 857 497 857 446 q 834 587 857 547 q 770 650 811 626 q 675 674 729 674 l 317 674 l 317 318 z "},"Q":{"ha":1339,"x_min":131,"x_max":1208,"o":"m 1026 -143 l 671 325 l 760 376 l 1114 -87 l 1026 -143 m 668 -14 q 453 24 551 -14 q 282 129 354 63 q 170 287 210 196 q 131 483 131 378 q 170 681 131 590 q 282 839 210 771 q 453 944 354 907 q 668 982 551 982 q 885 945 788 982 q 1056 840 983 908 q 1169 681 1129 772 q 1208 483 1208 590 q 1169 287 1208 378 q 1056 128 1129 196 q 885 23 983 60 q 668 -14 788 -14 m 669 93 q 841 122 763 93 q 976 205 919 151 q 1065 329 1033 258 q 1096 483 1096 400 q 1065 639 1096 567 q 976 764 1033 711 q 840 847 919 817 q 669 876 761 876 q 497 847 575 876 q 361 765 418 817 q 274 640 304 713 q 243 483 243 568 q 274 328 243 400 q 361 204 304 257 q 497 122 418 151 q 669 93 575 93 z "},"R":{"ha":1163,"x_min":208,"x_max":1032,"o":"m 208 0 l 208 972 l 675 972 q 831 933 761 972 q 942 826 900 893 q 983 676 983 760 q 941 523 983 590 q 826 417 899 456 q 665 379 754 379 l 317 379 l 317 0 l 208 0 m 900 0 l 608 428 l 715 463 l 1032 0 l 900 0 m 317 485 l 663 485 q 769 510 722 485 q 842 578 815 535 q 869 675 869 622 q 840 774 869 731 q 763 842 811 817 q 651 867 714 867 l 317 867 l 317 485 z "},"Ŕ":{"ha":1163,"x_min":208,"x_max":1032,"o":"m 208 0 l 208 972 l 675 972 q 831 933 761 972 q 942 826 900 893 q 983 676 983 760 q 941 523 983 590 q 826 417 899 456 q 665 379 754 379 l 317 379 l 317 0 l 208 0 m 900 0 l 608 428 l 715 463 l 1032 0 l 900 0 m 317 485 l 663 485 q 769 510 722 485 q 842 578 815 535 q 869 675 869 622 q 840 774 869 731 q 763 842 811 817 q 651 867 714 867 l 317 867 l 317 485 m 451 1046 l 419 1104 l 651 1250 l 708 1153 l 451 1046 z "},"Ř":{"ha":1163,"x_min":208,"x_max":1032,"o":"m 208 0 l 208 972 l 675 972 q 831 933 761 972 q 942 826 900 893 q 983 676 983 760 q 941 523 983 590 q 826 417 899 456 q 665 379 754 379 l 317 379 l 317 0 l 208 0 m 900 0 l 608 428 l 715 463 l 1032 0 l 900 0 m 317 485 l 663 485 q 769 510 722 485 q 842 578 815 535 q 869 675 869 622 q 840 774 869 731 q 763 842 811 817 q 651 867 714 867 l 317 867 l 317 485 m 496 1053 l 338 1186 l 383 1226 l 568 1122 l 526 1122 l 711 1226 l 757 1186 l 599 1053 l 496 1053 z "},"Ŗ":{"ha":1163,"x_min":208,"x_max":1032,"o":"m 208 0 l 208 972 l 675 972 q 831 933 761 972 q 942 826 900 893 q 983 676 983 760 q 941 523 983 590 q 826 417 899 456 q 665 379 754 379 l 317 379 l 317 0 l 208 0 m 900 0 l 608 428 l 715 463 l 1032 0 l 900 0 m 317 485 l 663 485 q 769 510 722 485 q 842 578 815 535 q 869 675 869 622 q 840 774 869 731 q 763 842 811 817 q 651 867 714 867 l 317 867 l 317 485 m 519 -328 l 489 -282 q 525 -262 510 -274 q 549 -237 540 -250 q 558 -212 558 -225 q 550 -193 558 -199 q 529 -183 542 -187 q 505 -167 515 -179 q 494 -135 494 -156 q 515 -94 494 -110 q 564 -78 535 -78 q 631 -103 603 -78 q 658 -174 658 -128 q 647 -225 658 -201 q 615 -267 635 -249 q 570 -300 594 -285 q 519 -328 546 -315 z "},"Ȑ":{"ha":1163,"x_min":208,"x_max":1032,"o":"m 208 0 l 208 972 l 675 972 q 831 933 761 972 q 942 826 900 893 q 983 676 983 760 q 941 523 983 590 q 826 417 899 456 q 665 379 754 379 l 317 379 l 317 0 l 208 0 m 900 0 l 608 428 l 715 463 l 1032 0 l 900 0 m 317 485 l 663 485 q 769 510 722 485 q 842 578 815 535 q 869 675 869 622 q 840 774 869 731 q 763 842 811 817 q 651 867 714 867 l 317 867 l 317 485 m 678 1035 l 457 1181 l 532 1267 l 721 1092 l 678 1035 m 433 1035 l 213 1181 l 289 1267 l 476 1092 l 433 1035 z "},"Ṛ":{"ha":1163,"x_min":208,"x_max":1032,"o":"m 208 0 l 208 972 l 675 972 q 831 933 761 972 q 942 826 900 893 q 983 676 983 760 q 941 523 983 590 q 826 417 899 456 q 665 379 754 379 l 317 379 l 317 0 l 208 0 m 900 0 l 608 428 l 715 463 l 1032 0 l 900 0 m 317 485 l 663 485 q 769 510 722 485 q 842 578 815 535 q 869 675 869 622 q 840 774 869 731 q 763 842 811 817 q 651 867 714 867 l 317 867 l 317 485 m 574 -257 q 515 -236 535 -257 q 494 -182 494 -215 q 514 -128 494 -150 q 574 -106 533 -106 q 633 -126 613 -106 q 653 -182 653 -147 q 633 -235 653 -212 q 574 -257 614 -257 z "},"Ȓ":{"ha":1163,"x_min":208,"x_max":1032,"o":"m 208 0 l 208 972 l 675 972 q 831 933 761 972 q 942 826 900 893 q 983 676 983 760 q 941 523 983 590 q 826 417 899 456 q 665 379 754 379 l 317 379 l 317 0 l 208 0 m 900 0 l 608 428 l 715 463 l 1032 0 l 900 0 m 317 485 l 663 485 q 769 510 722 485 q 842 578 815 535 q 869 675 869 622 q 840 774 869 731 q 763 842 811 817 q 651 867 714 867 l 317 867 l 317 485 m 417 1044 l 336 1057 q 378 1148 349 1108 q 451 1210 407 1188 q 547 1233 494 1233 q 644 1210 601 1233 q 717 1148 688 1188 q 758 1057 747 1108 l 678 1044 q 628 1123 663 1096 q 547 1150 593 1150 q 467 1123 501 1150 q 417 1044 432 1096 z "},"Ṟ":{"ha":1163,"x_min":208,"x_max":1032,"o":"m 208 0 l 208 972 l 675 972 q 831 933 761 972 q 942 826 900 893 q 983 676 983 760 q 941 523 983 590 q 826 417 899 456 q 665 379 754 379 l 317 379 l 317 0 l 208 0 m 900 0 l 608 428 l 715 463 l 1032 0 l 900 0 m 317 485 l 663 485 q 769 510 722 485 q 842 578 815 535 q 869 675 869 622 q 840 774 869 731 q 763 842 811 817 q 651 867 714 867 l 317 867 l 317 485 m 382 -224 l 382 -139 l 767 -139 l 767 -224 l 382 -224 z "},"S":{"ha":1086,"x_min":133,"x_max":954,"o":"m 551 -14 q 389 7 465 -14 q 248 69 313 28 q 133 172 183 110 l 203 260 q 367 127 281 167 q 556 88 453 88 q 699 109 635 88 q 803 172 764 131 q 842 265 842 213 q 822 330 842 304 q 772 374 803 356 q 701 403 740 392 q 619 424 661 415 q 539 439 578 432 q 394 474 460 454 q 281 524 329 493 q 206 600 232 556 q 181 710 181 644 q 208 823 181 772 q 287 910 236 874 q 406 964 338 946 q 553 982 474 982 q 708 962 639 982 q 831 903 776 942 q 925 810 886 865 l 851 732 q 769 813 815 779 q 668 864 722 846 q 551 882 614 882 q 419 861 476 882 q 328 804 363 840 q 293 718 293 768 q 314 647 293 676 q 373 599 335 618 q 465 567 411 581 q 585 543 518 554 q 724 513 657 531 q 843 465 790 494 q 925 392 896 436 q 954 279 954 347 q 904 126 954 193 q 765 23 854 60 q 551 -14 675 -14 z "},"Ś":{"ha":1086,"x_min":133,"x_max":954,"o":"m 551 -14 q 389 7 465 -14 q 248 69 313 28 q 133 172 183 110 l 203 260 q 367 127 281 167 q 556 88 453 88 q 699 109 635 88 q 803 172 764 131 q 842 265 842 213 q 822 330 842 304 q 772 374 803 356 q 701 403 740 392 q 619 424 661 415 q 539 439 578 432 q 394 474 460 454 q 281 524 329 493 q 206 600 232 556 q 181 710 181 644 q 208 823 181 772 q 287 910 236 874 q 406 964 338 946 q 553 982 474 982 q 708 962 639 982 q 831 903 776 942 q 925 810 886 865 l 851 732 q 769 813 815 779 q 668 864 722 846 q 551 882 614 882 q 419 861 476 882 q 328 804 363 840 q 293 718 293 768 q 314 647 293 676 q 373 599 335 618 q 465 567 411 581 q 585 543 518 554 q 724 513 657 531 q 843 465 790 494 q 925 392 896 436 q 954 279 954 347 q 904 126 954 193 q 765 23 854 60 q 551 -14 675 -14 m 468 1051 l 436 1110 l 668 1256 l 725 1158 l 468 1051 z "},"Ṥ":{"ha":1086,"x_min":133,"x_max":954,"o":"m 551 -14 q 389 7 465 -14 q 248 69 313 28 q 133 172 183 110 l 203 260 q 367 127 281 167 q 556 88 453 88 q 699 109 635 88 q 803 172 764 131 q 842 265 842 213 q 822 330 842 304 q 772 374 803 356 q 701 403 740 392 q 619 424 661 415 q 539 439 578 432 q 394 474 460 454 q 281 524 329 493 q 206 600 232 556 q 181 710 181 644 q 208 823 181 772 q 287 910 236 874 q 406 964 338 946 q 553 982 474 982 q 708 962 639 982 q 831 903 776 942 q 925 810 886 865 l 851 732 q 769 813 815 779 q 668 864 722 846 q 551 882 614 882 q 419 861 476 882 q 328 804 363 840 q 293 718 293 768 q 314 647 293 676 q 373 599 335 618 q 465 567 411 581 q 585 543 518 554 q 724 513 657 531 q 843 465 790 494 q 925 392 896 436 q 954 279 954 347 q 904 126 954 193 q 765 23 854 60 q 551 -14 675 -14 m 638 1047 l 581 1086 l 697 1271 l 782 1211 l 638 1047 m 454 1056 q 396 1075 417 1056 q 375 1131 375 1094 q 396 1186 375 1165 q 454 1207 417 1207 q 513 1187 492 1207 q 533 1131 533 1167 q 513 1076 533 1097 q 454 1056 492 1056 z "},"Š":{"ha":1086,"x_min":133,"x_max":954,"o":"m 551 -14 q 389 7 465 -14 q 248 69 313 28 q 133 172 183 110 l 203 260 q 367 127 281 167 q 556 88 453 88 q 699 109 635 88 q 803 172 764 131 q 842 265 842 213 q 822 330 842 304 q 772 374 803 356 q 701 403 740 392 q 619 424 661 415 q 539 439 578 432 q 394 474 460 454 q 281 524 329 493 q 206 600 232 556 q 181 710 181 644 q 208 823 181 772 q 287 910 236 874 q 406 964 338 946 q 553 982 474 982 q 708 962 639 982 q 831 903 776 942 q 925 810 886 865 l 851 732 q 769 813 815 779 q 668 864 722 846 q 551 882 614 882 q 419 861 476 882 q 328 804 363 840 q 293 718 293 768 q 314 647 293 676 q 373 599 335 618 q 465 567 411 581 q 585 543 518 554 q 724 513 657 531 q 843 465 790 494 q 925 392 896 436 q 954 279 954 347 q 904 126 954 193 q 765 23 854 60 q 551 -14 675 -14 m 513 1058 l 354 1192 l 400 1232 l 585 1128 l 543 1128 l 728 1232 l 774 1192 l 615 1058 l 513 1058 z "},"Ṧ":{"ha":1086,"x_min":133,"x_max":954,"o":"m 551 -14 q 389 7 465 -14 q 248 69 313 28 q 133 172 183 110 l 203 260 q 367 127 281 167 q 556 88 453 88 q 699 109 635 88 q 803 172 764 131 q 842 265 842 213 q 822 330 842 304 q 772 374 803 356 q 701 403 740 392 q 619 424 661 415 q 539 439 578 432 q 394 474 460 454 q 281 524 329 493 q 206 600 232 556 q 181 710 181 644 q 208 823 181 772 q 287 910 236 874 q 406 964 338 946 q 553 982 474 982 q 708 962 639 982 q 831 903 776 942 q 925 810 886 865 l 851 732 q 769 813 815 779 q 668 864 722 846 q 551 882 614 882 q 419 861 476 882 q 328 804 363 840 q 293 718 293 768 q 314 647 293 676 q 373 599 335 618 q 465 567 411 581 q 585 543 518 554 q 724 513 657 531 q 843 465 790 494 q 925 392 896 436 q 954 279 954 347 q 904 126 954 193 q 765 23 854 60 q 551 -14 675 -14 m 513 1058 l 354 1192 l 400 1232 l 585 1128 l 543 1128 l 728 1232 l 774 1192 l 615 1058 l 513 1058 m 564 1265 q 505 1286 525 1265 q 485 1342 485 1307 q 505 1395 485 1372 q 564 1418 525 1418 q 623 1397 603 1418 q 643 1342 643 1376 q 623 1288 643 1311 q 564 1265 603 1265 z "},"Ş":{"ha":1086,"x_min":133,"x_max":954,"o":"m 551 -14 q 389 7 465 -14 q 248 69 313 28 q 133 172 183 110 l 203 260 q 367 127 281 167 q 556 88 453 88 q 699 109 635 88 q 803 172 764 131 q 842 265 842 213 q 822 330 842 304 q 772 374 803 356 q 701 403 740 392 q 619 424 661 415 q 539 439 578 432 q 394 474 460 454 q 281 524 329 493 q 206 600 232 556 q 181 710 181 644 q 208 823 181 772 q 287 910 236 874 q 406 964 338 946 q 553 982 474 982 q 708 962 639 982 q 831 903 776 942 q 925 810 886 865 l 851 732 q 769 813 815 779 q 668 864 722 846 q 551 882 614 882 q 419 861 476 882 q 328 804 363 840 q 293 718 293 768 q 314 647 293 676 q 373 599 335 618 q 465 567 411 581 q 585 543 518 554 q 724 513 657 531 q 843 465 790 494 q 925 392 896 436 q 954 279 954 347 q 904 126 954 193 q 765 23 854 60 q 551 -14 675 -14 m 468 -329 l 457 -271 q 538 -261 500 -269 q 599 -236 575 -253 q 622 -197 622 -219 q 601 -162 622 -176 q 549 -142 581 -149 q 490 -136 518 -136 l 475 -114 l 565 21 l 636 21 l 575 -74 q 672 -112 633 -85 q 710 -190 710 -140 q 688 -255 710 -228 q 628 -299 665 -282 q 549 -323 592 -315 q 468 -329 507 -331 z "},"Ŝ":{"ha":1086,"x_min":133,"x_max":954,"o":"m 551 -14 q 389 7 465 -14 q 248 69 313 28 q 133 172 183 110 l 203 260 q 367 127 281 167 q 556 88 453 88 q 699 109 635 88 q 803 172 764 131 q 842 265 842 213 q 822 330 842 304 q 772 374 803 356 q 701 403 740 392 q 619 424 661 415 q 539 439 578 432 q 394 474 460 454 q 281 524 329 493 q 206 600 232 556 q 181 710 181 644 q 208 823 181 772 q 287 910 236 874 q 406 964 338 946 q 553 982 474 982 q 708 962 639 982 q 831 903 776 942 q 925 810 886 865 l 851 732 q 769 813 815 779 q 668 864 722 846 q 551 882 614 882 q 419 861 476 882 q 328 804 363 840 q 293 718 293 768 q 314 647 293 676 q 373 599 335 618 q 465 567 411 581 q 585 543 518 554 q 724 513 657 531 q 843 465 790 494 q 925 392 896 436 q 954 279 954 347 q 904 126 954 193 q 765 23 854 60 q 551 -14 675 -14 m 393 1056 l 347 1097 l 517 1231 l 610 1231 l 778 1097 l 733 1056 l 542 1161 l 583 1161 l 393 1056 z "},"Ș":{"ha":1086,"x_min":133,"x_max":954,"o":"m 551 -14 q 389 7 465 -14 q 248 69 313 28 q 133 172 183 110 l 203 260 q 367 127 281 167 q 556 88 453 88 q 699 109 635 88 q 803 172 764 131 q 842 265 842 213 q 822 330 842 304 q 772 374 803 356 q 701 403 740 392 q 619 424 661 415 q 539 439 578 432 q 394 474 460 454 q 281 524 329 493 q 206 600 232 556 q 181 710 181 644 q 208 823 181 772 q 287 910 236 874 q 406 964 338 946 q 553 982 474 982 q 708 962 639 982 q 831 903 776 942 q 925 810 886 865 l 851 732 q 769 813 815 779 q 668 864 722 846 q 551 882 614 882 q 419 861 476 882 q 328 804 363 840 q 293 718 293 768 q 314 647 293 676 q 373 599 335 618 q 465 567 411 581 q 585 543 518 554 q 724 513 657 531 q 843 465 790 494 q 925 392 896 436 q 954 279 954 347 q 904 126 954 193 q 765 23 854 60 q 551 -14 675 -14 m 535 -328 l 504 -282 q 540 -262 525 -274 q 565 -237 556 -250 q 574 -212 574 -225 q 565 -193 574 -199 q 544 -183 557 -187 q 520 -167 531 -179 q 510 -135 510 -156 q 530 -94 510 -110 q 579 -78 550 -78 q 646 -103 618 -78 q 674 -174 674 -128 q 662 -225 674 -201 q 630 -267 650 -249 q 585 -300 610 -285 q 535 -328 561 -315 z "},"Ṡ":{"ha":1086,"x_min":133,"x_max":954,"o":"m 551 -14 q 389 7 465 -14 q 248 69 313 28 q 133 172 183 110 l 203 260 q 367 127 281 167 q 556 88 453 88 q 699 109 635 88 q 803 172 764 131 q 842 265 842 213 q 822 330 842 304 q 772 374 803 356 q 701 403 740 392 q 619 424 661 415 q 539 439 578 432 q 394 474 460 454 q 281 524 329 493 q 206 600 232 556 q 181 710 181 644 q 208 823 181 772 q 287 910 236 874 q 406 964 338 946 q 553 982 474 982 q 708 962 639 982 q 831 903 776 942 q 925 810 886 865 l 851 732 q 769 813 815 779 q 668 864 722 846 q 551 882 614 882 q 419 861 476 882 q 328 804 363 840 q 293 718 293 768 q 314 647 293 676 q 373 599 335 618 q 465 567 411 581 q 585 543 518 554 q 724 513 657 531 q 843 465 790 494 q 925 392 896 436 q 954 279 954 347 q 904 126 954 193 q 765 23 854 60 q 551 -14 675 -14 m 564 1068 q 505 1089 525 1068 q 485 1144 485 1110 q 505 1198 485 1175 q 564 1221 525 1221 q 623 1200 603 1221 q 643 1144 643 1179 q 623 1091 643 1114 q 564 1068 603 1068 z "},"Ṣ":{"ha":1086,"x_min":133,"x_max":954,"o":"m 551 -14 q 389 7 465 -14 q 248 69 313 28 q 133 172 183 110 l 203 260 q 367 127 281 167 q 556 88 453 88 q 699 109 635 88 q 803 172 764 131 q 842 265 842 213 q 822 330 842 304 q 772 374 803 356 q 701 403 740 392 q 619 424 661 415 q 539 439 578 432 q 394 474 460 454 q 281 524 329 493 q 206 600 232 556 q 181 710 181 644 q 208 823 181 772 q 287 910 236 874 q 406 964 338 946 q 553 982 474 982 q 708 962 639 982 q 831 903 776 942 q 925 810 886 865 l 851 732 q 769 813 815 779 q 668 864 722 846 q 551 882 614 882 q 419 861 476 882 q 328 804 363 840 q 293 718 293 768 q 314 647 293 676 q 373 599 335 618 q 465 567 411 581 q 585 543 518 554 q 724 513 657 531 q 843 465 790 494 q 925 392 896 436 q 954 279 954 347 q 904 126 954 193 q 765 23 854 60 q 551 -14 675 -14 m 589 -257 q 530 -236 550 -257 q 510 -182 510 -215 q 529 -128 510 -150 q 589 -106 549 -106 q 648 -126 628 -106 q 668 -182 668 -147 q 649 -235 668 -212 q 589 -257 629 -257 z "},"Ṩ":{"ha":1086,"x_min":133,"x_max":954,"o":"m 551 -14 q 389 7 465 -14 q 248 69 313 28 q 133 172 183 110 l 203 260 q 367 127 281 167 q 556 88 453 88 q 699 109 635 88 q 803 172 764 131 q 842 265 842 213 q 822 330 842 304 q 772 374 803 356 q 701 403 740 392 q 619 424 661 415 q 539 439 578 432 q 394 474 460 454 q 281 524 329 493 q 206 600 232 556 q 181 710 181 644 q 208 823 181 772 q 287 910 236 874 q 406 964 338 946 q 553 982 474 982 q 708 962 639 982 q 831 903 776 942 q 925 810 886 865 l 851 732 q 769 813 815 779 q 668 864 722 846 q 551 882 614 882 q 419 861 476 882 q 328 804 363 840 q 293 718 293 768 q 314 647 293 676 q 373 599 335 618 q 465 567 411 581 q 585 543 518 554 q 724 513 657 531 q 843 465 790 494 q 925 392 896 436 q 954 279 954 347 q 904 126 954 193 q 765 23 854 60 q 551 -14 675 -14 m 589 -257 q 530 -236 550 -257 q 510 -182 510 -215 q 529 -128 510 -150 q 589 -106 549 -106 q 648 -126 628 -106 q 668 -182 668 -147 q 649 -235 668 -212 q 589 -257 629 -257 m 564 1068 q 505 1089 525 1068 q 485 1144 485 1110 q 505 1198 485 1175 q 564 1221 525 1221 q 623 1200 603 1221 q 643 1144 643 1179 q 623 1091 643 1114 q 564 1068 603 1068 z "},"ẞ":{"ha":1303,"x_min":208,"x_max":1171,"o":"m 851 -14 q 728 1 788 -14 q 617 44 668 17 q 525 110 567 72 l 593 193 q 713 117 647 146 q 851 88 778 88 q 1005 129 946 88 q 1064 246 1064 171 q 1035 324 1064 293 q 953 383 1007 356 q 824 442 900 410 q 722 495 765 464 q 653 569 678 526 q 629 665 629 613 q 654 761 629 718 q 723 834 679 804 q 826 881 767 864 q 956 900 886 897 l 971 856 q 858 888 919 878 q 722 897 796 897 q 560 868 635 896 q 432 783 485 840 q 349 640 379 725 q 318 436 319 554 l 317 0 l 208 0 l 210 436 q 270 744 210 619 q 446 931 331 868 q 725 993 561 993 q 888 979 810 993 q 1057 933 965 965 l 1065 851 q 890 816 963 838 q 778 762 817 794 q 739 678 739 729 q 757 621 739 647 q 813 573 775 594 q 906 529 850 551 q 1045 465 986 500 q 1138 381 1104 431 q 1171 250 1171 331 q 1130 115 1171 175 q 1017 20 1089 54 q 851 -14 946 -14 z "},"Ə":{"ha":1231,"x_min":131,"x_max":1100,"o":"m 611 -14 q 430 21 515 -14 q 278 117 344 56 q 172 265 211 179 q 131 454 132 351 l 131 532 l 1035 532 l 1042 431 l 242 431 q 280 297 249 360 q 362 188 311 235 q 476 114 413 140 q 613 88 540 88 q 758 117 689 88 q 878 200 826 146 q 960 326 929 254 q 990 486 990 399 q 960 651 990 578 q 876 775 929 724 q 753 854 824 826 q 601 882 682 882 q 488 869 542 882 q 385 828 433 856 q 296 760 338 801 l 226 829 q 333 915 275 881 q 458 966 390 950 q 603 982 525 982 q 797 944 707 982 q 956 839 888 907 q 1062 680 1024 771 q 1100 483 1100 589 q 1063 289 1100 379 q 958 131 1025 199 q 801 24 890 63 q 611 -14 713 -14 z "},"T":{"ha":967,"x_min":92,"x_max":876,"o":"m 425 0 l 425 867 l 92 867 l 92 972 l 876 972 l 876 867 l 533 867 l 533 0 l 425 0 z "},"Ŧ":{"ha":967,"x_min":92,"x_max":876,"o":"m 243 443 l 243 532 l 725 532 l 725 443 l 243 443 m 425 0 l 425 867 l 92 867 l 92 972 l 876 972 l 876 867 l 533 867 l 533 0 l 425 0 z "},"Ť":{"ha":967,"x_min":92,"x_max":876,"o":"m 425 0 l 425 867 l 92 867 l 92 972 l 876 972 l 876 867 l 533 867 l 533 0 l 425 0 m 433 1058 l 275 1192 l 321 1232 l 506 1128 l 464 1128 l 649 1232 l 694 1192 l 536 1058 l 433 1058 z "},"Ţ":{"ha":967,"x_min":92,"x_max":876,"o":"m 425 0 l 425 867 l 92 867 l 92 972 l 876 972 l 876 867 l 533 867 l 533 0 l 425 0 m 360 -329 l 349 -271 q 429 -261 392 -269 q 490 -236 467 -253 q 514 -197 514 -219 q 493 -162 514 -176 q 441 -142 472 -149 q 382 -136 410 -136 l 367 -114 l 457 21 l 528 21 l 467 -74 q 563 -112 525 -85 q 601 -190 601 -140 q 579 -255 601 -228 q 520 -299 557 -282 q 441 -323 483 -315 q 360 -329 399 -331 z "},"Ț":{"ha":967,"x_min":92,"x_max":876,"o":"m 425 0 l 425 867 l 92 867 l 92 972 l 876 972 l 876 867 l 533 867 l 533 0 l 425 0 m 426 -328 l 396 -282 q 432 -262 417 -274 q 456 -237 447 -250 q 465 -212 465 -225 q 457 -193 465 -199 q 436 -183 449 -187 q 412 -167 422 -179 q 401 -135 401 -156 q 422 -94 401 -110 q 471 -78 442 -78 q 538 -103 510 -78 q 565 -174 565 -128 q 553 -225 565 -201 q 522 -267 542 -249 q 477 -300 501 -285 q 426 -328 453 -315 z "},"Ṭ":{"ha":967,"x_min":92,"x_max":876,"o":"m 425 0 l 425 867 l 92 867 l 92 972 l 876 972 l 876 867 l 533 867 l 533 0 l 425 0 m 481 -257 q 422 -236 442 -257 q 401 -182 401 -215 q 421 -128 401 -150 q 481 -106 440 -106 q 540 -126 519 -106 q 560 -182 560 -147 q 540 -235 560 -212 q 481 -257 521 -257 z "},"Ṯ":{"ha":967,"x_min":92,"x_max":876,"o":"m 425 0 l 425 867 l 92 867 l 92 972 l 876 972 l 876 867 l 533 867 l 533 0 l 425 0 m 289 -224 l 289 -139 l 674 -139 l 674 -224 l 289 -224 z "},"U":{"ha":1274,"x_min":200,"x_max":1072,"o":"m 635 -10 q 408 47 506 -10 q 255 201 310 103 q 200 425 200 300 l 200 972 l 308 972 l 308 432 q 351 259 308 335 q 469 141 394 183 q 635 99 543 99 q 808 141 732 99 q 926 259 883 183 q 968 432 968 335 l 968 972 l 1072 972 l 1072 424 q 1017 201 1072 300 q 864 47 963 103 q 635 -10 765 -10 z "},"Ú":{"ha":1274,"x_min":200,"x_max":1072,"o":"m 635 -10 q 408 47 506 -10 q 255 201 310 103 q 200 425 200 300 l 200 972 l 308 972 l 308 432 q 351 259 308 335 q 469 141 394 183 q 635 99 543 99 q 808 141 732 99 q 926 259 883 183 q 968 432 968 335 l 968 972 l 1072 972 l 1072 424 q 1017 201 1072 300 q 864 47 963 103 q 635 -10 765 -10 m 542 1051 l 510 1110 l 742 1256 l 799 1158 l 542 1051 z "},"Ŭ":{"ha":1274,"x_min":200,"x_max":1072,"o":"m 635 -10 q 408 47 506 -10 q 255 201 310 103 q 200 425 200 300 l 200 972 l 308 972 l 308 432 q 351 259 308 335 q 469 141 394 183 q 635 99 543 99 q 808 141 732 99 q 926 259 883 183 q 968 432 968 335 l 968 972 l 1072 972 l 1072 424 q 1017 201 1072 300 q 864 47 963 103 q 635 -10 765 -10 m 638 1050 q 541 1074 585 1050 q 468 1137 497 1097 q 426 1228 439 1176 l 507 1239 q 557 1160 522 1188 q 638 1133 592 1133 q 718 1160 683 1133 q 768 1239 753 1188 l 849 1228 q 808 1137 838 1176 q 735 1074 778 1097 q 638 1050 692 1050 z "},"Ǔ":{"ha":1274,"x_min":200,"x_max":1072,"o":"m 635 -10 q 408 47 506 -10 q 255 201 310 103 q 200 425 200 300 l 200 972 l 308 972 l 308 432 q 351 259 308 335 q 469 141 394 183 q 635 99 543 99 q 808 141 732 99 q 926 259 883 183 q 968 432 968 335 l 968 972 l 1072 972 l 1072 424 q 1017 201 1072 300 q 864 47 963 103 q 635 -10 765 -10 m 586 1058 l 428 1192 l 474 1232 l 658 1128 l 617 1128 l 801 1232 l 847 1192 l 689 1058 l 586 1058 z "},"Û":{"ha":1274,"x_min":200,"x_max":1072,"o":"m 635 -10 q 408 47 506 -10 q 255 201 310 103 q 200 425 200 300 l 200 972 l 308 972 l 308 432 q 351 259 308 335 q 469 141 394 183 q 635 99 543 99 q 808 141 732 99 q 926 259 883 183 q 968 432 968 335 l 968 972 l 1072 972 l 1072 424 q 1017 201 1072 300 q 864 47 963 103 q 635 -10 765 -10 m 467 1056 l 421 1097 l 590 1231 l 683 1231 l 851 1097 l 807 1056 l 615 1161 l 657 1161 l 467 1056 z "},"Ȕ":{"ha":1274,"x_min":200,"x_max":1072,"o":"m 635 -10 q 408 47 506 -10 q 255 201 310 103 q 200 425 200 300 l 200 972 l 308 972 l 308 432 q 351 259 308 335 q 469 141 394 183 q 635 99 543 99 q 808 141 732 99 q 926 259 883 183 q 968 432 968 335 l 968 972 l 1072 972 l 1072 424 q 1017 201 1072 300 q 864 47 963 103 q 635 -10 765 -10 m 768 1040 l 547 1186 l 622 1272 l 811 1097 l 768 1040 m 524 1040 l 303 1186 l 379 1272 l 567 1097 l 524 1040 z "},"Ü":{"ha":1274,"x_min":200,"x_max":1072,"o":"m 635 -10 q 408 47 506 -10 q 255 201 310 103 q 200 425 200 300 l 200 972 l 308 972 l 308 432 q 351 259 308 335 q 469 141 394 183 q 635 99 543 99 q 808 141 732 99 q 926 259 883 183 q 968 432 968 335 l 968 972 l 1072 972 l 1072 424 q 1017 201 1072 300 q 864 47 963 103 q 635 -10 765 -10 m 778 1068 q 719 1089 739 1068 q 699 1144 699 1110 q 719 1198 699 1175 q 778 1221 739 1221 q 838 1200 818 1221 q 858 1144 858 1179 q 838 1091 858 1114 q 778 1068 818 1068 m 497 1068 q 437 1089 457 1068 q 417 1144 417 1110 q 437 1198 417 1175 q 497 1221 457 1221 q 556 1200 536 1221 q 576 1144 576 1179 q 556 1091 576 1114 q 497 1068 536 1068 z "},"Ụ":{"ha":1274,"x_min":200,"x_max":1072,"o":"m 635 -10 q 408 47 506 -10 q 255 201 310 103 q 200 425 200 300 l 200 972 l 308 972 l 308 432 q 351 259 308 335 q 469 141 394 183 q 635 99 543 99 q 808 141 732 99 q 926 259 883 183 q 968 432 968 335 l 968 972 l 1072 972 l 1072 424 q 1017 201 1072 300 q 864 47 963 103 q 635 -10 765 -10 m 638 -257 q 578 -236 599 -257 q 558 -182 558 -215 q 578 -128 558 -150 q 638 -106 597 -106 q 697 -126 676 -106 q 717 -182 717 -147 q 697 -235 717 -212 q 638 -257 678 -257 z "},"Ù":{"ha":1274,"x_min":200,"x_max":1072,"o":"m 635 -10 q 408 47 506 -10 q 255 201 310 103 q 200 425 200 300 l 200 972 l 308 972 l 308 432 q 351 259 308 335 q 469 141 394 183 q 635 99 543 99 q 808 141 732 99 q 926 259 883 183 q 968 432 968 335 l 968 972 l 1072 972 l 1072 424 q 1017 201 1072 300 q 864 47 963 103 q 635 -10 765 -10 m 739 1051 l 483 1158 l 540 1256 l 772 1110 l 739 1051 z "},"Ủ":{"ha":1274,"x_min":200,"x_max":1072,"o":"m 635 -10 q 408 47 506 -10 q 255 201 310 103 q 200 425 200 300 l 200 972 l 308 972 l 308 432 q 351 259 308 335 q 469 141 394 183 q 635 99 543 99 q 808 141 732 99 q 926 259 883 183 q 968 432 968 335 l 968 972 l 1072 972 l 1072 424 q 1017 201 1072 300 q 864 47 963 103 q 635 -10 765 -10 m 614 1060 q 603 1083 607 1071 q 599 1104 599 1094 q 606 1129 599 1115 q 635 1158 613 1143 q 669 1183 657 1174 q 681 1204 681 1193 q 665 1226 681 1219 q 625 1233 649 1233 q 578 1227 604 1233 q 526 1210 551 1221 l 506 1279 q 570 1302 536 1294 q 632 1310 604 1310 q 733 1281 700 1310 q 767 1213 767 1251 q 750 1163 767 1181 q 714 1133 733 1144 q 683 1114 694 1122 q 672 1090 672 1106 q 673 1084 672 1088 q 675 1075 674 1081 l 614 1060 z "},"Ư":{"ha":1254,"x_min":200,"x_max":1231,"o":"m 635 -10 q 408 47 506 -10 q 255 201 310 103 q 200 425 200 300 l 200 972 l 308 972 l 308 432 q 351 259 308 335 q 469 141 394 183 q 635 99 543 99 q 808 141 732 99 q 926 259 883 183 q 968 432 968 335 l 968 972 l 992 972 q 1102 1013 1069 972 q 1135 1128 1135 1054 l 1231 1128 q 1206 1014 1231 1063 q 1137 936 1182 965 q 1028 904 1092 907 l 1072 953 l 1072 424 q 1017 201 1072 300 q 864 47 963 103 q 635 -10 765 -10 z "},"Ứ":{"ha":1254,"x_min":200,"x_max":1231,"o":"m 635 -10 q 408 47 506 -10 q 255 201 310 103 q 200 425 200 300 l 200 972 l 308 972 l 308 432 q 351 259 308 335 q 469 141 394 183 q 635 99 543 99 q 808 141 732 99 q 926 259 883 183 q 968 432 968 335 l 968 972 l 992 972 q 1102 1013 1069 972 q 1135 1128 1135 1054 l 1231 1128 q 1206 1014 1231 1063 q 1137 936 1182 965 q 1028 904 1092 907 l 1072 953 l 1072 424 q 1017 201 1072 300 q 864 47 963 103 q 635 -10 765 -10 m 542 1051 l 510 1110 l 742 1256 l 799 1158 l 542 1051 z "},"Ự":{"ha":1254,"x_min":200,"x_max":1231,"o":"m 635 -10 q 408 47 506 -10 q 255 201 310 103 q 200 425 200 300 l 200 972 l 308 972 l 308 432 q 351 259 308 335 q 469 141 394 183 q 635 99 543 99 q 808 141 732 99 q 926 259 883 183 q 968 432 968 335 l 968 972 l 992 972 q 1102 1013 1069 972 q 1135 1128 1135 1054 l 1231 1128 q 1206 1014 1231 1063 q 1137 936 1182 965 q 1028 904 1092 907 l 1072 953 l 1072 424 q 1017 201 1072 300 q 864 47 963 103 q 635 -10 765 -10 m 638 -257 q 578 -236 599 -257 q 558 -182 558 -215 q 578 -128 558 -150 q 638 -106 597 -106 q 697 -126 676 -106 q 717 -182 717 -147 q 697 -235 717 -212 q 638 -257 678 -257 z "},"Ừ":{"ha":1254,"x_min":200,"x_max":1231,"o":"m 635 -10 q 408 47 506 -10 q 255 201 310 103 q 200 425 200 300 l 200 972 l 308 972 l 308 432 q 351 259 308 335 q 469 141 394 183 q 635 99 543 99 q 808 141 732 99 q 926 259 883 183 q 968 432 968 335 l 968 972 l 992 972 q 1102 1013 1069 972 q 1135 1128 1135 1054 l 1231 1128 q 1206 1014 1231 1063 q 1137 936 1182 965 q 1028 904 1092 907 l 1072 953 l 1072 424 q 1017 201 1072 300 q 864 47 963 103 q 635 -10 765 -10 m 739 1051 l 483 1158 l 540 1256 l 772 1110 l 739 1051 z "},"Ử":{"ha":1254,"x_min":200,"x_max":1231,"o":"m 635 -10 q 408 47 506 -10 q 255 201 310 103 q 200 425 200 300 l 200 972 l 308 972 l 308 432 q 351 259 308 335 q 469 141 394 183 q 635 99 543 99 q 808 141 732 99 q 926 259 883 183 q 968 432 968 335 l 968 972 l 992 972 q 1102 1013 1069 972 q 1135 1128 1135 1054 l 1231 1128 q 1206 1014 1231 1063 q 1137 936 1182 965 q 1028 904 1092 907 l 1072 953 l 1072 424 q 1017 201 1072 300 q 864 47 963 103 q 635 -10 765 -10 m 614 1060 q 603 1083 607 1071 q 599 1104 599 1094 q 606 1129 599 1115 q 635 1158 613 1143 q 669 1183 657 1174 q 681 1204 681 1193 q 665 1226 681 1219 q 625 1233 649 1233 q 578 1227 604 1233 q 526 1210 551 1221 l 506 1279 q 570 1302 536 1294 q 632 1310 604 1310 q 733 1281 700 1310 q 767 1213 767 1251 q 750 1163 767 1181 q 714 1133 733 1144 q 683 1114 694 1122 q 672 1090 672 1106 q 673 1084 672 1088 q 675 1075 674 1081 l 614 1060 z "},"Ữ":{"ha":1254,"x_min":200,"x_max":1231,"o":"m 635 -10 q 408 47 506 -10 q 255 201 310 103 q 200 425 200 300 l 200 972 l 308 972 l 308 432 q 351 259 308 335 q 469 141 394 183 q 635 99 543 99 q 808 141 732 99 q 926 259 883 183 q 968 432 968 335 l 968 972 l 992 972 q 1102 1013 1069 972 q 1135 1128 1135 1054 l 1231 1128 q 1206 1014 1231 1063 q 1137 936 1182 965 q 1028 904 1092 907 l 1072 953 l 1072 424 q 1017 201 1072 300 q 864 47 963 103 q 635 -10 765 -10 m 736 1075 q 675 1086 706 1075 q 613 1110 644 1097 q 576 1125 593 1118 q 544 1132 560 1132 q 511 1117 525 1132 q 497 1075 497 1103 l 413 1075 q 453 1178 413 1140 q 546 1215 493 1215 q 604 1205 576 1215 q 663 1181 632 1194 q 698 1167 679 1174 q 731 1160 717 1160 q 764 1174 750 1160 q 776 1214 778 1188 l 861 1214 q 845 1144 861 1175 q 801 1094 829 1113 q 736 1075 774 1075 z "},"Ű":{"ha":1274,"x_min":200,"x_max":1072,"o":"m 635 -10 q 408 47 506 -10 q 255 201 310 103 q 200 425 200 300 l 200 972 l 308 972 l 308 432 q 351 259 308 335 q 469 141 394 183 q 635 99 543 99 q 808 141 732 99 q 926 259 883 183 q 968 432 968 335 l 968 972 l 1072 972 l 1072 424 q 1017 201 1072 300 q 864 47 963 103 q 635 -10 765 -10 m 507 1047 l 469 1103 l 665 1268 l 735 1182 l 507 1047 m 749 1047 l 710 1103 l 907 1268 l 975 1182 l 749 1047 z "},"Ȗ":{"ha":1274,"x_min":200,"x_max":1072,"o":"m 635 -10 q 408 47 506 -10 q 255 201 310 103 q 200 425 200 300 l 200 972 l 308 972 l 308 432 q 351 259 308 335 q 469 141 394 183 q 635 99 543 99 q 808 141 732 99 q 926 259 883 183 q 968 432 968 335 l 968 972 l 1072 972 l 1072 424 q 1017 201 1072 300 q 864 47 963 103 q 635 -10 765 -10 m 507 1050 l 426 1063 q 468 1153 439 1114 q 541 1216 497 1193 q 638 1239 585 1239 q 735 1216 692 1239 q 808 1153 778 1193 q 849 1063 838 1114 l 768 1050 q 718 1128 753 1101 q 638 1156 683 1156 q 557 1128 592 1156 q 507 1050 522 1101 z "},"Ū":{"ha":1274,"x_min":200,"x_max":1072,"o":"m 635 -10 q 408 47 506 -10 q 255 201 310 103 q 200 425 200 300 l 200 972 l 308 972 l 308 432 q 351 259 308 335 q 469 141 394 183 q 635 99 543 99 q 808 141 732 99 q 926 259 883 183 q 968 432 968 335 l 968 972 l 1072 972 l 1072 424 q 1017 201 1072 300 q 864 47 963 103 q 635 -10 765 -10 m 424 1103 l 424 1186 l 850 1186 l 850 1103 l 424 1103 z "},"Ṻ":{"ha":1274,"x_min":200,"x_max":1072,"o":"m 635 -10 q 408 47 506 -10 q 255 201 310 103 q 200 425 200 300 l 200 972 l 308 972 l 308 432 q 351 259 308 335 q 469 141 394 183 q 635 99 543 99 q 808 141 732 99 q 926 259 883 183 q 968 432 968 335 l 968 972 l 1072 972 l 1072 424 q 1017 201 1072 300 q 864 47 963 103 q 635 -10 765 -10 m 424 1103 l 424 1186 l 850 1186 l 850 1103 l 424 1103 m 778 1265 q 719 1286 739 1265 q 699 1342 699 1307 q 719 1395 699 1372 q 778 1418 739 1418 q 838 1397 818 1418 q 858 1342 858 1376 q 838 1288 858 1311 q 778 1265 818 1265 m 497 1265 q 437 1286 457 1265 q 417 1342 417 1307 q 437 1395 417 1372 q 497 1418 457 1418 q 556 1397 536 1418 q 576 1342 576 1376 q 556 1288 576 1311 q 497 1265 536 1265 z "},"Ų":{"ha":1274,"x_min":200,"x_max":1072,"o":"m 767 -293 q 657 -253 703 -293 q 611 -147 611 -212 q 633 -64 611 -101 q 692 6 656 -26 q 770 65 728 38 q 856 117 813 92 l 892 67 q 824 24 856 47 q 765 -23 792 1 q 723 -74 739 -47 q 707 -133 707 -101 q 727 -190 707 -169 q 779 -210 747 -210 q 822 -199 803 -210 q 854 -171 840 -187 l 915 -215 q 856 -270 894 -247 q 767 -293 818 -293 m 635 -10 q 408 47 506 -10 q 255 201 310 103 q 200 425 200 299 l 200 972 l 308 972 l 308 432 q 351 259 308 335 q 469 141 394 183 q 635 99 543 99 q 808 141 732 99 q 926 259 883 183 q 968 432 968 335 l 968 972 l 1072 972 l 1072 424 q 1017 201 1072 299 q 864 47 963 103 q 635 -10 765 -10 z "},"Ů":{"ha":1274,"x_min":200,"x_max":1072,"o":"m 635 -10 q 408 47 506 -10 q 255 201 310 103 q 200 425 200 300 l 200 972 l 308 972 l 308 432 q 351 259 308 335 q 469 141 394 183 q 635 99 543 99 q 808 141 732 99 q 926 259 883 183 q 968 432 968 335 l 968 972 l 1072 972 l 1072 424 q 1017 201 1072 300 q 864 47 963 103 q 635 -10 765 -10 m 636 1011 q 561 1031 596 1011 q 506 1085 526 1051 q 485 1157 485 1118 q 506 1232 485 1199 q 561 1285 526 1265 q 636 1304 596 1304 q 711 1285 676 1304 q 767 1232 746 1265 q 789 1157 789 1199 q 767 1085 789 1118 q 711 1031 746 1051 q 636 1011 676 1011 m 636 1079 q 695 1102 671 1079 q 719 1157 719 1125 q 695 1215 719 1194 q 636 1236 671 1236 q 578 1214 601 1236 q 554 1157 554 1192 q 578 1102 554 1125 q 636 1079 603 1079 z "},"Ũ":{"ha":1274,"x_min":200,"x_max":1072,"o":"m 635 -10 q 408 47 506 -10 q 255 201 310 103 q 200 425 200 300 l 200 972 l 308 972 l 308 432 q 351 259 308 335 q 469 141 394 183 q 635 99 543 99 q 808 141 732 99 q 926 259 883 183 q 968 432 968 335 l 968 972 l 1072 972 l 1072 424 q 1017 201 1072 300 q 864 47 963 103 q 635 -10 765 -10 m 736 1075 q 675 1086 706 1075 q 613 1110 644 1097 q 576 1125 593 1118 q 544 1132 560 1132 q 511 1117 525 1132 q 497 1075 497 1103 l 413 1075 q 453 1178 413 1140 q 546 1215 493 1215 q 604 1205 576 1215 q 663 1181 632 1194 q 698 1167 679 1174 q 731 1160 717 1160 q 764 1174 750 1160 q 776 1214 778 1188 l 861 1214 q 845 1144 861 1175 q 801 1094 829 1113 q 736 1075 774 1075 z "},"Ṹ":{"ha":1274,"x_min":200,"x_max":1072,"o":"m 635 -10 q 408 47 506 -10 q 255 201 310 103 q 200 425 200 300 l 200 972 l 308 972 l 308 432 q 351 259 308 335 q 469 141 394 183 q 635 99 543 99 q 808 141 732 99 q 926 259 883 183 q 968 432 968 335 l 968 972 l 1072 972 l 1072 424 q 1017 201 1072 300 q 864 47 963 103 q 635 -10 765 -10 m 736 1075 q 675 1086 706 1075 q 613 1110 644 1097 q 576 1125 593 1118 q 544 1132 560 1132 q 511 1117 525 1132 q 497 1075 497 1103 l 413 1075 q 453 1178 413 1140 q 546 1215 493 1215 q 604 1205 576 1215 q 663 1181 632 1194 q 698 1167 679 1174 q 731 1160 717 1160 q 764 1174 750 1160 q 776 1214 778 1188 l 861 1214 q 845 1144 861 1175 q 801 1094 829 1113 q 736 1075 774 1075 m 542 1249 l 510 1307 l 742 1453 l 799 1356 l 542 1249 z "},"V":{"ha":1144,"x_min":88,"x_max":1057,"o":"m 507 0 l 88 972 l 210 972 l 472 360 q 504 283 488 321 q 536 207 521 244 q 566 133 551 169 q 593 57 581 97 l 554 57 q 594 163 575 113 q 634 263 614 214 q 675 364 654 313 l 933 972 l 1057 972 l 632 0 l 507 0 z "},"W":{"ha":1546,"x_min":88,"x_max":1458,"o":"m 410 0 l 88 972 l 207 972 l 406 351 q 428 283 418 315 q 447 219 438 250 q 463 158 456 189 q 478 93 469 128 l 450 94 q 479 188 465 147 q 510 268 493 229 q 547 357 526 307 l 713 754 l 818 754 l 1000 321 q 1035 237 1019 276 q 1063 163 1050 197 q 1079 100 1075 129 l 1050 96 q 1064 151 1057 125 q 1078 203 1071 178 q 1093 253 1085 228 q 1110 305 1101 278 q 1128 361 1118 332 l 1342 972 l 1458 972 l 1111 0 l 1022 0 l 747 646 l 776 643 l 504 0 l 410 0 z "},"Ẃ":{"ha":1546,"x_min":88,"x_max":1458,"o":"m 410 0 l 88 972 l 207 972 l 406 351 q 428 283 418 315 q 447 219 438 250 q 463 158 456 189 q 478 93 469 128 l 450 94 q 479 188 465 147 q 510 268 493 229 q 547 357 526 307 l 713 754 l 818 754 l 1000 321 q 1035 237 1019 276 q 1063 163 1050 197 q 1079 100 1075 129 l 1050 96 q 1064 151 1057 125 q 1078 203 1071 178 q 1093 253 1085 228 q 1110 305 1101 278 q 1128 361 1118 332 l 1342 972 l 1458 972 l 1111 0 l 1022 0 l 747 646 l 776 643 l 504 0 l 410 0 m 678 1051 l 646 1110 l 878 1256 l 935 1158 l 678 1051 z "},"Ŵ":{"ha":1546,"x_min":88,"x_max":1458,"o":"m 410 0 l 88 972 l 207 972 l 406 351 q 428 283 418 315 q 447 219 438 250 q 463 158 456 189 q 478 93 469 128 l 450 94 q 479 188 465 147 q 510 268 493 229 q 547 357 526 307 l 713 754 l 818 754 l 1000 321 q 1035 237 1019 276 q 1063 163 1050 197 q 1079 100 1075 129 l 1050 96 q 1064 151 1057 125 q 1078 203 1071 178 q 1093 253 1085 228 q 1110 305 1101 278 q 1128 361 1118 332 l 1342 972 l 1458 972 l 1111 0 l 1022 0 l 747 646 l 776 643 l 504 0 l 410 0 m 601 1056 l 556 1097 l 725 1231 l 818 1231 l 986 1097 l 942 1056 l 750 1161 l 792 1161 l 601 1056 z "},"Ẅ":{"ha":1546,"x_min":88,"x_max":1458,"o":"m 410 0 l 88 972 l 207 972 l 406 351 q 428 283 418 315 q 447 219 438 250 q 463 158 456 189 q 478 93 469 128 l 450 94 q 479 188 465 147 q 510 268 493 229 q 547 357 526 307 l 713 754 l 818 754 l 1000 321 q 1035 237 1019 276 q 1063 163 1050 197 q 1079 100 1075 129 l 1050 96 q 1064 151 1057 125 q 1078 203 1071 178 q 1093 253 1085 228 q 1110 305 1101 278 q 1128 361 1118 332 l 1342 972 l 1458 972 l 1111 0 l 1022 0 l 747 646 l 776 643 l 504 0 l 410 0 m 913 1068 q 853 1089 874 1068 q 833 1144 833 1110 q 853 1198 833 1175 q 913 1221 874 1221 q 973 1200 953 1221 q 993 1144 993 1179 q 973 1091 993 1114 q 913 1068 953 1068 m 632 1068 q 572 1089 592 1068 q 551 1144 551 1110 q 572 1198 551 1175 q 632 1221 592 1221 q 691 1200 671 1221 q 711 1144 711 1179 q 691 1091 711 1114 q 632 1068 671 1068 z "},"Ẁ":{"ha":1546,"x_min":88,"x_max":1458,"o":"m 410 0 l 88 972 l 207 972 l 406 351 q 428 283 418 315 q 447 219 438 250 q 463 158 456 189 q 478 93 469 128 l 450 94 q 479 188 465 147 q 510 268 493 229 q 547 357 526 307 l 713 754 l 818 754 l 1000 321 q 1035 237 1019 276 q 1063 163 1050 197 q 1079 100 1075 129 l 1050 96 q 1064 151 1057 125 q 1078 203 1071 178 q 1093 253 1085 228 q 1110 305 1101 278 q 1128 361 1118 332 l 1342 972 l 1458 972 l 1111 0 l 1022 0 l 747 646 l 776 643 l 504 0 l 410 0 m 875 1051 l 619 1158 l 676 1256 l 908 1110 l 875 1051 z "},"X":{"ha":1121,"x_min":88,"x_max":1035,"o":"m 893 0 l 521 458 l 94 972 l 236 972 l 583 546 l 1035 0 l 893 0 m 88 0 l 506 525 l 571 446 l 221 0 l 88 0 m 608 461 l 549 539 l 885 972 l 1019 972 l 608 461 z "},"Y":{"ha":1129,"x_min":79,"x_max":1050,"o":"m 525 0 l 525 450 l 540 372 l 79 972 l 221 972 l 593 478 l 567 478 l 919 972 l 1050 972 l 617 375 l 632 461 l 632 0 l 525 0 z "},"Ý":{"ha":1129,"x_min":79,"x_max":1050,"o":"m 525 0 l 525 450 l 540 372 l 79 972 l 221 972 l 593 478 l 567 478 l 919 972 l 1050 972 l 617 375 l 632 461 l 632 0 l 525 0 m 468 1051 l 436 1110 l 668 1256 l 725 1158 l 468 1051 z "},"Ŷ":{"ha":1129,"x_min":79,"x_max":1050,"o":"m 525 0 l 525 450 l 540 372 l 79 972 l 221 972 l 593 478 l 567 478 l 919 972 l 1050 972 l 617 375 l 632 461 l 632 0 l 525 0 m 394 1056 l 349 1097 l 518 1231 l 611 1231 l 779 1097 l 735 1056 l 543 1161 l 585 1161 l 394 1056 z "},"Ÿ":{"ha":1129,"x_min":79,"x_max":1050,"o":"m 525 0 l 525 450 l 540 372 l 79 972 l 221 972 l 593 478 l 567 478 l 919 972 l 1050 972 l 617 375 l 632 461 l 632 0 l 525 0 m 706 1068 q 647 1089 667 1068 q 626 1144 626 1110 q 647 1198 626 1175 q 706 1221 667 1221 q 766 1200 746 1221 q 786 1144 786 1179 q 766 1091 786 1114 q 706 1068 746 1068 m 425 1068 q 365 1089 385 1068 q 344 1144 344 1110 q 365 1198 344 1175 q 425 1221 385 1221 q 484 1200 464 1221 q 504 1144 504 1179 q 484 1091 504 1114 q 425 1068 464 1068 z "},"Ẏ":{"ha":1129,"x_min":79,"x_max":1050,"o":"m 525 0 l 525 450 l 540 372 l 79 972 l 221 972 l 593 478 l 567 478 l 919 972 l 1050 972 l 617 375 l 632 461 l 632 0 l 525 0 m 565 1068 q 506 1089 526 1068 q 486 1144 486 1110 q 506 1198 486 1175 q 565 1221 526 1221 q 624 1200 604 1221 q 644 1144 644 1179 q 624 1091 644 1114 q 565 1068 604 1068 z "},"Ỵ":{"ha":1129,"x_min":79,"x_max":1050,"o":"m 525 0 l 525 450 l 540 372 l 79 972 l 221 972 l 593 478 l 567 478 l 919 972 l 1050 972 l 617 375 l 632 461 l 632 0 l 525 0 m 565 -257 q 506 -236 526 -257 q 486 -182 486 -215 q 506 -128 486 -150 q 565 -106 525 -106 q 624 -126 604 -106 q 644 -182 644 -147 q 625 -235 644 -212 q 565 -257 606 -257 z "},"Ỳ":{"ha":1129,"x_min":79,"x_max":1050,"o":"m 525 0 l 525 450 l 540 372 l 79 972 l 221 972 l 593 478 l 567 478 l 919 972 l 1050 972 l 617 375 l 632 461 l 632 0 l 525 0 m 667 1051 l 411 1158 l 468 1256 l 700 1110 l 667 1051 z "},"Ỷ":{"ha":1129,"x_min":79,"x_max":1050,"o":"m 525 0 l 525 450 l 540 372 l 79 972 l 221 972 l 593 478 l 567 478 l 919 972 l 1050 972 l 617 375 l 632 461 l 632 0 l 525 0 m 542 1060 q 531 1083 535 1071 q 526 1104 526 1094 q 533 1129 526 1115 q 563 1158 540 1143 q 597 1183 585 1174 q 608 1204 608 1193 q 592 1226 608 1219 q 553 1233 576 1233 q 506 1227 532 1233 q 454 1210 479 1221 l 433 1279 q 498 1302 464 1294 q 560 1310 532 1310 q 661 1281 628 1310 q 694 1213 694 1251 q 678 1163 694 1181 q 642 1133 661 1144 q 611 1114 622 1122 q 600 1090 600 1106 q 601 1084 600 1088 q 603 1075 601 1081 l 542 1060 z "},"Ȳ":{"ha":1129,"x_min":79,"x_max":1050,"o":"m 525 0 l 525 450 l 540 372 l 79 972 l 221 972 l 593 478 l 567 478 l 919 972 l 1050 972 l 617 375 l 632 461 l 632 0 l 525 0 m 351 1103 l 351 1186 l 778 1186 l 778 1103 l 351 1103 z "},"Ỹ":{"ha":1129,"x_min":79,"x_max":1050,"o":"m 525 0 l 525 450 l 540 372 l 79 972 l 221 972 l 593 478 l 567 478 l 919 972 l 1050 972 l 617 375 l 632 461 l 632 0 l 525 0 m 664 1075 q 603 1086 633 1075 q 540 1110 572 1097 q 504 1125 521 1118 q 472 1132 488 1132 q 439 1117 453 1132 q 425 1075 425 1103 l 340 1075 q 381 1178 340 1140 q 474 1215 421 1215 q 532 1205 504 1215 q 590 1181 560 1194 q 626 1167 607 1174 q 658 1160 644 1160 q 692 1174 678 1160 q 704 1214 706 1188 l 789 1214 q 773 1144 789 1175 q 729 1094 757 1113 q 664 1075 701 1075 z "},"Z":{"ha":1075,"x_min":114,"x_max":965,"o":"m 114 0 l 114 83 l 813 896 l 842 865 l 150 865 l 150 972 l 950 972 l 950 890 l 253 76 l 222 107 l 965 107 l 965 0 l 114 0 z "},"Ź":{"ha":1075,"x_min":114,"x_max":965,"o":"m 114 0 l 114 83 l 813 896 l 842 865 l 150 865 l 150 972 l 950 972 l 950 890 l 253 76 l 222 107 l 965 107 l 965 0 l 114 0 m 440 1051 l 408 1110 l 640 1256 l 697 1158 l 440 1051 z "},"Ž":{"ha":1075,"x_min":114,"x_max":965,"o":"m 114 0 l 114 83 l 813 896 l 842 865 l 150 865 l 150 972 l 950 972 l 950 890 l 253 76 l 222 107 l 965 107 l 965 0 l 114 0 m 485 1058 l 326 1192 l 372 1232 l 557 1128 l 515 1128 l 700 1232 l 746 1192 l 588 1058 l 485 1058 z "},"Ż":{"ha":1075,"x_min":114,"x_max":965,"o":"m 114 0 l 114 83 l 813 896 l 842 865 l 150 865 l 150 972 l 950 972 l 950 890 l 253 76 l 222 107 l 965 107 l 965 0 l 114 0 m 536 1068 q 477 1089 497 1068 q 457 1144 457 1110 q 477 1198 457 1175 q 536 1221 497 1221 q 595 1200 575 1221 q 615 1144 615 1179 q 595 1091 615 1114 q 536 1068 575 1068 z "},"Ẓ":{"ha":1075,"x_min":114,"x_max":965,"o":"m 114 0 l 114 83 l 813 896 l 842 865 l 150 865 l 150 972 l 950 972 l 950 890 l 253 76 l 222 107 l 965 107 l 965 0 l 114 0 m 536 -257 q 477 -236 497 -257 q 457 -182 457 -215 q 476 -128 457 -150 q 536 -106 496 -106 q 595 -126 575 -106 q 615 -182 615 -147 q 596 -235 615 -212 q 536 -257 576 -257 z "},"a":{"ha":1135,"x_min":113,"x_max":933,"o":"m 507 -14 q 301 35 390 -14 q 162 169 211 83 q 113 363 113 254 q 165 559 113 474 q 306 693 217 644 q 511 742 396 742 q 643 723 582 742 q 751 672 704 704 q 826 600 797 640 q 860 521 856 560 l 825 529 l 829 725 l 933 725 l 933 0 l 828 0 l 828 193 l 856 208 q 819 126 850 167 q 742 54 789 86 q 634 4 694 22 q 507 -14 574 -14 m 528 86 q 685 122 617 86 q 794 221 754 158 q 833 363 833 283 q 794 506 833 443 q 686 606 756 569 q 528 642 617 642 q 369 606 438 642 q 260 506 300 569 q 221 363 221 443 q 259 222 221 285 q 366 122 297 158 q 528 86 435 86 z "},"á":{"ha":1135,"x_min":113,"x_max":933,"o":"m 507 -14 q 301 35 390 -14 q 162 169 211 83 q 113 363 113 254 q 165 559 113 474 q 306 693 217 644 q 511 742 396 742 q 643 723 582 742 q 751 672 704 704 q 826 600 797 640 q 860 521 856 560 l 825 529 l 829 725 l 933 725 l 933 0 l 828 0 l 828 193 l 856 208 q 819 126 850 167 q 742 54 789 86 q 634 4 694 22 q 507 -14 574 -14 m 528 86 q 685 122 617 86 q 794 221 754 158 q 833 363 833 283 q 794 506 833 443 q 686 606 756 569 q 528 642 617 642 q 369 606 438 642 q 260 506 300 569 q 221 363 221 443 q 259 222 221 285 q 366 122 297 158 q 528 86 435 86 m 469 832 l 432 889 l 629 1054 l 697 967 l 469 832 z "},"ă":{"ha":1135,"x_min":113,"x_max":933,"o":"m 507 -14 q 301 35 390 -14 q 162 169 211 83 q 113 363 113 254 q 165 559 113 474 q 306 693 217 644 q 511 742 396 742 q 643 723 582 742 q 751 672 704 704 q 826 600 797 640 q 860 521 856 560 l 825 529 l 829 725 l 933 725 l 933 0 l 828 0 l 828 193 l 856 208 q 819 126 850 167 q 742 54 789 86 q 634 4 694 22 q 507 -14 574 -14 m 528 86 q 685 122 617 86 q 794 221 754 158 q 833 363 833 283 q 794 506 833 443 q 686 606 756 569 q 528 642 617 642 q 369 606 438 642 q 260 506 300 569 q 221 363 221 443 q 259 222 221 285 q 366 122 297 158 q 528 86 435 86 m 551 822 q 414 876 469 822 q 340 1021 358 929 l 421 1032 q 472 940 438 974 q 551 907 507 907 q 631 940 596 907 q 682 1032 665 974 l 763 1021 q 689 876 744 929 q 551 822 633 822 z "},"ắ":{"ha":1135,"x_min":113,"x_max":933,"o":"m 507 -14 q 301 35 390 -14 q 162 169 211 83 q 113 363 113 254 q 165 559 113 474 q 306 693 217 644 q 511 742 396 742 q 643 723 582 742 q 751 672 704 704 q 826 600 797 640 q 860 521 856 560 l 825 529 l 829 725 l 933 725 l 933 0 l 828 0 l 828 193 l 856 208 q 819 126 850 167 q 742 54 789 86 q 634 4 694 22 q 507 -14 574 -14 m 528 86 q 685 122 617 86 q 794 221 754 158 q 833 363 833 283 q 794 506 833 443 q 686 606 756 569 q 528 642 617 642 q 369 606 438 642 q 260 506 300 569 q 221 363 221 443 q 259 222 221 285 q 366 122 297 158 q 528 86 435 86 m 551 822 q 414 868 469 822 q 340 993 358 914 l 421 1004 q 472 933 438 960 q 551 907 507 907 q 631 933 596 907 q 682 1004 665 960 l 763 993 q 689 868 744 914 q 551 822 633 822 m 557 1038 l 500 1076 l 604 1268 l 701 1201 l 557 1038 z "},"ặ":{"ha":1135,"x_min":113,"x_max":933,"o":"m 507 -14 q 301 35 390 -14 q 162 169 211 83 q 113 363 113 254 q 165 559 113 474 q 306 693 217 644 q 511 742 396 742 q 643 723 582 742 q 751 672 704 704 q 826 600 797 640 q 860 521 856 560 l 825 529 l 829 725 l 933 725 l 933 0 l 828 0 l 828 193 l 856 208 q 819 126 850 167 q 742 54 789 86 q 634 4 694 22 q 507 -14 574 -14 m 528 86 q 685 122 617 86 q 794 221 754 158 q 833 363 833 283 q 794 506 833 443 q 686 606 756 569 q 528 642 617 642 q 369 606 438 642 q 260 506 300 569 q 221 363 221 443 q 259 222 221 285 q 366 122 297 158 q 528 86 435 86 m 549 -257 q 490 -236 510 -257 q 469 -182 469 -215 q 489 -128 469 -150 q 549 -106 508 -106 q 608 -126 588 -106 q 628 -182 628 -147 q 608 -235 628 -212 q 549 -257 589 -257 m 551 822 q 414 876 469 822 q 340 1021 358 929 l 421 1032 q 472 940 438 974 q 551 907 507 907 q 631 940 596 907 q 682 1032 665 974 l 763 1021 q 689 876 744 929 q 551 822 633 822 z "},"ằ":{"ha":1135,"x_min":113,"x_max":933,"o":"m 507 -14 q 301 35 390 -14 q 162 169 211 83 q 113 363 113 254 q 165 559 113 474 q 306 693 217 644 q 511 742 396 742 q 643 723 582 742 q 751 672 704 704 q 826 600 797 640 q 860 521 856 560 l 825 529 l 829 725 l 933 725 l 933 0 l 828 0 l 828 193 l 856 208 q 819 126 850 167 q 742 54 789 86 q 634 4 694 22 q 507 -14 574 -14 m 528 86 q 685 122 617 86 q 794 221 754 158 q 833 363 833 283 q 794 506 833 443 q 686 606 756 569 q 528 642 617 642 q 369 606 438 642 q 260 506 300 569 q 221 363 221 443 q 259 222 221 285 q 366 122 297 158 q 528 86 435 86 m 551 822 q 414 869 469 822 q 340 1000 358 917 l 421 1011 q 472 935 438 964 q 551 907 507 907 q 631 935 596 907 q 682 1011 665 964 l 763 1000 q 689 869 744 917 q 551 822 633 822 m 558 1036 l 411 1200 l 508 1268 l 613 1076 l 558 1036 z "},"ẳ":{"ha":1135,"x_min":113,"x_max":933,"o":"m 507 -14 q 301 35 390 -14 q 162 169 211 83 q 113 363 113 254 q 165 559 113 474 q 306 693 217 644 q 511 742 396 742 q 643 723 582 742 q 751 672 704 704 q 826 600 797 640 q 860 521 856 560 l 825 529 l 829 725 l 933 725 l 933 0 l 828 0 l 828 193 l 856 208 q 819 126 850 167 q 742 54 789 86 q 634 4 694 22 q 507 -14 574 -14 m 528 86 q 685 122 617 86 q 794 221 754 158 q 833 363 833 283 q 794 506 833 443 q 686 606 756 569 q 528 642 617 642 q 369 606 438 642 q 260 506 300 569 q 221 363 221 443 q 259 222 221 285 q 366 122 297 158 q 528 86 435 86 m 551 822 q 414 869 469 822 q 340 1000 358 917 l 421 1011 q 472 935 438 964 q 551 907 507 907 q 631 935 596 907 q 682 1011 665 964 l 763 1000 q 689 869 744 917 q 551 822 633 822 m 524 1031 q 513 1053 517 1042 q 508 1075 508 1064 q 515 1100 508 1086 q 543 1129 522 1114 q 578 1154 567 1144 q 589 1175 589 1164 q 573 1197 589 1190 q 533 1204 557 1204 q 486 1198 513 1204 q 435 1181 460 1192 l 414 1250 q 478 1273 444 1265 q 542 1281 513 1281 q 642 1251 608 1281 q 676 1183 676 1222 q 660 1133 676 1151 q 624 1104 643 1115 q 592 1085 604 1093 q 581 1061 581 1076 q 581 1055 581 1058 q 583 1046 582 1051 l 524 1031 z "},"ẵ":{"ha":1135,"x_min":113,"x_max":933,"o":"m 507 -14 q 301 35 390 -14 q 162 169 211 83 q 113 363 113 254 q 165 559 113 474 q 306 693 217 644 q 511 742 396 742 q 643 723 582 742 q 751 672 704 704 q 826 600 797 640 q 860 521 856 560 l 825 529 l 829 725 l 933 725 l 933 0 l 828 0 l 828 193 l 856 208 q 819 126 850 167 q 742 54 789 86 q 634 4 694 22 q 507 -14 574 -14 m 528 86 q 685 122 617 86 q 794 221 754 158 q 833 363 833 283 q 794 506 833 443 q 686 606 756 569 q 528 642 617 642 q 369 606 438 642 q 260 506 300 569 q 221 363 221 443 q 259 222 221 285 q 366 122 297 158 q 528 86 435 86 m 550 822 q 414 869 469 822 q 340 1000 358 917 l 421 1011 q 471 935 436 964 q 550 907 506 907 q 631 935 596 907 q 681 1011 665 964 l 761 1000 q 688 869 743 917 q 550 822 632 822 m 650 1119 q 592 1132 617 1119 q 542 1156 567 1144 q 508 1172 525 1164 q 471 1181 492 1181 q 434 1167 450 1181 q 413 1129 418 1153 l 338 1139 q 380 1227 343 1190 q 464 1264 417 1264 q 517 1252 494 1264 q 563 1229 540 1240 q 600 1211 582 1219 q 636 1203 618 1203 q 671 1217 657 1203 q 689 1254 685 1231 l 765 1244 q 748 1183 763 1211 q 709 1137 733 1154 q 650 1119 685 1119 z "},"ǎ":{"ha":1135,"x_min":113,"x_max":933,"o":"m 507 -14 q 301 35 390 -14 q 162 169 211 83 q 113 363 113 254 q 165 559 113 474 q 306 693 217 644 q 511 742 396 742 q 643 723 582 742 q 751 672 704 704 q 826 600 797 640 q 860 521 856 560 l 825 529 l 829 725 l 933 725 l 933 0 l 828 0 l 828 193 l 856 208 q 819 126 850 167 q 742 54 789 86 q 634 4 694 22 q 507 -14 574 -14 m 528 86 q 685 122 617 86 q 794 221 754 158 q 833 363 833 283 q 794 506 833 443 q 686 606 756 569 q 528 642 617 642 q 369 606 438 642 q 260 506 300 569 q 221 363 221 443 q 259 222 221 285 q 366 122 297 158 q 528 86 435 86 m 500 838 l 351 986 l 397 1026 l 572 908 l 531 908 l 706 1026 l 751 986 l 603 838 l 500 838 z "},"â":{"ha":1135,"x_min":113,"x_max":933,"o":"m 507 -14 q 301 35 390 -14 q 162 169 211 83 q 113 363 113 254 q 165 559 113 474 q 306 693 217 644 q 511 742 396 742 q 643 723 582 742 q 751 672 704 704 q 826 600 797 640 q 860 521 856 560 l 825 529 l 829 725 l 933 725 l 933 0 l 828 0 l 828 193 l 856 208 q 819 126 850 167 q 742 54 789 86 q 634 4 694 22 q 507 -14 574 -14 m 528 86 q 685 122 617 86 q 794 221 754 158 q 833 363 833 283 q 794 506 833 443 q 686 606 756 569 q 528 642 617 642 q 369 606 438 642 q 260 506 300 569 q 221 363 221 443 q 259 222 221 285 q 366 122 297 158 q 528 86 435 86 m 390 840 l 344 879 l 500 1028 l 603 1028 l 758 879 l 713 840 l 531 958 l 572 958 l 390 840 z "},"ấ":{"ha":1135,"x_min":113,"x_max":933,"o":"m 507 -14 q 301 35 390 -14 q 162 169 211 83 q 113 363 113 254 q 165 559 113 474 q 306 693 217 644 q 511 742 396 742 q 643 723 582 742 q 751 672 704 704 q 826 600 797 640 q 860 521 856 560 l 825 529 l 829 725 l 933 725 l 933 0 l 828 0 l 828 193 l 856 208 q 819 126 850 167 q 742 54 789 86 q 634 4 694 22 q 507 -14 574 -14 m 528 86 q 685 122 617 86 q 794 221 754 158 q 833 363 833 283 q 794 506 833 443 q 686 606 756 569 q 528 642 617 642 q 369 606 438 642 q 260 506 300 569 q 221 363 221 443 q 259 222 221 285 q 366 122 297 158 q 528 86 435 86 m 392 840 l 346 879 l 501 1028 l 604 1028 l 758 879 l 714 840 l 532 958 l 574 958 l 392 840 m 771 1017 l 714 1056 l 818 1247 l 915 1181 l 771 1017 z "},"ậ":{"ha":1135,"x_min":113,"x_max":933,"o":"m 507 -14 q 301 35 390 -14 q 162 169 211 83 q 113 363 113 254 q 165 559 113 474 q 306 693 217 644 q 511 742 396 742 q 643 723 582 742 q 751 672 704 704 q 826 600 797 640 q 860 521 856 560 l 825 529 l 829 725 l 933 725 l 933 0 l 828 0 l 828 193 l 856 208 q 819 126 850 167 q 742 54 789 86 q 634 4 694 22 q 507 -14 574 -14 m 528 86 q 685 122 617 86 q 794 221 754 158 q 833 363 833 283 q 794 506 833 443 q 686 606 756 569 q 528 642 617 642 q 369 606 438 642 q 260 506 300 569 q 221 363 221 443 q 259 222 221 285 q 366 122 297 158 q 528 86 435 86 m 549 -257 q 490 -236 510 -257 q 469 -182 469 -215 q 489 -128 469 -150 q 549 -106 508 -106 q 608 -126 588 -106 q 628 -182 628 -147 q 608 -235 628 -212 q 549 -257 589 -257 m 390 840 l 344 879 l 500 1028 l 603 1028 l 758 879 l 713 840 l 531 958 l 572 958 l 390 840 z "},"ầ":{"ha":1135,"x_min":113,"x_max":933,"o":"m 507 -14 q 301 35 390 -14 q 162 169 211 83 q 113 363 113 254 q 165 559 113 474 q 306 693 217 644 q 511 742 396 742 q 643 723 582 742 q 751 672 704 704 q 826 600 797 640 q 860 521 856 560 l 825 529 l 829 725 l 933 725 l 933 0 l 828 0 l 828 193 l 856 208 q 819 126 850 167 q 742 54 789 86 q 634 4 694 22 q 507 -14 574 -14 m 528 86 q 685 122 617 86 q 794 221 754 158 q 833 363 833 283 q 794 506 833 443 q 686 606 756 569 q 528 642 617 642 q 369 606 438 642 q 260 506 300 569 q 221 363 221 443 q 259 222 221 285 q 366 122 297 158 q 528 86 435 86 m 392 840 l 346 879 l 501 1028 l 603 1028 l 758 879 l 714 840 l 532 958 l 574 958 l 392 840 m 747 1015 l 600 1179 l 699 1247 l 801 1056 l 747 1015 z "},"ẩ":{"ha":1135,"x_min":113,"x_max":933,"o":"m 507 -14 q 301 35 390 -14 q 162 169 211 83 q 113 363 113 254 q 165 559 113 474 q 306 693 217 644 q 511 742 396 742 q 643 723 582 742 q 751 672 704 704 q 826 600 797 640 q 860 521 856 560 l 825 529 l 829 725 l 933 725 l 933 0 l 828 0 l 828 193 l 856 208 q 819 126 850 167 q 742 54 789 86 q 634 4 694 22 q 507 -14 574 -14 m 528 86 q 685 122 617 86 q 794 221 754 158 q 833 363 833 283 q 794 506 833 443 q 686 606 756 569 q 528 642 617 642 q 369 606 438 642 q 260 506 300 569 q 221 363 221 443 q 259 222 221 285 q 366 122 297 158 q 528 86 435 86 m 390 840 l 344 879 l 500 1028 l 603 1028 l 758 879 l 713 840 l 531 958 l 572 958 l 390 840 m 719 1007 q 708 1030 713 1018 q 704 1051 704 1042 q 711 1077 704 1063 q 740 1106 718 1092 q 774 1131 763 1121 q 786 1151 786 1140 q 770 1174 786 1167 q 731 1181 754 1181 q 683 1176 710 1181 q 631 1157 657 1171 l 611 1226 q 676 1249 642 1242 q 738 1257 710 1257 q 838 1228 804 1257 q 872 1161 872 1199 q 856 1110 872 1128 q 819 1081 839 1092 q 789 1061 800 1069 q 778 1038 778 1053 q 778 1031 778 1035 q 781 1022 779 1028 l 719 1007 z "},"ẫ":{"ha":1135,"x_min":113,"x_max":933,"o":"m 507 -14 q 301 35 390 -14 q 162 169 211 83 q 113 363 113 254 q 165 559 113 474 q 306 693 217 644 q 511 742 396 742 q 643 723 582 742 q 751 672 704 704 q 826 600 797 640 q 860 521 856 560 l 825 529 l 829 725 l 933 725 l 933 0 l 828 0 l 828 193 l 856 208 q 819 126 850 167 q 742 54 789 86 q 634 4 694 22 q 507 -14 574 -14 m 528 86 q 685 122 617 86 q 794 221 754 158 q 833 363 833 283 q 794 506 833 443 q 686 606 756 569 q 528 642 617 642 q 369 606 438 642 q 260 506 300 569 q 221 363 221 443 q 259 222 221 285 q 366 122 297 158 q 528 86 435 86 m 390 840 l 344 879 l 500 1028 l 601 1028 l 757 879 l 711 840 l 529 958 l 571 958 l 390 840 m 650 1113 q 592 1125 617 1113 q 542 1149 567 1138 q 508 1165 525 1157 q 471 1174 492 1174 q 434 1160 450 1174 q 413 1122 418 1147 l 338 1132 q 380 1220 343 1183 q 464 1257 417 1257 q 517 1245 494 1257 q 563 1222 540 1233 q 600 1204 582 1213 q 636 1196 618 1196 q 671 1210 657 1196 q 689 1247 685 1224 l 765 1238 q 748 1176 763 1204 q 709 1130 733 1147 q 650 1113 685 1113 z "},"ȁ":{"ha":1135,"x_min":113,"x_max":933,"o":"m 507 -14 q 301 35 390 -14 q 162 169 211 83 q 113 363 113 254 q 165 559 113 474 q 306 693 217 644 q 511 742 396 742 q 643 723 582 742 q 751 672 704 704 q 826 600 797 640 q 860 521 856 560 l 825 529 l 829 725 l 933 725 l 933 0 l 828 0 l 828 193 l 856 208 q 819 126 850 167 q 742 54 789 86 q 634 4 694 22 q 507 -14 574 -14 m 528 86 q 685 122 617 86 q 794 221 754 158 q 833 363 833 283 q 794 506 833 443 q 686 606 756 569 q 528 642 617 642 q 369 606 438 642 q 260 506 300 569 q 221 363 221 443 q 259 222 221 285 q 366 122 297 158 q 528 86 435 86 m 675 832 l 447 967 l 514 1054 l 713 889 l 675 832 m 433 832 l 206 967 l 274 1054 l 471 889 l 433 832 z "},"ä":{"ha":1135,"x_min":113,"x_max":933,"o":"m 507 -14 q 301 35 390 -14 q 162 169 211 83 q 113 363 113 254 q 165 559 113 474 q 306 693 217 644 q 511 742 396 742 q 643 723 582 742 q 751 672 704 704 q 826 600 797 640 q 860 521 856 560 l 825 529 l 829 725 l 933 725 l 933 0 l 828 0 l 828 193 l 856 208 q 819 126 850 167 q 742 54 789 86 q 634 4 694 22 q 507 -14 574 -14 m 528 86 q 685 122 617 86 q 794 221 754 158 q 833 363 833 283 q 794 506 833 443 q 686 606 756 569 q 528 642 617 642 q 369 606 438 642 q 260 506 300 569 q 221 363 221 443 q 259 222 221 285 q 366 122 297 158 q 528 86 435 86 m 688 881 q 629 901 650 881 q 608 957 608 921 q 629 1011 608 990 q 688 1032 650 1032 q 746 1013 725 1032 q 767 957 767 993 q 746 901 767 922 q 688 881 725 881 m 417 881 q 357 900 378 881 q 336 956 336 919 q 358 1011 336 990 q 417 1032 379 1032 q 475 1012 454 1032 q 496 956 496 992 q 474 901 496 922 q 417 881 453 881 z "},"ạ":{"ha":1135,"x_min":113,"x_max":933,"o":"m 507 -14 q 301 35 390 -14 q 162 169 211 83 q 113 363 113 254 q 165 559 113 474 q 306 693 217 644 q 511 742 396 742 q 643 723 582 742 q 751 672 704 704 q 826 600 797 640 q 860 521 856 560 l 825 529 l 829 725 l 933 725 l 933 0 l 828 0 l 828 193 l 856 208 q 819 126 850 167 q 742 54 789 86 q 634 4 694 22 q 507 -14 574 -14 m 528 86 q 685 122 617 86 q 794 221 754 158 q 833 363 833 283 q 794 506 833 443 q 686 606 756 569 q 528 642 617 642 q 369 606 438 642 q 260 506 300 569 q 221 363 221 443 q 259 222 221 285 q 366 122 297 158 q 528 86 435 86 m 549 -257 q 490 -236 510 -257 q 469 -182 469 -215 q 489 -128 469 -150 q 549 -106 508 -106 q 608 -126 588 -106 q 628 -182 628 -147 q 608 -235 628 -212 q 549 -257 589 -257 z "},"à":{"ha":1135,"x_min":113,"x_max":933,"o":"m 507 -14 q 301 35 390 -14 q 162 169 211 83 q 113 363 113 254 q 165 559 113 474 q 306 693 217 644 q 511 742 396 742 q 643 723 582 742 q 751 672 704 704 q 826 600 797 640 q 860 521 856 560 l 825 529 l 829 725 l 933 725 l 933 0 l 828 0 l 828 193 l 856 208 q 819 126 850 167 q 742 54 789 86 q 634 4 694 22 q 507 -14 574 -14 m 528 86 q 685 122 617 86 q 794 221 754 158 q 833 363 833 283 q 794 506 833 443 q 686 606 756 569 q 528 642 617 642 q 369 606 438 642 q 260 506 300 569 q 221 363 221 443 q 259 222 221 285 q 366 122 297 158 q 528 86 435 86 m 621 832 l 394 967 l 461 1054 l 660 889 l 621 832 z "},"ả":{"ha":1135,"x_min":113,"x_max":933,"o":"m 507 -14 q 301 35 390 -14 q 162 169 211 83 q 113 363 113 254 q 165 559 113 474 q 306 693 217 644 q 511 742 396 742 q 643 723 582 742 q 751 672 704 704 q 826 600 797 640 q 860 521 856 560 l 825 529 l 829 725 l 933 725 l 933 0 l 828 0 l 828 193 l 856 208 q 819 126 850 167 q 742 54 789 86 q 634 4 694 22 q 507 -14 574 -14 m 528 86 q 685 122 617 86 q 794 221 754 158 q 833 363 833 283 q 794 506 833 443 q 686 606 756 569 q 528 642 617 642 q 369 606 438 642 q 260 506 300 569 q 221 363 221 443 q 259 222 221 285 q 366 122 297 158 q 528 86 435 86 m 529 828 q 518 851 522 839 q 514 872 514 863 q 521 897 514 883 q 550 926 528 911 q 584 951 572 942 q 596 972 596 961 q 580 994 596 988 q 540 1001 564 1001 q 493 995 519 1001 q 442 978 467 989 l 421 1047 q 485 1070 451 1063 q 547 1078 519 1078 q 649 1049 615 1078 q 682 981 682 1019 q 665 931 682 949 q 629 901 649 913 q 599 882 610 890 q 588 858 588 874 q 588 852 588 856 q 590 843 589 849 l 529 828 z "},"ȃ":{"ha":1135,"x_min":113,"x_max":933,"o":"m 507 -14 q 301 35 390 -14 q 162 169 211 83 q 113 363 113 254 q 165 559 113 474 q 306 693 217 644 q 511 742 396 742 q 643 723 582 742 q 751 672 704 704 q 826 600 797 640 q 860 521 856 560 l 825 529 l 829 725 l 933 725 l 933 0 l 828 0 l 828 193 l 856 208 q 819 126 850 167 q 742 54 789 86 q 634 4 694 22 q 507 -14 574 -14 m 528 86 q 685 122 617 86 q 794 221 754 158 q 833 363 833 283 q 794 506 833 443 q 686 606 756 569 q 528 642 617 642 q 369 606 438 642 q 260 506 300 569 q 221 363 221 443 q 259 222 221 285 q 366 122 297 158 q 528 86 435 86 m 421 836 l 340 849 q 414 992 358 939 q 551 1046 469 1046 q 689 992 633 1046 q 763 849 744 939 l 682 836 q 631 928 665 894 q 551 963 596 963 q 472 928 507 963 q 421 836 438 894 z "},"ā":{"ha":1135,"x_min":113,"x_max":933,"o":"m 507 -14 q 301 35 390 -14 q 162 169 211 83 q 113 363 113 254 q 165 559 113 474 q 306 693 217 644 q 511 742 396 742 q 643 723 582 742 q 751 672 704 704 q 826 600 797 640 q 860 521 856 560 l 825 529 l 829 725 l 933 725 l 933 0 l 828 0 l 828 193 l 856 208 q 819 126 850 167 q 742 54 789 86 q 634 4 694 22 q 507 -14 574 -14 m 528 86 q 685 122 617 86 q 794 221 754 158 q 833 363 833 283 q 794 506 833 443 q 686 606 756 569 q 528 642 617 642 q 369 606 438 642 q 260 506 300 569 q 221 363 221 443 q 259 222 221 285 q 366 122 297 158 q 528 86 435 86 m 353 893 l 353 974 l 750 974 l 750 893 l 353 893 z "},"ą":{"ha":1135,"x_min":113,"x_max":967,"o":"m 507 -14 q 301 35 390 -14 q 162 169 211 83 q 113 363 113 254 q 165 559 113 474 q 306 693 217 644 q 511 742 396 742 q 643 723 582 742 q 751 672 704 704 q 826 600 797 640 q 860 521 856 560 l 825 529 l 829 725 l 933 725 l 933 0 l 828 0 l 828 193 l 856 208 q 819 126 850 167 q 742 54 789 86 q 634 4 694 22 q 507 -14 574 -14 m 528 86 q 685 122 617 86 q 794 221 754 158 q 833 363 833 283 q 794 506 833 443 q 686 606 756 569 q 528 642 617 642 q 369 606 438 642 q 260 506 300 569 q 221 363 221 443 q 259 222 221 285 q 366 122 297 158 q 528 86 435 86 m 819 -293 q 751 -276 783 -293 q 700 -230 719 -260 q 681 -161 681 -200 q 698 -90 681 -122 q 744 -31 715 -57 q 810 15 772 -6 q 889 51 847 36 l 935 0 q 854 -40 890 -17 q 797 -90 818 -62 q 775 -150 775 -118 q 791 -194 775 -176 q 835 -211 807 -211 q 873 -200 856 -211 q 906 -168 890 -189 l 967 -212 q 933 -253 954 -235 q 885 -282 913 -271 q 819 -293 857 -293 z "},"å":{"ha":1135,"x_min":113,"x_max":933,"o":"m 507 -14 q 301 35 390 -14 q 162 169 211 83 q 113 363 113 254 q 165 559 113 474 q 306 693 217 644 q 511 742 396 742 q 643 723 582 742 q 751 672 704 704 q 826 600 797 640 q 860 521 856 560 l 825 529 l 829 725 l 933 725 l 933 0 l 828 0 l 828 193 l 856 208 q 819 126 850 167 q 742 54 789 86 q 634 4 694 22 q 507 -14 574 -14 m 528 86 q 685 122 617 86 q 794 221 754 158 q 833 363 833 283 q 794 506 833 443 q 686 606 756 569 q 528 642 617 642 q 369 606 438 642 q 260 506 300 569 q 221 363 221 443 q 259 222 221 285 q 366 122 297 158 q 528 86 435 86 m 550 825 q 478 844 513 825 q 424 897 444 864 q 403 967 403 929 q 423 1039 403 1007 q 477 1091 443 1071 q 550 1111 511 1111 q 624 1091 590 1111 q 678 1039 658 1071 q 699 967 699 1007 q 678 897 699 929 q 624 844 658 864 q 550 825 590 825 m 550 892 q 607 914 583 892 q 631 967 631 936 q 607 1022 631 1001 q 550 1043 583 1043 q 493 1022 515 1043 q 471 967 471 1000 q 494 914 471 936 q 550 892 518 892 z "},"ǻ":{"ha":1135,"x_min":113,"x_max":933,"o":"m 507 -14 q 301 35 390 -14 q 162 169 211 83 q 113 363 113 254 q 165 559 113 474 q 306 693 217 644 q 511 742 396 742 q 643 723 582 742 q 751 672 704 704 q 826 600 797 640 q 860 521 856 560 l 825 529 l 829 725 l 933 725 l 933 0 l 828 0 l 828 193 l 856 208 q 819 126 850 167 q 742 54 789 86 q 634 4 694 22 q 507 -14 574 -14 m 528 86 q 685 122 617 86 q 794 221 754 158 q 833 363 833 283 q 794 506 833 443 q 686 606 756 569 q 528 642 617 642 q 369 606 438 642 q 260 506 300 569 q 221 363 221 443 q 259 222 221 285 q 366 122 297 158 q 528 86 435 86 m 550 825 q 478 844 513 825 q 424 897 444 864 q 403 967 403 929 q 423 1039 403 1007 q 477 1091 443 1071 q 550 1111 511 1111 q 624 1091 590 1111 q 678 1039 658 1071 q 699 967 699 1007 q 678 897 699 929 q 624 844 658 864 q 550 825 590 825 m 550 892 q 607 914 583 892 q 631 967 631 936 q 607 1022 631 1001 q 550 1043 583 1043 q 493 1022 515 1043 q 471 967 471 1000 q 494 914 471 936 q 550 892 518 892 m 468 1142 l 431 1199 l 628 1364 l 696 1276 l 468 1142 z "},"ã":{"ha":1135,"x_min":113,"x_max":933,"o":"m 507 -14 q 301 35 390 -14 q 162 169 211 83 q 113 363 113 254 q 165 559 113 474 q 306 693 217 644 q 511 742 396 742 q 643 723 582 742 q 751 672 704 704 q 826 600 797 640 q 860 521 856 560 l 825 529 l 829 725 l 933 725 l 933 0 l 828 0 l 828 193 l 856 208 q 819 126 850 167 q 742 54 789 86 q 634 4 694 22 q 507 -14 574 -14 m 528 86 q 685 122 617 86 q 794 221 754 158 q 833 363 833 283 q 794 506 833 443 q 686 606 756 569 q 528 642 617 642 q 369 606 438 642 q 260 506 300 569 q 221 363 221 443 q 259 222 221 285 q 366 122 297 158 q 528 86 435 86 m 633 851 q 583 864 604 851 q 533 901 561 876 q 501 928 514 919 q 474 936 488 936 q 433 916 450 936 q 411 856 417 896 l 336 865 q 381 972 342 928 q 481 1015 419 1015 q 528 1004 507 1015 q 576 968 549 993 q 610 942 597 951 q 638 932 622 932 q 673 951 658 932 q 692 1004 688 971 l 768 994 q 748 923 765 956 q 701 871 731 890 q 633 851 672 851 z "},"æ":{"ha":1600,"x_min":113,"x_max":1471,"o":"m 413 -14 q 256 13 324 -14 q 151 88 189 39 q 113 207 113 138 q 142 319 113 275 q 222 387 171 363 q 342 422 272 411 q 492 432 413 432 l 1390 432 l 1365 407 l 1365 439 q 1328 540 1363 493 q 1234 615 1293 586 q 1100 644 1175 644 q 943 615 1013 644 q 832 526 874 586 q 790 367 790 465 q 835 213 790 276 q 958 117 879 150 q 1138 83 1036 83 q 1278 103 1215 83 q 1404 171 1342 124 l 1456 89 q 1367 38 1418 61 q 1253 0 1315 14 q 1125 -14 1192 -14 q 897 33 994 -14 q 744 165 799 81 q 690 360 690 250 q 722 523 690 453 q 810 642 753 593 q 941 717 867 692 q 1100 742 1015 742 q 1293 697 1210 742 q 1424 574 1376 653 q 1471 392 1471 496 l 1469 343 l 474 343 q 378 337 425 343 q 295 316 332 331 q 237 276 258 301 q 215 213 215 251 q 241 141 215 171 q 313 96 267 111 q 418 81 360 81 q 548 103 486 81 q 655 163 610 126 q 725 236 700 199 l 775 165 q 689 78 744 119 q 563 12 633 38 q 413 -14 492 -14 m 690 381 l 690 485 q 674 550 690 521 q 626 599 657 579 q 556 631 596 619 q 471 643 517 643 q 326 617 396 643 q 196 536 257 590 l 131 608 q 233 681 179 651 q 347 725 288 710 q 474 740 407 740 q 591 728 535 740 q 690 690 647 717 q 759 622 733 663 q 785 525 785 582 l 785 383 l 690 381 z "},"ǽ":{"ha":1600,"x_min":113,"x_max":1471,"o":"m 413 -14 q 256 13 324 -14 q 151 88 189 39 q 113 207 113 138 q 142 319 113 275 q 222 387 171 363 q 342 422 272 411 q 492 432 413 432 l 1390 432 l 1365 407 l 1365 439 q 1328 540 1363 493 q 1234 615 1293 586 q 1100 644 1175 644 q 943 615 1013 644 q 832 526 874 586 q 790 367 790 465 q 835 213 790 276 q 958 117 879 150 q 1138 83 1036 83 q 1278 103 1215 83 q 1404 171 1342 124 l 1456 89 q 1367 38 1418 61 q 1253 0 1315 14 q 1125 -14 1192 -14 q 897 33 994 -14 q 744 165 799 81 q 690 360 690 250 q 722 523 690 453 q 810 642 753 593 q 941 717 867 692 q 1100 742 1015 742 q 1293 697 1210 742 q 1424 574 1376 653 q 1471 392 1471 496 l 1469 343 l 474 343 q 378 337 425 343 q 295 316 332 331 q 237 276 258 301 q 215 213 215 251 q 241 141 215 171 q 313 96 267 111 q 418 81 360 81 q 548 103 486 81 q 655 163 610 126 q 725 236 700 199 l 775 165 q 689 78 744 119 q 563 12 633 38 q 413 -14 492 -14 m 690 381 l 690 485 q 674 550 690 521 q 626 599 657 579 q 556 631 596 619 q 471 643 517 643 q 326 617 396 643 q 196 536 257 590 l 131 608 q 233 681 179 651 q 347 725 288 710 q 474 740 407 740 q 591 728 535 740 q 690 690 647 717 q 759 622 733 663 q 785 525 785 582 l 785 383 l 690 381 m 708 832 l 671 889 l 868 1054 l 936 967 l 708 832 z "},"b":{"ha":1143,"x_min":217,"x_max":1024,"o":"m 629 -14 q 508 3 565 -14 q 404 49 450 19 q 327 115 358 78 q 282 194 296 153 l 324 188 l 319 1 l 217 1 l 217 1028 l 321 1028 l 321 550 l 289 539 q 333 617 301 581 q 410 681 364 653 q 512 726 456 710 q 632 742 568 742 q 831 693 743 742 q 972 560 919 644 q 1024 364 1024 475 q 972 170 1024 256 q 832 35 921 85 q 629 -14 743 -14 m 617 86 q 774 122 706 86 q 881 222 842 158 q 919 365 919 285 q 880 508 919 446 q 773 607 840 571 q 618 643 706 643 q 457 606 526 643 q 349 508 388 569 q 310 365 310 446 q 349 221 310 283 q 458 122 389 158 q 617 86 528 86 z "},"c":{"ha":999,"x_min":119,"x_max":886,"o":"m 532 -14 q 321 35 414 -14 q 174 170 228 85 q 119 364 119 256 q 174 559 119 474 q 321 693 228 644 q 533 742 414 742 q 735 706 642 742 q 886 604 828 669 l 826 522 q 745 584 793 557 q 642 628 697 611 q 529 644 588 644 q 374 608 442 644 q 267 508 306 571 q 228 364 228 444 q 269 219 228 282 q 378 120 310 156 q 528 85 446 85 q 647 99 593 85 q 745 138 701 114 q 825 192 789 163 l 883 110 q 730 22 821 57 q 532 -14 639 -14 z "},"ć":{"ha":999,"x_min":119,"x_max":886,"o":"m 532 -14 q 321 35 414 -14 q 174 170 228 85 q 119 364 119 256 q 174 559 119 474 q 321 693 228 644 q 533 742 414 742 q 735 706 642 742 q 886 604 828 669 l 826 522 q 745 584 793 557 q 642 628 697 611 q 529 644 588 644 q 374 608 442 644 q 267 508 306 571 q 228 364 228 444 q 269 219 228 282 q 378 120 310 156 q 528 85 446 85 q 647 99 593 85 q 745 138 701 114 q 825 192 789 163 l 883 110 q 730 22 821 57 q 532 -14 639 -14 m 450 832 l 413 889 l 610 1054 l 678 967 l 450 832 z "},"č":{"ha":999,"x_min":119,"x_max":886,"o":"m 532 -14 q 321 35 414 -14 q 174 170 228 85 q 119 364 119 256 q 174 559 119 474 q 321 693 228 644 q 533 742 414 742 q 735 706 642 742 q 886 604 828 669 l 826 522 q 745 584 793 557 q 642 628 697 611 q 529 644 588 644 q 374 608 442 644 q 267 508 306 571 q 228 364 228 444 q 269 219 228 282 q 378 120 310 156 q 528 85 446 85 q 647 99 593 85 q 745 138 701 114 q 825 192 789 163 l 883 110 q 730 22 821 57 q 532 -14 639 -14 m 481 838 l 332 986 l 378 1026 l 553 908 l 511 908 l 686 1026 l 732 986 l 583 838 l 481 838 z "},"ç":{"ha":999,"x_min":119,"x_max":886,"o":"m 532 -14 q 321 35 414 -14 q 174 170 228 85 q 119 364 119 256 q 174 559 119 474 q 321 693 228 644 q 533 742 414 742 q 735 706 642 742 q 886 604 828 669 l 826 522 q 745 584 793 557 q 642 628 697 611 q 529 644 588 644 q 374 608 442 644 q 267 508 306 571 q 228 364 228 444 q 269 219 228 282 q 378 120 310 156 q 528 85 446 85 q 647 99 593 85 q 745 138 701 114 q 825 192 789 163 l 883 110 q 730 22 821 57 q 532 -14 639 -14 m 400 -329 l 390 -271 q 469 -261 432 -269 q 531 -236 507 -253 q 556 -197 556 -219 q 534 -162 556 -176 q 483 -142 513 -149 q 422 -136 453 -136 l 408 -114 l 497 21 l 568 21 l 508 -74 q 605 -112 567 -85 q 643 -190 643 -140 q 620 -255 643 -228 q 561 -299 597 -282 q 483 -323 525 -315 q 400 -329 440 -331 z "},"ḉ":{"ha":999,"x_min":119,"x_max":886,"o":"m 532 -14 q 321 35 414 -14 q 174 170 228 85 q 119 364 119 256 q 174 559 119 474 q 321 693 228 644 q 533 742 414 742 q 735 706 642 742 q 886 604 828 669 l 826 522 q 745 584 793 557 q 642 628 697 611 q 529 644 588 644 q 374 608 442 644 q 267 508 306 571 q 228 364 228 444 q 269 219 228 282 q 378 120 310 156 q 528 85 446 85 q 647 99 593 85 q 745 138 701 114 q 825 192 789 163 l 883 110 q 730 22 821 57 q 532 -14 639 -14 m 400 -329 l 390 -271 q 469 -261 432 -269 q 531 -236 507 -253 q 556 -197 556 -219 q 534 -162 556 -176 q 483 -142 513 -149 q 422 -136 453 -136 l 408 -114 l 497 21 l 568 21 l 508 -74 q 605 -112 567 -85 q 643 -190 643 -140 q 620 -255 643 -228 q 561 -299 597 -282 q 483 -323 525 -315 q 400 -329 440 -331 m 450 832 l 413 889 l 610 1054 l 678 967 l 450 832 z "},"ĉ":{"ha":999,"x_min":119,"x_max":886,"o":"m 532 -14 q 321 35 414 -14 q 174 170 228 85 q 119 364 119 256 q 174 559 119 474 q 321 693 228 644 q 533 742 414 742 q 735 706 642 742 q 886 604 828 669 l 826 522 q 745 584 793 557 q 642 628 697 611 q 529 644 588 644 q 374 608 442 644 q 267 508 306 571 q 228 364 228 444 q 269 219 228 282 q 378 120 310 156 q 528 85 446 85 q 647 99 593 85 q 745 138 701 114 q 825 192 789 163 l 883 110 q 730 22 821 57 q 532 -14 639 -14 m 371 840 l 325 879 l 481 1028 l 583 1028 l 739 879 l 693 840 l 511 958 l 553 958 l 371 840 z "},"ċ":{"ha":999,"x_min":119,"x_max":886,"o":"m 532 -14 q 321 35 414 -14 q 174 170 228 85 q 119 364 119 256 q 174 559 119 474 q 321 693 228 644 q 533 742 414 742 q 735 706 642 742 q 886 604 828 669 l 826 522 q 745 584 793 557 q 642 628 697 611 q 529 644 588 644 q 374 608 442 644 q 267 508 306 571 q 228 364 228 444 q 269 219 228 282 q 378 120 310 156 q 528 85 446 85 q 647 99 593 85 q 745 138 701 114 q 825 192 789 163 l 883 110 q 730 22 821 57 q 532 -14 639 -14 m 532 886 q 474 906 494 886 q 453 963 453 926 q 474 1017 453 996 q 532 1039 494 1039 q 590 1019 569 1039 q 611 963 611 999 q 590 908 611 929 q 532 886 569 886 z "},"d":{"ha":1128,"x_min":115,"x_max":931,"o":"m 506 -14 q 302 35 390 -14 q 165 169 214 83 q 115 364 115 256 q 167 560 115 475 q 307 694 218 646 q 508 742 396 742 q 637 725 578 742 q 742 678 696 708 q 819 610 789 649 q 860 528 849 571 l 826 538 l 826 1028 l 931 1028 l 931 0 l 828 0 l 824 193 l 853 200 q 812 119 843 157 q 734 50 781 81 q 628 3 688 19 q 506 -14 569 -14 m 525 85 q 683 121 614 85 q 792 220 753 157 q 832 365 832 283 q 793 508 832 444 q 685 607 754 571 q 525 643 617 643 q 369 607 438 643 q 263 508 301 571 q 224 365 224 444 q 263 222 224 285 q 369 122 301 158 q 525 85 438 85 z "},"ð":{"ha":1043,"x_min":119,"x_max":922,"o":"m 518 -12 q 310 38 400 -12 q 170 174 221 88 q 119 365 119 260 q 149 509 119 442 q 233 627 179 576 q 358 705 286 678 q 513 732 429 732 q 670 701 601 732 q 785 616 739 669 q 854 496 832 563 l 811 493 q 790 600 810 546 q 736 706 769 654 q 657 806 703 758 q 556 890 611 853 q 439 956 501 928 l 490 1026 q 615 961 553 1006 q 732 856 676 917 q 831 721 788 796 q 899 560 875 646 q 922 381 922 474 q 869 175 922 264 q 725 37 817 86 q 518 -12 633 -12 m 518 83 q 669 120 603 83 q 776 221 736 157 q 815 365 815 285 q 776 504 815 442 q 667 603 736 567 q 510 640 597 640 q 365 604 429 640 q 264 506 301 568 q 226 365 226 444 q 265 221 226 285 q 369 120 303 157 q 518 83 436 83 m 393 765 l 379 838 l 608 881 l 663 899 l 850 931 l 869 857 l 722 835 l 678 818 l 393 765 z "},"ď":{"ha":1131,"x_min":115,"x_max":1183,"o":"m 506 -14 q 302 35 390 -14 q 165 169 214 83 q 115 364 115 256 q 167 560 115 475 q 307 694 218 646 q 508 742 396 742 q 637 725 578 742 q 742 678 696 708 q 819 610 789 649 q 860 528 849 571 l 826 538 l 826 1028 l 931 1028 l 931 0 l 828 0 l 824 193 l 853 200 q 812 119 843 157 q 734 50 781 81 q 628 3 688 19 q 506 -14 569 -14 m 525 85 q 683 121 614 85 q 792 220 753 157 q 832 365 832 283 q 793 508 832 444 q 685 607 754 571 q 525 643 617 643 q 369 607 438 643 q 263 508 301 571 q 224 365 224 444 q 263 222 224 285 q 369 122 301 158 q 525 85 438 85 m 1044 779 l 1014 825 q 1050 846 1035 835 q 1074 870 1065 857 q 1083 894 1083 883 q 1075 915 1083 910 q 1054 924 1067 919 q 1030 940 1040 929 q 1019 971 1019 950 q 1040 1013 1019 999 q 1092 1028 1061 1028 q 1156 1003 1129 1028 q 1183 933 1183 979 q 1171 883 1183 907 q 1139 840 1158 860 q 1095 806 1119 821 q 1044 779 1071 792 z "},"đ":{"ha":1128,"x_min":115,"x_max":1046,"o":"m 565 835 l 565 925 l 1046 925 l 1046 835 l 565 835 m 506 -14 q 302 35 390 -14 q 165 169 214 83 q 115 364 115 256 q 167 560 115 475 q 307 694 218 646 q 508 742 396 742 q 637 725 578 742 q 742 678 696 708 q 819 610 789 649 q 860 528 849 571 l 826 538 l 826 1028 l 931 1028 l 931 0 l 828 0 l 824 193 l 853 200 q 812 119 843 157 q 734 50 781 81 q 628 3 688 19 q 506 -14 569 -14 m 525 85 q 683 121 614 85 q 792 220 753 157 q 832 365 832 283 q 793 508 832 444 q 685 607 754 571 q 525 643 617 643 q 369 607 438 643 q 263 508 301 571 q 224 365 224 444 q 263 222 224 285 q 369 122 301 158 q 525 85 438 85 z "},"ḍ":{"ha":1128,"x_min":115,"x_max":931,"o":"m 506 -14 q 302 35 390 -14 q 165 169 214 83 q 115 364 115 256 q 167 560 115 475 q 307 694 218 646 q 508 742 396 742 q 637 725 578 742 q 742 678 696 708 q 819 610 789 649 q 860 528 849 571 l 826 538 l 826 1028 l 931 1028 l 931 0 l 828 0 l 824 193 l 853 200 q 812 119 843 157 q 734 50 781 81 q 628 3 688 19 q 506 -14 569 -14 m 525 85 q 683 121 614 85 q 792 220 753 157 q 832 365 832 283 q 793 508 832 444 q 685 607 754 571 q 525 643 617 643 q 369 607 438 643 q 263 508 301 571 q 224 365 224 444 q 263 222 224 285 q 369 122 301 158 q 525 85 438 85 m 549 -257 q 490 -236 510 -257 q 469 -182 469 -215 q 489 -128 469 -150 q 549 -106 508 -106 q 608 -126 588 -106 q 628 -182 628 -147 q 608 -235 628 -212 q 549 -257 589 -257 z "},"ḏ":{"ha":1128,"x_min":115,"x_max":931,"o":"m 506 -14 q 302 35 390 -14 q 165 169 214 83 q 115 364 115 256 q 167 560 115 475 q 307 694 218 646 q 508 742 396 742 q 637 725 578 742 q 742 678 696 708 q 819 610 789 649 q 860 528 849 571 l 826 538 l 826 1028 l 931 1028 l 931 0 l 828 0 l 824 193 l 853 200 q 812 119 843 157 q 734 50 781 81 q 628 3 688 19 q 506 -14 569 -14 m 525 85 q 683 121 614 85 q 792 220 753 157 q 832 365 832 283 q 793 508 832 444 q 685 607 754 571 q 525 643 617 643 q 369 607 438 643 q 263 508 301 571 q 224 365 224 444 q 263 222 224 285 q 369 122 301 158 q 525 85 438 85 m 356 -224 l 356 -139 l 740 -139 l 740 -224 l 356 -224 z "},"ǆ":{"ha":1963,"x_min":115,"x_max":1861,"o":"m 506 -14 q 302 35 390 -14 q 165 169 214 83 q 115 364 115 256 q 167 560 115 475 q 307 694 218 646 q 508 742 396 742 q 637 725 578 742 q 742 678 696 708 q 819 610 789 649 q 860 528 849 571 l 826 538 l 826 1028 l 931 1028 l 931 0 l 828 0 l 824 193 l 853 200 q 812 119 843 157 q 734 50 781 81 q 628 3 688 19 q 506 -14 569 -14 m 525 85 q 683 121 614 85 q 792 220 753 157 q 832 365 832 283 q 793 508 832 444 q 685 607 754 571 q 525 643 617 643 q 369 607 438 643 q 263 508 301 571 q 224 365 224 444 q 263 222 224 285 q 369 122 301 158 q 525 85 438 85 m 1228 0 l 1228 90 l 1732 651 l 1754 633 l 1228 633 l 1228 725 l 1846 725 l 1846 636 l 1342 75 l 1321 92 l 1861 92 l 1861 0 l 1228 0 m 1492 838 l 1343 986 l 1389 1026 l 1564 908 l 1522 908 l 1697 1026 l 1743 986 l 1594 838 l 1492 838 z "},"e":{"ha":1049,"x_min":113,"x_max":922,"o":"m 549 -14 q 322 34 421 -14 q 167 167 222 82 q 113 360 113 251 q 145 516 113 446 q 235 637 178 586 q 370 715 293 688 q 535 743 447 743 q 690 717 618 743 q 815 644 763 692 q 894 533 867 597 q 919 392 922 469 l 918 335 l 200 335 l 185 422 l 839 422 l 814 407 l 814 440 q 775 539 811 493 q 677 614 739 585 q 535 643 615 643 q 374 614 446 643 q 260 524 301 585 q 219 367 219 463 q 261 219 219 282 q 382 121 303 156 q 567 86 461 86 q 715 108 651 86 q 839 174 779 131 l 888 94 q 797 40 850 64 q 682 1 744 15 q 549 -14 619 -14 z "},"é":{"ha":1049,"x_min":113,"x_max":922,"o":"m 549 -14 q 322 34 421 -14 q 167 167 222 82 q 113 360 113 251 q 145 516 113 446 q 235 637 178 586 q 370 715 293 688 q 535 743 447 743 q 690 717 618 743 q 815 644 763 692 q 894 533 867 597 q 919 392 922 469 l 918 335 l 200 335 l 185 422 l 839 422 l 814 407 l 814 440 q 775 539 811 493 q 677 614 739 585 q 535 643 615 643 q 374 614 446 643 q 260 524 301 585 q 219 367 219 463 q 261 219 219 282 q 382 121 303 156 q 567 86 461 86 q 715 108 651 86 q 839 174 779 131 l 888 94 q 797 40 850 64 q 682 1 744 15 q 549 -14 619 -14 m 450 832 l 413 889 l 610 1054 l 678 967 l 450 832 z "},"ĕ":{"ha":1049,"x_min":113,"x_max":922,"o":"m 549 -14 q 322 34 421 -14 q 167 167 222 82 q 113 360 113 251 q 145 516 113 446 q 235 637 178 586 q 370 715 293 688 q 535 743 447 743 q 690 717 618 743 q 815 644 763 692 q 894 533 867 597 q 919 392 922 469 l 918 335 l 200 335 l 185 422 l 839 422 l 814 407 l 814 440 q 775 539 811 493 q 677 614 739 585 q 535 643 615 643 q 374 614 446 643 q 260 524 301 585 q 219 367 219 463 q 261 219 219 282 q 382 121 303 156 q 567 86 461 86 q 715 108 651 86 q 839 174 779 131 l 888 94 q 797 40 850 64 q 682 1 744 15 q 549 -14 619 -14 m 535 822 q 397 876 453 822 q 324 1021 342 929 l 404 1032 q 456 940 421 974 q 535 907 490 907 q 614 940 579 907 q 665 1032 649 974 l 746 1021 q 672 876 728 929 q 535 822 617 822 z "},"ě":{"ha":1049,"x_min":113,"x_max":922,"o":"m 549 -14 q 322 34 421 -14 q 167 167 222 82 q 113 360 113 251 q 145 516 113 446 q 235 637 178 586 q 370 715 293 688 q 535 743 447 743 q 690 717 618 743 q 815 644 763 692 q 894 533 867 597 q 919 392 922 469 l 918 335 l 200 335 l 185 422 l 839 422 l 814 407 l 814 440 q 775 539 811 493 q 677 614 739 585 q 535 643 615 643 q 374 614 446 643 q 260 524 301 585 q 219 367 219 463 q 261 219 219 282 q 382 121 303 156 q 567 86 461 86 q 715 108 651 86 q 839 174 779 131 l 888 94 q 797 40 850 64 q 682 1 744 15 q 549 -14 619 -14 m 483 838 l 335 986 l 381 1026 l 556 908 l 514 908 l 689 1026 l 735 986 l 586 838 l 483 838 z "},"ḝ":{"ha":1049,"x_min":113,"x_max":922,"o":"m 549 -14 q 322 34 421 -14 q 167 167 222 82 q 113 360 113 251 q 145 516 113 446 q 235 637 178 586 q 370 715 293 688 q 535 743 447 743 q 690 717 618 743 q 815 644 763 692 q 894 533 867 597 q 919 392 922 469 l 918 335 l 200 335 l 185 422 l 839 422 l 814 407 l 814 440 q 775 539 811 493 q 677 614 739 585 q 535 643 615 643 q 374 614 446 643 q 260 524 301 585 q 219 367 219 463 q 261 219 219 282 q 382 121 303 156 q 567 86 461 86 q 715 108 651 86 q 839 174 779 131 l 888 94 q 797 40 850 64 q 682 1 744 15 q 549 -14 619 -14 m 417 -329 l 407 -271 q 486 -261 449 -269 q 548 -236 524 -253 q 572 -197 572 -219 q 551 -162 572 -176 q 499 -142 529 -149 q 439 -136 469 -136 l 425 -114 l 514 21 l 585 21 l 525 -74 q 622 -112 583 -85 q 660 -190 660 -140 q 637 -255 660 -228 q 578 -299 614 -282 q 499 -323 542 -315 q 417 -329 457 -331 m 535 822 q 397 876 453 822 q 324 1021 342 929 l 404 1032 q 456 940 421 974 q 535 907 490 907 q 614 940 579 907 q 665 1032 649 974 l 746 1021 q 672 876 728 929 q 535 822 617 822 z "},"ê":{"ha":1049,"x_min":113,"x_max":922,"o":"m 549 -14 q 322 34 421 -14 q 167 167 222 82 q 113 360 113 251 q 145 516 113 446 q 235 637 178 586 q 370 715 293 688 q 535 743 447 743 q 690 717 618 743 q 815 644 763 692 q 894 533 867 597 q 919 392 922 469 l 918 335 l 200 335 l 185 422 l 839 422 l 814 407 l 814 440 q 775 539 811 493 q 677 614 739 585 q 535 643 615 643 q 374 614 446 643 q 260 524 301 585 q 219 367 219 463 q 261 219 219 282 q 382 121 303 156 q 567 86 461 86 q 715 108 651 86 q 839 174 779 131 l 888 94 q 797 40 850 64 q 682 1 744 15 q 549 -14 619 -14 m 374 840 l 328 879 l 483 1028 l 586 1028 l 742 879 l 696 840 l 514 958 l 556 958 l 374 840 z "},"ế":{"ha":1049,"x_min":113,"x_max":922,"o":"m 549 -14 q 322 34 421 -14 q 167 167 222 82 q 113 360 113 251 q 145 516 113 446 q 235 637 178 586 q 370 715 293 688 q 535 743 447 743 q 690 717 618 743 q 815 644 763 692 q 894 533 867 597 q 919 392 922 469 l 918 335 l 200 335 l 185 422 l 839 422 l 814 407 l 814 440 q 775 539 811 493 q 677 614 739 585 q 535 643 615 643 q 374 614 446 643 q 260 524 301 585 q 219 367 219 463 q 261 219 219 282 q 382 121 303 156 q 567 86 461 86 q 715 108 651 86 q 839 174 779 131 l 888 94 q 797 40 850 64 q 682 1 744 15 q 549 -14 619 -14 m 374 840 l 328 879 l 483 1028 l 586 1028 l 740 879 l 696 840 l 514 958 l 556 958 l 374 840 m 753 1017 l 696 1056 l 800 1247 l 897 1181 l 753 1017 z "},"ệ":{"ha":1049,"x_min":113,"x_max":922,"o":"m 549 -14 q 322 34 421 -14 q 167 167 222 82 q 113 360 113 251 q 145 516 113 446 q 235 637 178 586 q 370 715 293 688 q 535 743 447 743 q 690 717 618 743 q 815 644 763 692 q 894 533 867 597 q 919 392 922 469 l 918 335 l 200 335 l 185 422 l 839 422 l 814 407 l 814 440 q 775 539 811 493 q 677 614 739 585 q 535 643 615 643 q 374 614 446 643 q 260 524 301 585 q 219 367 219 463 q 261 219 219 282 q 382 121 303 156 q 567 86 461 86 q 715 108 651 86 q 839 174 779 131 l 888 94 q 797 40 850 64 q 682 1 744 15 q 549 -14 619 -14 m 547 -257 q 488 -236 508 -257 q 468 -182 468 -215 q 488 -128 468 -150 q 547 -106 507 -106 q 606 -126 586 -106 q 626 -182 626 -147 q 607 -235 626 -212 q 547 -257 588 -257 m 374 840 l 328 879 l 483 1028 l 586 1028 l 742 879 l 696 840 l 514 958 l 556 958 l 374 840 z "},"ề":{"ha":1049,"x_min":113,"x_max":922,"o":"m 549 -14 q 322 34 421 -14 q 167 167 222 82 q 113 360 113 251 q 145 516 113 446 q 235 637 178 586 q 370 715 293 688 q 535 743 447 743 q 690 717 618 743 q 815 644 763 692 q 894 533 867 597 q 919 392 922 469 l 918 335 l 200 335 l 185 422 l 839 422 l 814 407 l 814 440 q 775 539 811 493 q 677 614 739 585 q 535 643 615 643 q 374 614 446 643 q 260 524 301 585 q 219 367 219 463 q 261 219 219 282 q 382 121 303 156 q 567 86 461 86 q 715 108 651 86 q 839 174 779 131 l 888 94 q 797 40 850 64 q 682 1 744 15 q 549 -14 619 -14 m 374 840 l 328 879 l 483 1028 l 585 1028 l 740 879 l 696 840 l 514 958 l 556 958 l 374 840 m 729 1015 l 582 1179 l 681 1247 l 783 1056 l 729 1015 z "},"ể":{"ha":1049,"x_min":113,"x_max":922,"o":"m 549 -14 q 322 34 421 -14 q 167 167 222 82 q 113 360 113 251 q 145 516 113 446 q 235 637 178 586 q 370 715 293 688 q 535 743 447 743 q 690 717 618 743 q 815 644 763 692 q 894 533 867 597 q 919 392 922 469 l 918 335 l 200 335 l 185 422 l 839 422 l 814 407 l 814 440 q 775 539 811 493 q 677 614 739 585 q 535 643 615 643 q 374 614 446 643 q 260 524 301 585 q 219 367 219 463 q 261 219 219 282 q 382 121 303 156 q 567 86 461 86 q 715 108 651 86 q 839 174 779 131 l 888 94 q 797 40 850 64 q 682 1 744 15 q 549 -14 619 -14 m 372 840 l 326 879 l 482 1028 l 585 1028 l 740 879 l 694 840 l 513 958 l 554 958 l 372 840 m 701 1007 q 690 1030 694 1018 q 686 1051 686 1042 q 693 1077 686 1063 q 722 1106 700 1092 q 756 1131 744 1121 q 768 1151 768 1140 q 752 1174 768 1167 q 713 1181 736 1181 q 665 1176 692 1181 q 613 1157 639 1171 l 593 1226 q 658 1249 624 1242 q 719 1257 692 1257 q 820 1228 786 1257 q 854 1161 854 1199 q 838 1110 854 1128 q 801 1081 821 1092 q 771 1061 782 1069 q 760 1038 760 1053 q 760 1031 760 1035 q 763 1022 761 1028 l 701 1007 z "},"ễ":{"ha":1049,"x_min":113,"x_max":922,"o":"m 549 -14 q 322 34 421 -14 q 167 167 222 82 q 113 360 113 251 q 145 516 113 446 q 235 637 178 586 q 370 715 293 688 q 535 743 447 743 q 690 717 618 743 q 815 644 763 692 q 894 533 867 597 q 919 392 922 469 l 918 335 l 200 335 l 185 422 l 839 422 l 814 407 l 814 440 q 775 539 811 493 q 677 614 739 585 q 535 643 615 643 q 374 614 446 643 q 260 524 301 585 q 219 367 219 463 q 261 219 219 282 q 382 121 303 156 q 567 86 461 86 q 715 108 651 86 q 839 174 779 131 l 888 94 q 797 40 850 64 q 682 1 744 15 q 549 -14 619 -14 m 372 840 l 326 879 l 482 1028 l 583 1028 l 739 879 l 693 840 l 511 958 l 553 958 l 372 840 m 632 1113 q 574 1125 599 1113 q 524 1149 549 1138 q 490 1165 507 1157 q 453 1174 474 1174 q 416 1160 432 1174 q 394 1122 400 1147 l 319 1132 q 362 1220 325 1183 q 446 1257 399 1257 q 499 1245 476 1257 q 544 1222 522 1233 q 582 1204 564 1213 q 618 1196 600 1196 q 653 1210 639 1196 q 671 1247 667 1224 l 747 1238 q 730 1176 744 1204 q 691 1130 715 1147 q 632 1113 667 1113 z "},"ȅ":{"ha":1049,"x_min":113,"x_max":922,"o":"m 549 -14 q 322 34 421 -14 q 167 167 222 82 q 113 360 113 251 q 145 516 113 446 q 235 637 178 586 q 370 715 293 688 q 535 743 447 743 q 690 717 618 743 q 815 644 763 692 q 894 533 867 597 q 919 392 922 469 l 918 335 l 200 335 l 185 422 l 839 422 l 814 407 l 814 440 q 775 539 811 493 q 677 614 739 585 q 535 643 615 643 q 374 614 446 643 q 260 524 301 585 q 219 367 219 463 q 261 219 219 282 q 382 121 303 156 q 567 86 461 86 q 715 108 651 86 q 839 174 779 131 l 888 94 q 797 40 850 64 q 682 1 744 15 q 549 -14 619 -14 m 658 832 l 431 967 l 497 1054 l 696 889 l 658 832 m 417 832 l 189 967 l 257 1054 l 454 889 l 417 832 z "},"ë":{"ha":1049,"x_min":113,"x_max":922,"o":"m 549 -14 q 322 34 421 -14 q 167 167 222 82 q 113 360 113 251 q 145 516 113 446 q 235 637 178 586 q 370 715 293 688 q 535 743 447 743 q 690 717 618 743 q 815 644 763 692 q 894 533 867 597 q 919 392 922 469 l 918 335 l 200 335 l 185 422 l 839 422 l 814 407 l 814 440 q 775 539 811 493 q 677 614 739 585 q 535 643 615 643 q 374 614 446 643 q 260 524 301 585 q 219 367 219 463 q 261 219 219 282 q 382 121 303 156 q 567 86 461 86 q 715 108 651 86 q 839 174 779 131 l 888 94 q 797 40 850 64 q 682 1 744 15 q 549 -14 619 -14 m 669 881 q 611 901 632 881 q 590 957 590 921 q 611 1011 590 990 q 669 1032 632 1032 q 728 1013 707 1032 q 749 957 749 993 q 728 901 749 922 q 669 881 707 881 m 399 881 q 339 900 360 881 q 318 956 318 919 q 340 1011 318 990 q 399 1032 361 1032 q 457 1012 436 1032 q 478 956 478 992 q 456 901 478 922 q 399 881 435 881 z "},"ė":{"ha":1049,"x_min":113,"x_max":922,"o":"m 549 -14 q 322 34 421 -14 q 167 167 222 82 q 113 360 113 251 q 145 516 113 446 q 235 637 178 586 q 370 715 293 688 q 535 743 447 743 q 690 717 618 743 q 815 644 763 692 q 894 533 867 597 q 919 392 922 469 l 918 335 l 200 335 l 185 422 l 839 422 l 814 407 l 814 440 q 775 539 811 493 q 677 614 739 585 q 535 643 615 643 q 374 614 446 643 q 260 524 301 585 q 219 367 219 463 q 261 219 219 282 q 382 121 303 156 q 567 86 461 86 q 715 108 651 86 q 839 174 779 131 l 888 94 q 797 40 850 64 q 682 1 744 15 q 549 -14 619 -14 m 535 886 q 476 906 497 886 q 456 963 456 926 q 476 1017 456 996 q 535 1039 497 1039 q 593 1019 572 1039 q 614 963 614 999 q 593 908 614 929 q 535 886 572 886 z "},"ẹ":{"ha":1049,"x_min":113,"x_max":922,"o":"m 549 -14 q 322 34 421 -14 q 167 167 222 82 q 113 360 113 251 q 145 516 113 446 q 235 637 178 586 q 370 715 293 688 q 535 743 447 743 q 690 717 618 743 q 815 644 763 692 q 894 533 867 597 q 919 392 922 469 l 918 335 l 200 335 l 185 422 l 839 422 l 814 407 l 814 440 q 775 539 811 493 q 677 614 739 585 q 535 643 615 643 q 374 614 446 643 q 260 524 301 585 q 219 367 219 463 q 261 219 219 282 q 382 121 303 156 q 567 86 461 86 q 715 108 651 86 q 839 174 779 131 l 888 94 q 797 40 850 64 q 682 1 744 15 q 549 -14 619 -14 m 547 -257 q 488 -236 508 -257 q 468 -182 468 -215 q 488 -128 468 -150 q 547 -106 507 -106 q 606 -126 586 -106 q 626 -182 626 -147 q 607 -235 626 -212 q 547 -257 588 -257 z "},"è":{"ha":1049,"x_min":113,"x_max":922,"o":"m 549 -14 q 322 34 421 -14 q 167 167 222 82 q 113 360 113 251 q 145 516 113 446 q 235 637 178 586 q 370 715 293 688 q 535 743 447 743 q 690 717 618 743 q 815 644 763 692 q 894 533 867 597 q 919 392 922 469 l 918 335 l 200 335 l 185 422 l 839 422 l 814 407 l 814 440 q 775 539 811 493 q 677 614 739 585 q 535 643 615 643 q 374 614 446 643 q 260 524 301 585 q 219 367 219 463 q 261 219 219 282 q 382 121 303 156 q 567 86 461 86 q 715 108 651 86 q 839 174 779 131 l 888 94 q 797 40 850 64 q 682 1 744 15 q 549 -14 619 -14 m 601 832 l 375 967 l 442 1054 l 640 889 l 601 832 z "},"ẻ":{"ha":1049,"x_min":113,"x_max":922,"o":"m 549 -14 q 322 34 421 -14 q 167 167 222 82 q 113 360 113 251 q 145 516 113 446 q 235 637 178 586 q 370 715 293 688 q 535 743 447 743 q 690 717 618 743 q 815 644 763 692 q 894 533 867 597 q 919 392 922 469 l 918 335 l 200 335 l 185 422 l 839 422 l 814 407 l 814 440 q 775 539 811 493 q 677 614 739 585 q 535 643 615 643 q 374 614 446 643 q 260 524 301 585 q 219 367 219 463 q 261 219 219 282 q 382 121 303 156 q 567 86 461 86 q 715 108 651 86 q 839 174 779 131 l 888 94 q 797 40 850 64 q 682 1 744 15 q 549 -14 619 -14 m 511 828 q 500 851 504 839 q 496 872 496 863 q 503 897 496 883 q 532 926 510 911 q 566 951 554 942 q 578 972 578 961 q 562 994 578 988 q 522 1001 546 1001 q 475 995 501 1001 q 424 978 449 989 l 403 1047 q 467 1070 433 1063 q 529 1078 501 1078 q 631 1049 597 1078 q 664 981 664 1019 q 647 931 664 949 q 611 901 631 913 q 581 882 592 890 q 569 858 569 874 q 570 852 569 856 q 572 843 571 849 l 511 828 z "},"ȇ":{"ha":1049,"x_min":113,"x_max":922,"o":"m 549 -14 q 322 34 421 -14 q 167 167 222 82 q 113 360 113 251 q 145 516 113 446 q 235 637 178 586 q 370 715 293 688 q 535 743 447 743 q 690 717 618 743 q 815 644 763 692 q 894 533 867 597 q 919 392 922 469 l 918 335 l 200 335 l 185 422 l 839 422 l 814 407 l 814 440 q 775 539 811 493 q 677 614 739 585 q 535 643 615 643 q 374 614 446 643 q 260 524 301 585 q 219 367 219 463 q 261 219 219 282 q 382 121 303 156 q 567 86 461 86 q 715 108 651 86 q 839 174 779 131 l 888 94 q 797 40 850 64 q 682 1 744 15 q 549 -14 619 -14 m 404 836 l 324 849 q 397 992 342 939 q 535 1046 453 1046 q 672 992 617 1046 q 746 849 728 939 l 665 836 q 614 928 649 894 q 535 963 579 963 q 456 928 490 963 q 404 836 421 894 z "},"ē":{"ha":1049,"x_min":113,"x_max":922,"o":"m 549 -14 q 322 34 421 -14 q 167 167 222 82 q 113 360 113 251 q 145 516 113 446 q 235 637 178 586 q 370 715 293 688 q 535 743 447 743 q 690 717 618 743 q 815 644 763 692 q 894 533 867 597 q 919 392 922 469 l 918 335 l 200 335 l 185 422 l 839 422 l 814 407 l 814 440 q 775 539 811 493 q 677 614 739 585 q 535 643 615 643 q 374 614 446 643 q 260 524 301 585 q 219 367 219 463 q 261 219 219 282 q 382 121 303 156 q 567 86 461 86 q 715 108 651 86 q 839 174 779 131 l 888 94 q 797 40 850 64 q 682 1 744 15 q 549 -14 619 -14 m 336 893 l 336 974 l 733 974 l 733 893 l 336 893 z "},"ḗ":{"ha":1049,"x_min":113,"x_max":922,"o":"m 549 -14 q 322 34 421 -14 q 167 167 222 82 q 113 360 113 251 q 145 516 113 446 q 235 637 178 586 q 370 715 293 688 q 535 743 447 743 q 690 717 618 743 q 815 644 763 692 q 894 533 867 597 q 919 392 922 469 l 918 335 l 200 335 l 185 422 l 839 422 l 814 407 l 814 440 q 775 539 811 493 q 677 614 739 585 q 535 643 615 643 q 374 614 446 643 q 260 524 301 585 q 219 367 219 463 q 261 219 219 282 q 382 121 303 156 q 567 86 461 86 q 715 108 651 86 q 839 174 779 131 l 888 94 q 797 40 850 64 q 682 1 744 15 q 549 -14 619 -14 m 342 879 l 342 960 l 728 960 l 728 879 l 342 879 m 533 1011 l 476 1050 l 594 1235 l 678 1174 l 533 1011 z "},"ḕ":{"ha":1049,"x_min":113,"x_max":922,"o":"m 549 -14 q 322 34 421 -14 q 167 167 222 82 q 113 360 113 251 q 145 516 113 446 q 235 637 178 586 q 370 715 293 688 q 535 743 447 743 q 690 717 618 743 q 815 644 763 692 q 894 533 867 597 q 919 392 922 469 l 918 335 l 200 335 l 185 422 l 839 422 l 814 407 l 814 440 q 775 539 811 493 q 677 614 739 585 q 535 643 615 643 q 374 614 446 643 q 260 524 301 585 q 219 367 219 463 q 261 219 219 282 q 382 121 303 156 q 567 86 461 86 q 715 108 651 86 q 839 174 779 131 l 888 94 q 797 40 850 64 q 682 1 744 15 q 549 -14 619 -14 m 558 1011 l 414 1174 l 497 1235 l 615 1050 l 558 1011 m 342 879 l 342 960 l 728 960 l 728 879 l 342 879 z "},"ę":{"ha":1049,"x_min":113,"x_max":922,"o":"m 699 -293 q 594 -257 633 -293 q 554 -164 554 -221 q 585 -61 554 -106 q 672 23 617 -17 q 801 99 728 63 l 833 57 q 695 -41 743 7 q 647 -144 647 -89 q 664 -194 647 -176 q 711 -211 681 -211 q 750 -201 732 -211 q 785 -168 768 -190 l 846 -212 q 809 -254 831 -236 q 759 -283 788 -272 q 699 -293 731 -293 m 549 -14 q 322 34 421 -14 q 167 167 222 82 q 113 360 113 251 q 145 516 113 446 q 235 637 178 586 q 370 715 293 688 q 535 743 447 743 q 690 717 618 743 q 815 644 763 692 q 894 533 867 597 q 919 392 922 469 l 918 335 l 200 335 l 185 422 l 839 422 l 814 407 l 814 440 q 775 539 811 493 q 677 614 739 585 q 535 643 615 643 q 374 614 446 643 q 260 524 301 585 q 219 367 219 463 q 261 219 219 282 q 382 121 303 156 q 567 86 461 86 q 715 108 651 86 q 839 174 779 131 l 888 94 q 797 40 850 64 q 682 1 744 15 q 549 -14 619 -14 z "},"ẽ":{"ha":1049,"x_min":113,"x_max":922,"o":"m 549 -14 q 322 34 421 -14 q 167 167 222 82 q 113 360 113 251 q 145 516 113 446 q 235 637 178 586 q 370 715 293 688 q 535 743 447 743 q 690 717 618 743 q 815 644 763 692 q 894 533 867 597 q 919 392 922 469 l 918 335 l 200 335 l 185 422 l 839 422 l 814 407 l 814 440 q 775 539 811 493 q 677 614 739 585 q 535 643 615 643 q 374 614 446 643 q 260 524 301 585 q 219 367 219 463 q 261 219 219 282 q 382 121 303 156 q 567 86 461 86 q 715 108 651 86 q 839 174 779 131 l 888 94 q 797 40 850 64 q 682 1 744 15 q 549 -14 619 -14 m 615 851 q 565 864 586 851 q 515 901 543 876 q 483 928 496 919 q 456 936 469 936 q 415 916 432 936 q 393 856 399 896 l 318 865 q 363 972 324 928 q 463 1015 401 1015 q 510 1004 489 1015 q 558 968 531 993 q 592 942 579 951 q 619 932 604 932 q 655 951 640 932 q 674 1004 669 971 l 750 994 q 730 923 747 956 q 683 871 713 890 q 615 851 654 851 z "},"ə":{"ha":1046,"x_min":126,"x_max":933,"o":"m 513 -18 q 313 28 400 -17 q 176 151 225 72 q 126 333 126 231 l 128 392 l 847 392 l 863 303 l 207 303 l 232 319 l 232 286 q 272 187 236 233 q 369 111 307 140 q 514 82 432 82 q 673 112 601 82 q 786 203 744 142 q 828 358 828 264 q 785 506 828 443 q 665 604 743 569 q 481 639 588 639 q 332 617 396 639 q 207 551 268 594 l 158 631 q 250 685 197 661 q 365 724 303 710 q 499 739 428 739 q 726 691 628 739 q 878 560 824 643 q 933 365 933 476 q 901 210 933 281 q 811 88 869 139 q 677 10 753 38 q 513 -18 601 -18 z "},"f":{"ha":788,"x_min":133,"x_max":703,"o":"m 293 0 l 293 790 q 323 911 293 858 q 407 994 353 964 q 533 1024 461 1024 q 633 1006 589 1024 q 703 964 678 989 l 667 875 q 607 913 642 899 q 539 926 572 926 q 456 908 488 926 q 409 859 424 890 q 394 790 394 828 l 394 0 l 349 0 q 321 0 333 0 q 293 0 308 0 m 133 618 l 133 714 l 661 714 l 661 618 l 133 618 z "},"g":{"ha":1144,"x_min":119,"x_max":943,"o":"m 558 -319 q 374 -292 454 -319 q 243 -232 294 -265 l 283 -142 q 356 -178 314 -160 q 449 -210 397 -197 q 561 -222 500 -222 q 706 -190 643 -222 q 804 -94 769 -158 q 839 65 839 -31 l 839 182 l 857 185 q 789 85 840 131 q 665 14 738 40 q 507 -12 593 -12 q 307 36 394 -12 q 169 170 219 85 q 119 364 119 256 q 172 560 119 475 q 313 694 224 646 q 517 742 403 742 q 604 733 558 742 q 692 706 650 724 q 771 663 735 688 q 832 606 807 638 q 865 540 857 575 l 835 543 l 839 725 l 943 725 l 943 75 q 913 -99 943 -24 q 831 -222 883 -174 q 707 -295 778 -271 q 558 -319 636 -319 m 536 88 q 695 123 626 88 q 803 222 764 158 q 842 364 842 285 q 803 508 842 446 q 695 607 765 571 q 536 643 625 643 q 378 607 447 643 q 268 508 308 571 q 228 365 228 446 q 267 223 228 286 q 376 124 307 160 q 536 88 446 88 z "},"ğ":{"ha":1144,"x_min":119,"x_max":943,"o":"m 558 -319 q 374 -292 454 -319 q 243 -232 294 -265 l 283 -142 q 356 -178 314 -160 q 449 -210 397 -197 q 561 -222 500 -222 q 706 -190 643 -222 q 804 -94 769 -158 q 839 65 839 -31 l 839 182 l 857 185 q 789 85 840 131 q 665 14 738 40 q 507 -12 593 -12 q 307 36 394 -12 q 169 170 219 85 q 119 364 119 256 q 172 560 119 475 q 313 694 224 646 q 517 742 403 742 q 604 733 558 742 q 692 706 650 724 q 771 663 735 688 q 832 606 807 638 q 865 540 857 575 l 835 543 l 839 725 l 943 725 l 943 75 q 913 -99 943 -24 q 831 -222 883 -174 q 707 -295 778 -271 q 558 -319 636 -319 m 536 88 q 695 123 626 88 q 803 222 764 158 q 842 364 842 285 q 803 508 842 446 q 695 607 765 571 q 536 643 625 643 q 378 607 447 643 q 268 508 308 571 q 228 365 228 446 q 267 223 228 286 q 376 124 307 160 q 536 88 446 88 m 560 822 q 422 876 478 822 q 349 1021 367 929 l 429 1032 q 481 940 446 974 q 560 907 515 907 q 639 940 604 907 q 690 1032 674 974 l 771 1021 q 697 876 753 929 q 560 822 642 822 z "},"ǧ":{"ha":1144,"x_min":119,"x_max":943,"o":"m 558 -319 q 374 -292 454 -319 q 243 -232 294 -265 l 283 -142 q 356 -178 314 -160 q 449 -210 397 -197 q 561 -222 500 -222 q 706 -190 643 -222 q 804 -94 769 -158 q 839 65 839 -31 l 839 182 l 857 185 q 789 85 840 131 q 665 14 738 40 q 507 -12 593 -12 q 307 36 394 -12 q 169 170 219 85 q 119 364 119 256 q 172 560 119 475 q 313 694 224 646 q 517 742 403 742 q 604 733 558 742 q 692 706 650 724 q 771 663 735 688 q 832 606 807 638 q 865 540 857 575 l 835 543 l 839 725 l 943 725 l 943 75 q 913 -99 943 -24 q 831 -222 883 -174 q 707 -295 778 -271 q 558 -319 636 -319 m 536 88 q 695 123 626 88 q 803 222 764 158 q 842 364 842 285 q 803 508 842 446 q 695 607 765 571 q 536 643 625 643 q 378 607 447 643 q 268 508 308 571 q 228 365 228 446 q 267 223 228 286 q 376 124 307 160 q 536 88 446 88 m 508 838 l 360 986 l 406 1026 l 581 908 l 539 908 l 714 1026 l 760 986 l 611 838 l 508 838 z "},"ĝ":{"ha":1144,"x_min":119,"x_max":943,"o":"m 558 -319 q 374 -292 454 -319 q 243 -232 294 -265 l 283 -142 q 356 -178 314 -160 q 449 -210 397 -197 q 561 -222 500 -222 q 706 -190 643 -222 q 804 -94 769 -158 q 839 65 839 -31 l 839 182 l 857 185 q 789 85 840 131 q 665 14 738 40 q 507 -12 593 -12 q 307 36 394 -12 q 169 170 219 85 q 119 364 119 256 q 172 560 119 475 q 313 694 224 646 q 517 742 403 742 q 604 733 558 742 q 692 706 650 724 q 771 663 735 688 q 832 606 807 638 q 865 540 857 575 l 835 543 l 839 725 l 943 725 l 943 75 q 913 -99 943 -24 q 831 -222 883 -174 q 707 -295 778 -271 q 558 -319 636 -319 m 536 88 q 695 123 626 88 q 803 222 764 158 q 842 364 842 285 q 803 508 842 446 q 695 607 765 571 q 536 643 625 643 q 378 607 447 643 q 268 508 308 571 q 228 365 228 446 q 267 223 228 286 q 376 124 307 160 q 536 88 446 88 m 399 840 l 353 879 l 508 1028 l 611 1028 l 767 879 l 721 840 l 539 958 l 581 958 l 399 840 z "}}}
